$MeshFormat
4.1 0 8
$EndMeshFormat
$PhysicalNames
3
1 1 "Boundary 1"
1 2 "Boundary 2"
2 3 "Surface Rect"
$EndPhysicalNames
$Entities
4 4 1 0
1 0 0 0 0 
2 1 0 0 0 
3 1 1 0 0 
4 0 1 0 0 
7 0 0 0 1 0 0 1 1 2 1 -2 
8 1 0 0 1 1 0 1 1 2 2 -3 
9 0 1 0 1 1 0 1 2 2 3 -4 
10 0 0 0 0 1 0 1 2 2 4 -1 
16 0 0 0 1 1 0 1 3 4 7 8 9 10 
$EndEntities
$Nodes
9 25 1 25
0 1 0 1
1
0 0 0
0 2 0 1
2
1 0 0
0 3 0 1
3
1 1 0
0 4 0 1
4
0 1 0
1 7 0 3
5
6
7
0.4999999999986921 0 0
0.2499999999994184 0 0
0.7499999999993461 0 0
1 8 0 3
8
9
10
1 0.4999999999986921 0
1 0.2499999999994184 0
1 0.7499999999993461 0
1 9 0 3
11
12
13
0.5000000000020595 1 0
0.7500000000007601 1 0
0.2500000000010297 1 0
1 10 0 3
14
15
16
0 0.5000000000020595 0
0 0.7500000000007601 0
0 0.2500000000010297 0
2 16 0 9
17
18
19
20
21
22
23
24
25
0.5000000000003758 0.5000000000003758 0
0.4999999999995339 0.2500000000001879 0
0.2500000000001879 0.5000000000012177 0
0.2499999999998032 0.2500000000006088 0
0.5000000000012177 0.7500000000001878 0
0.2500000000006088 0.750000000000474 0
0.7500000000001878 0.4999999999995339 0
0.749999999999767 0.2499999999998032 0
0.750000000000474 0.749999999999767 0
$EndNodes
$Elements
5 12 1 12
1 7 8 2
1 1 5 6 
2 5 2 7 
1 8 8 2
3 2 8 9 
4 8 3 10 
1 9 8 2
5 3 11 12 
6 11 4 13 
1 10 8 2
7 4 14 15 
8 14 1 16 
2 16 10 4
9 1 5 17 14 6 18 19 16 20 
10 14 17 11 4 19 21 13 15 22 
11 5 2 8 17 7 9 23 18 24 
12 17 8 3 11 23 10 12 21 25 
$EndElements
