$MeshFormat
4.1 0 8
$EndMeshFormat
$PhysicalNames
3
1 1 "Boundary 1"
1 2 "Boundary 2"
2 3 "Surface Rect"
$EndPhysicalNames
$Entities
4 4 1 0
1 0 0 0 0 
2 1 0 0 0 
3 1 1 0 0 
4 0 1 0 0 
7 0 0 0 1 0 0 1 1 2 1 -2 
8 1 0 0 1 1 0 1 1 2 2 -3 
9 0 1 0 1 1 0 1 2 2 3 -4 
10 0 0 0 0 1 0 1 2 2 4 -1 
16 0 0 0 1 1 0 1 3 4 7 8 9 10 
$EndEntities
$Nodes
9 1089 1 1089
0 1 0 1
1
0 0 0
0 2 0 1
2
1 0 0
0 3 0 1
3
1 1 0
0 4 0 1
4
0 1 0
1 7 0 31
5
6
7
8
9
10
11
12
13
14
15
16
17
18
19
20
21
22
23
24
25
26
27
28
29
30
31
32
33
34
35
0.06249999999987293 0 0
0.1249999999997731 0 0
0.1874999999995934 0 0
0.2499999999994109 0 0
0.3124999999992285 0 0
0.3749999999990461 0 0
0.4374999999988636 0 0
0.4999999999986921 0 0
0.562499999998846 0 0
0.6249999999990109 0 0
0.6874999999991758 0 0
0.7499999999993406 0 0
0.8124999999995055 0 0
0.8749999999996703 0 0
0.9374999999998351 0 0
0.03124999999994182 0 0
0.09374999999982303 0 0
0.1562499999996833 0 0
0.2187499999995022 0 0
0.2812499999993197 0 0
0.3437499999991373 0 0
0.4062499999989548 0 0
0.4687499999987779 0 0
0.5312499999987691 0 0
0.5937499999989284 0 0
0.6562499999990933 0 0
0.7187499999992581 0 0
0.781249999999423 0 0
0.8437499999995879 0 0
0.9062499999997526 0 0
0.9687499999999175 0 0
1 8 0 31
36
37
38
39
40
41
42
43
44
45
46
47
48
49
50
51
52
53
54
55
56
57
58
59
60
61
62
63
64
65
66
1 0.06249999999987293 0
1 0.1249999999997731 0
1 0.1874999999995934 0
1 0.2499999999994109 0
1 0.3124999999992285 0
1 0.3749999999990461 0
1 0.4374999999988636 0
1 0.4999999999986921 0
1 0.562499999998846 0
1 0.6249999999990109 0
1 0.6874999999991758 0
1 0.7499999999993406 0
1 0.8124999999995055 0
1 0.8749999999996703 0
1 0.9374999999998351 0
1 0.03124999999994182 0
1 0.09374999999982303 0
1 0.1562499999996833 0
1 0.2187499999995022 0
1 0.2812499999993197 0
1 0.3437499999991373 0
1 0.4062499999989548 0
1 0.4687499999987779 0
1 0.5312499999987691 0
1 0.5937499999989284 0
1 0.6562499999990933 0
1 0.7187499999992581 0
1 0.781249999999423 0
1 0.8437499999995879 0
1 0.9062499999997526 0
1 0.9687499999999175 0
1 9 0 31
67
68
69
70
71
72
73
74
75
76
77
78
79
80
81
82
83
84
85
86
87
88
89
90
91
92
93
94
95
96
97
0.9374999999997398 1 0
0.8749999999995012 1 0
0.8124999999999132 1 0
0.7500000000003471 1 0
0.6875000000007805 1 0
0.625000000001214 1 0
0.5625000000016476 1 0
0.5000000000020595 1 0
0.437500000001821 1 0
0.3750000000015609 1 0
0.3125000000013007 1 0
0.2500000000010405 1 0
0.1875000000007804 1 0
0.1250000000005203 1 0
0.06250000000026013 1 0
0.968749999999867 1 0
0.9062499999996767 1 0
0.8437499999997156 1 0
0.7812500000001027 1 0
0.7187500000005669 1 0
0.6562500000009742 1 0
0.5937500000015158 1 0
0.5312500000018237 1 0
0.4687500000019402 1 0
0.4062500000016909 1 0
0.3437500000014307 1 0
0.2812500000011706 1 0
0.2187500000009104 1 0
0.1562500000006503 1 0
0.09375000000039013 1 0
0.03125000000013001 1 0
1 10 0 31
98
99
100
101
102
103
104
105
106
107
108
109
110
111
112
113
114
115
116
117
118
119
120
121
122
123
124
125
126
127
128
0 0.9374999999997398 0
0 0.8749999999995012 0
0 0.8124999999999132 0
0 0.7500000000003471 0
0 0.6875000000007805 0
0 0.625000000001214 0
0 0.5625000000016476 0
0 0.5000000000020595 0
0 0.437500000001821 0
0 0.3750000000015609 0
0 0.3125000000013007 0
0 0.2500000000010405 0
0 0.1875000000007804 0
0 0.1250000000005203 0
0 0.06250000000026013 0
0 0.968749999999867 0
0 0.9062499999996767 0
0 0.8437499999997156 0
0 0.7812500000001027 0
0 0.7187500000005669 0
0 0.6562500000009742 0
0 0.5937500000015158 0
0 0.5312500000018237 0
0 0.4687500000019402 0
0 0.4062500000016909 0
0 0.3437500000014307 0
0 0.2812500000011706 0
0 0.2187500000009104 0
0 0.1562500000006503 0
0 0.09375000000039013 0
0 0.03125000000013001 0
2 16 0 961
129
130
131
132
133
134
135
136
137
138
139
140
141
142
143
144
145
146
147
148
149
150
151
152
153
154
155
156
157
158
159
160
161
162
163
164
165
166
167
168
169
170
171
172
173
174
175
176
177
178
179
180
181
182
183
184
185
186
187
188
189
190
191
192
193
194
195
196
197
198
199
200
201
202
203
204
205
206
207
208
209
210
211
212
213
214
215
216
217
218
219
220
221
222
223
224
225
226
227
228
229
230
231
232
233
234
235
236
237
238
239
240
241
242
243
244
245
246
247
248
249
250
251
252
253
254
255
256
257
258
259
260
261
262
263
264
265
266
267
268
269
270
271
272
273
274
275
276
277
278
279
280
281
282
283
284
285
286
287
288
289
290
291
292
293
294
295
296
297
298
299
300
301
302
303
304
305
306
307
308
309
310
311
312
313
314
315
316
317
318
319
320
321
322
323
324
325
326
327
328
329
330
331
332
333
334
335
336
337
338
339
340
341
342
343
344
345
346
347
348
349
350
351
352
353
354
355
356
357
358
359
360
361
362
363
364
365
366
367
368
369
370
371
372
373
374
375
376
377
378
379
380
381
382
383
384
385
386
387
388
389
390
391
392
393
394
395
396
397
398
399
400
401
402
403
404
405
406
407
408
409
410
411
412
413
414
415
416
417
418
419
420
421
422
423
424
425
426
427
428
429
430
431
432
433
434
435
436
437
438
439
440
441
442
443
444
445
446
447
448
449
450
451
452
453
454
455
456
457
458
459
460
461
462
463
464
465
466
467
468
469
470
471
472
473
474
475
476
477
478
479
480
481
482
483
484
485
486
487
488
489
490
491
492
493
494
495
496
497
498
499
500
501
502
503
504
505
506
507
508
509
510
511
512
513
514
515
516
517
518
519
520
521
522
523
524
525
526
527
528
529
530
531
532
533
534
535
536
537
538
539
540
541
542
543
544
545
546
547
548
549
550
551
552
553
554
555
556
557
558
559
560
561
562
563
564
565
566
567
568
569
570
571
572
573
574
575
576
577
578
579
580
581
582
583
584
585
586
587
588
589
590
591
592
593
594
595
596
597
598
599
600
601
602
603
604
605
606
607
608
609
610
611
612
613
614
615
616
617
618
619
620
621
622
623
624
625
626
627
628
629
630
631
632
633
634
635
636
637
638
639
640
641
642
643
644
645
646
647
648
649
650
651
652
653
654
655
656
657
658
659
660
661
662
663
664
665
666
667
668
669
670
671
672
673
674
675
676
677
678
679
680
681
682
683
684
685
686
687
688
689
690
691
692
693
694
695
696
697
698
699
700
701
702
703
704
705
706
707
708
709
710
711
712
713
714
715
716
717
718
719
720
721
722
723
724
725
726
727
728
729
730
731
732
733
734
735
736
737
738
739
740
741
742
743
744
745
746
747
748
749
750
751
752
753
754
755
756
757
758
759
760
761
762
763
764
765
766
767
768
769
770
771
772
773
774
775
776
777
778
779
780
781
782
783
784
785
786
787
788
789
790
791
792
793
794
795
796
797
798
799
800
801
802
803
804
805
806
807
808
809
810
811
812
813
814
815
816
817
818
819
820
821
822
823
824
825
826
827
828
829
830
831
832
833
834
835
836
837
838
839
840
841
842
843
844
845
846
847
848
849
850
851
852
853
854
855
856
857
858
859
860
861
862
863
864
865
866
867
868
869
870
871
872
873
874
875
876
877
878
879
880
881
882
883
884
885
886
887
888
889
890
891
892
893
894
895
896
897
898
899
900
901
902
903
904
905
906
907
908
909
910
911
912
913
914
915
916
917
918
919
920
921
922
923
924
925
926
927
928
929
930
931
932
933
934
935
936
937
938
939
940
941
942
943
944
945
946
947
948
949
950
951
952
953
954
955
956
957
958
959
960
961
962
963
964
965
966
967
968
969
970
971
972
973
974
975
976
977
978
979
980
981
982
983
984
985
986
987
988
989
990
991
992
993
994
995
996
997
998
999
1000
1001
1002
1003
1004
1005
1006
1007
1008
1009
1010
1011
1012
1013
1014
1015
1016
1017
1018
1019
1020
1021
1022
1023
1024
1025
1026
1027
1028
1029
1030
1031
1032
1033
1034
1035
1036
1037
1038
1039
1040
1041
1042
1043
1044
1045
1046
1047
1048
1049
1050
1051
1052
1053
1054
1055
1056
1057
1058
1059
1060
1061
1062
1063
1064
1065
1066
1067
1068
1069
1070
1071
1072
1073
1074
1075
1076
1077
1078
1079
1080
1081
1082
1083
1084
1085
1086
1087
1088
1089
0.06249999999989714 0.06250000000023594 0
0.06249999999992133 0.1250000000004735 0
0.06249999999994553 0.1875000000007062 0
0.06249999999996972 0.2500000000009386 0
0.06249999999999394 0.3125000000011712 0
0.06250000000001812 0.3750000000014037 0
0.06250000000004231 0.4375000000016362 0
0.06250000000006652 0.5000000000018491 0
0.06250000000009072 0.5625000000014727 0
0.06250000000011492 0.6250000000010764 0
0.06250000000013912 0.6875000000006801 0
0.06250000000016333 0.750000000000284 0
0.06250000000018753 0.8124999999998879 0
0.06250000000021173 0.8749999999995119 0
0.06250000000023594 0.9374999999997459 0
0.1249999999998198 0.06250000000021173 0
0.1249999999998665 0.1250000000004269 0
0.1249999999999132 0.187500000000632 0
0.1249999999999599 0.2500000000008367 0
0.1250000000000066 0.3125000000010417 0
0.1250000000000533 0.3750000000012465 0
0.1250000000001 0.4375000000014513 0
0.1250000000001467 0.5000000000016386 0
0.1250000000001934 0.5625000000012973 0
0.1250000000002401 0.6250000000009387 0
0.1250000000002868 0.6875000000005799 0
0.1250000000003335 0.7500000000002214 0
0.1250000000003802 0.8124999999998621 0
0.1250000000004269 0.8749999999995222 0
0.1250000000004735 0.9374999999997516 0
0.1874999999996675 0.06250000000018753 0
0.1874999999997418 0.1250000000003802 0
0.187499999999816 0.1875000000005578 0
0.1874999999998902 0.250000000000735 0
0.1874999999999643 0.3125000000009122 0
0.1875000000000385 0.3750000000010892 0
0.1875000000001127 0.4375000000012665 0
0.1875000000001869 0.5000000000014281 0
0.1875000000002611 0.5625000000011223 0
0.1875000000003353 0.6250000000008009 0
0.1875000000004095 0.6875000000004797 0
0.1875000000004836 0.7500000000001584 0
0.1875000000005578 0.8124999999998368 0
0.187500000000632 0.8749999999995328 0
0.1875000000007062 0.9374999999997576 0
0.2499999999995128 0.06250000000016334 0
0.2499999999996146 0.1250000000003335 0
0.2499999999997165 0.1875000000004836 0
0.2499999999998184 0.2500000000006332 0
0.2499999999999202 0.3125000000007827 0
0.250000000000022 0.3750000000009321 0
0.2500000000001238 0.4375000000010816 0
0.2500000000002258 0.5000000000012177 0
0.2500000000003276 0.5625000000009472 0
0.2500000000004294 0.6250000000006634 0
0.2500000000005313 0.6875000000003794 0
0.2500000000006331 0.7500000000000955 0
0.2500000000007349 0.8124999999998113 0
0.2500000000008367 0.8749999999995436 0
0.2500000000009386 0.9374999999997636 0
0.312499999999358 0.06250000000013912 0
0.3124999999994875 0.1250000000002868 0
0.3124999999996171 0.1875000000004095 0
0.3124999999997466 0.2500000000005312 0
0.3124999999998761 0.3125000000006531 0
0.3125000000000056 0.375000000000775 0
0.3125000000001351 0.4375000000008968 0
0.3125000000002647 0.5000000000010071 0
0.3125000000003941 0.5625000000007719 0
0.3125000000005236 0.6250000000005257 0
0.3125000000006531 0.687500000000279 0
0.3125000000007827 0.7500000000000325 0
0.3125000000009122 0.8124999999997857 0
0.3125000000010416 0.8749999999995541 0
0.3125000000011713 0.9374999999997697 0
0.3749999999992032 0.06250000000011491 0
0.3749999999993605 0.12500000000024 0
0.3749999999995176 0.1875000000003353 0
0.3749999999996748 0.2500000000004294 0
0.3749999999998321 0.3125000000005236 0
0.374999999999989 0.3750000000006178 0
0.3750000000001463 0.437500000000712 0
0.3750000000003035 0.5000000000007966 0
0.3750000000004607 0.562500000000597 0
0.3750000000006179 0.6250000000003879 0
0.375000000000775 0.6875000000001785 0
0.3750000000009321 0.7499999999999697 0
0.3750000000010893 0.8124999999997604 0
0.3750000000012465 0.8749999999995648 0
0.3750000000014037 0.9374999999997755 0
0.4374999999990484 0.06250000000009072 0
0.4374999999992333 0.1250000000001934 0
0.4374999999994181 0.1875000000002611 0
0.437499999999603 0.2500000000003276 0
0.4374999999997878 0.3125000000003941 0
0.4374999999999726 0.3750000000004607 0
0.4375000000001574 0.4375000000005271 0
0.4375000000003423 0.5000000000005861 0
0.4375000000005272 0.562500000000422 0
0.4375000000007119 0.6250000000002504 0
0.4375000000008968 0.6875000000000783 0
0.4375000000010817 0.7499999999999066 0
0.4375000000012664 0.8124999999997349 0
0.4375000000014513 0.874999999999575 0
0.4375000000016361 0.9374999999997813 0
0.4999999999989027 0.06250000000006652 0
0.499999999999113 0.1250000000001467 0
0.4999999999993235 0.1875000000001869 0
0.4999999999995339 0.2500000000002257 0
0.4999999999997445 0.3125000000002647 0
0.4999999999999548 0.3750000000003035 0
0.5000000000001653 0.4375000000003423 0
0.5000000000003758 0.5000000000003758 0
0.5000000000005863 0.5625000000002468 0
0.5000000000007968 0.6250000000001125 0
0.5000000000010071 0.6874999999999781 0
0.5000000000012176 0.7499999999998438 0
0.5000000000014281 0.8124999999997093 0
0.5000000000016386 0.8749999999995857 0
0.5000000000018491 0.9374999999997876 0
0.5624999999990211 0.06250000000004231 0
0.5624999999991961 0.1250000000001 0
0.5624999999993713 0.1875000000001127 0
0.5624999999995466 0.250000000000124 0
0.5624999999997214 0.3125000000001351 0
0.5624999999998966 0.3750000000001463 0
0.5625000000000718 0.4375000000001574 0
0.5625000000002468 0.5000000000001653 0
0.562500000000422 0.5625000000000716 0
0.562500000000597 0.6249999999999746 0
0.5625000000007722 0.687499999999878 0
0.5625000000009471 0.749999999999781 0
0.5625000000011223 0.8124999999996838 0
0.5625000000012973 0.8749999999995963 0
0.5625000000014725 0.9374999999997934 0
0.6249999999991486 0.06250000000001811 0
0.6249999999992862 0.1250000000000533 0
0.6249999999994238 0.1875000000000385 0
0.6249999999995616 0.250000000000022 0
0.6249999999996995 0.3125000000000056 0
0.624999999999837 0.3749999999999891 0
0.6249999999999748 0.4374999999999727 0
0.6250000000001125 0.4999999999999548 0
0.6250000000002501 0.5624999999998966 0
0.6250000000003878 0.6249999999998369 0
0.6250000000005255 0.6874999999997776 0
0.6250000000006634 0.7499999999997179 0
0.625000000000801 0.8124999999996583 0
0.6250000000009387 0.874999999999607 0
0.6250000000010764 0.9374999999997996 0
0.6874999999992761 0.06249999999999394 0
0.6874999999993764 0.1250000000000066 0
0.6874999999994765 0.1874999999999644 0
0.6874999999995769 0.2499999999999201 0
0.6874999999996773 0.3124999999998761 0
0.6874999999997775 0.374999999999832 0
0.687499999999878 0.4374999999997878 0
0.6874999999999781 0.4999999999997445 0
0.6875000000000783 0.5624999999997217 0
0.6875000000001786 0.6249999999996992 0
0.687500000000279 0.6874999999996773 0
0.6875000000003794 0.7499999999996553 0
0.6875000000004797 0.812499999999633 0
0.6875000000005799 0.8749999999996174 0
0.6875000000006802 0.9374999999998054 0
0.7499999999994034 0.06249999999996973 0
0.7499999999994664 0.1249999999999599 0
0.7499999999995294 0.1874999999998901 0
0.7499999999995921 0.2499999999998183 0
0.7499999999996553 0.3124999999997465 0
0.7499999999997179 0.3749999999996749 0
0.749999999999781 0.437499999999603 0
0.7499999999998438 0.4999999999995339 0
0.7499999999999069 0.5624999999995463 0
0.7499999999999697 0.6249999999995616 0
0.7500000000000325 0.6874999999995769 0
0.7500000000000953 0.7499999999995921 0
0.7500000000001584 0.8124999999996074 0
0.7500000000002213 0.8749999999996279 0
0.7500000000002841 0.9374999999998112 0
0.812499999999531 0.06249999999994553 0
0.8124999999995566 0.1249999999999132 0
0.8124999999995821 0.1874999999998159 0
0.8124999999996072 0.2499999999997165 0
0.812499999999633 0.3124999999996171 0
0.8124999999996583 0.3749999999995177 0
0.812499999999684 0.4374999999994181 0
0.8124999999997093 0.4999999999993235 0
0.8124999999997349 0.5624999999993713 0
0.8124999999997602 0.6249999999994239 0
0.8124999999997857 0.6874999999994765 0
0.8124999999998113 0.7499999999995294 0
0.8124999999998368 0.8124999999995819 0
0.8124999999998623 0.8749999999996385 0
0.8124999999998879 0.9374999999998174 0
0.8749999999996598 0.06249999999992133 0
0.8749999999996489 0.1249999999998665 0
0.8749999999996385 0.1874999999997418 0
0.874999999999628 0.2499999999996146 0
0.8749999999996174 0.3124999999994875 0
0.874999999999607 0.3749999999993605 0
0.8749999999995963 0.4374999999992333 0
0.8749999999995857 0.499999999999113 0
0.8749999999995752 0.5624999999991963 0
0.8749999999995646 0.6249999999992862 0
0.8749999999995541 0.6874999999993762 0
0.8749999999995435 0.7499999999994665 0
0.8749999999995328 0.8124999999995566 0
0.8749999999995222 0.8749999999996492 0
0.8749999999995117 0.9374999999998231 0
0.9374999999998294 0.06249999999989712 0
0.9374999999998231 0.1249999999998198 0
0.9374999999998174 0.1874999999996676 0
0.9374999999998112 0.2499999999995128 0
0.9374999999998053 0.3124999999993581 0
0.9374999999997993 0.3749999999992032 0
0.9374999999997933 0.4374999999990485 0
0.9374999999997874 0.4999999999989025 0
0.9374999999997816 0.5624999999990211 0
0.9374999999997756 0.6249999999991486 0
0.9374999999997696 0.687499999999276 0
0.9374999999997636 0.7499999999994035 0
0.9374999999997574 0.8124999999995308 0
0.9374999999997516 0.8749999999996598 0
0.9374999999997459 0.9374999999998294 0
0.06249999999988504 0.03125000000011797 0
0.03124999999994857 0.06250000000024802 0
0.03124999999994519 0.03125000000012398 0
0.06249999999990923 0.09375000000035474 0
0.03124999999996066 0.1250000000004969 0
0.03124999999995462 0.09375000000037244 0
0.06249999999993343 0.1562500000005899 0
0.03124999999997276 0.1875000000007433 0
0.03124999999996671 0.1562500000006201 0
0.06249999999995762 0.2187500000008224 0
0.03124999999998486 0.2500000000009895 0
0.03124999999997881 0.2187500000008664 0
0.06249999999998183 0.2812500000010549 0
0.03124999999999697 0.312500000001236 0
0.03124999999999091 0.2812500000011128 0
0.06250000000000602 0.3437500000012875 0
0.03125000000000906 0.3750000000014823 0
0.03125000000000301 0.3437500000013591 0
0.06250000000003023 0.40625000000152 0
0.03125000000002116 0.4375000000017286 0
0.03125000000001511 0.4062500000016054 0
0.06250000000005441 0.4687500000017427 0
0.03125000000003326 0.5000000000019542 0
0.03125000000002721 0.4687500000018414 0
0.06250000000007862 0.5312500000016609 0
0.03125000000004536 0.5625000000015601 0
0.03125000000003931 0.5312500000017423 0
0.06250000000010282 0.5937500000012745 0
0.03125000000005746 0.6250000000011452 0
0.03125000000005141 0.5937500000013951 0
0.06250000000012702 0.6562500000008782 0
0.03125000000006956 0.6875000000007303 0
0.03125000000006351 0.6562500000009263 0
0.06250000000015123 0.7187500000004821 0
0.03125000000008166 0.7500000000003155 0
0.03125000000007561 0.7187500000005245 0
0.06250000000017543 0.7812500000000859 0
0.03125000000009377 0.8124999999999005 0
0.03125000000008771 0.7812500000000944 0
0.06250000000019963 0.8437499999996999 0
0.03125000000010587 0.8749999999995066 0
0.03125000000009982 0.8437499999997078 0
0.06250000000022383 0.906249999999629 0
0.03125000000011797 0.9374999999997429 0
0.03125000000011192 0.9062499999996528 0
0.06250000000024802 0.968749999999873 0
0.03125000000012398 0.96874999999987 0
0.1249999999997965 0.03125000000010587 0
0.09374999999985849 0.06250000000022383 0
0.09374999999984077 0.03125000000011192 0
0.1249999999998432 0.0937500000003193 0
0.09374999999989392 0.1250000000004502 0
0.0937499999998762 0.09375000000033702 0
0.1249999999998899 0.1562500000005294 0
0.09374999999992936 0.1875000000006691 0
0.09374999999991165 0.1562500000005596 0
0.1249999999999366 0.2187500000007344 0
0.09374999999996482 0.2500000000008877 0
0.09374999999994708 0.2187500000007784 0
0.1249999999999833 0.2812500000009392 0
0.09375000000000028 0.3125000000011064 0
0.09374999999998254 0.2812500000009971 0
0.12500000000003 0.3437500000011441 0
0.09375000000003571 0.3750000000013251 0
0.093750000000018 0.3437500000012157 0
0.1250000000000767 0.4062500000013489 0
0.09375000000007117 0.4375000000015438 0
0.09375000000005344 0.4062500000014344 0
0.1250000000001233 0.4687500000015449 0
0.09375000000010661 0.5000000000017438 0
0.0937500000000889 0.4687500000016438 0
0.1250000000001701 0.5312500000014679 0
0.09375000000014208 0.562500000001385 0
0.09375000000012434 0.5312500000015644 0
0.1250000000002168 0.593750000001118 0
0.09375000000017752 0.6250000000010075 0
0.09375000000015982 0.5937500000011963 0
0.1250000000002635 0.6562500000007593 0
0.09375000000021297 0.6875000000006299 0
0.09375000000019526 0.6562500000008188 0
0.1250000000003101 0.7187500000004006 0
0.09375000000024841 0.7500000000002527 0
0.0937500000002307 0.7187500000004412 0
0.1250000000003568 0.7812500000000417 0
0.09375000000028386 0.812499999999875 0
0.09375000000026615 0.7812500000000637 0
0.1250000000004035 0.8437499999996921 0
0.0937500000003193 0.8749999999995171 0
0.09375000000030159 0.843749999999696 0
0.1250000000004502 0.906249999999637 0
0.09375000000035474 0.9374999999997488 0
0.09375000000033704 0.906249999999633 0
0.1250000000004969 0.9687499999998759 0
0.09375000000037242 0.9687499999998745 0
0.1874999999996305 0.03125000000009377 0
0.1562499999997437 0.06250000000019963 0
0.1562499999997135 0.03125000000009982 0
0.1874999999997047 0.09375000000028386 0
0.1562499999998042 0.1250000000004035 0
0.1562499999997739 0.09375000000030158 0
0.1874999999997789 0.156250000000469 0
0.1562499999998646 0.1875000000005949 0
0.1562499999998344 0.1562500000004992 0
0.1874999999998531 0.2187500000006464 0
0.1562499999999251 0.2500000000007859 0
0.1562499999998948 0.2187500000006904 0
0.1874999999999272 0.2812500000008236 0
0.1562499999999855 0.3125000000009769 0
0.1562499999999553 0.2812500000008814 0
0.1875000000000014 0.3437500000010007 0
0.1562500000000459 0.3750000000011678 0
0.1562500000000157 0.3437500000010724 0
0.1875000000000756 0.4062500000011779 0
0.1562500000001064 0.4375000000013589 0
0.1562500000000762 0.4062500000012634 0
0.1875000000001498 0.4687500000013473 0
0.1562500000001668 0.5000000000015333 0
0.1562500000001366 0.4687500000014461 0
0.187500000000224 0.5312500000012752 0
0.1562500000002273 0.5625000000012098 0
0.156250000000197 0.5312500000013716 0
0.1875000000002982 0.5937500000009617 0
0.1562500000002877 0.6250000000008697 0
0.1562500000002575 0.5937500000010398 0
0.1875000000003724 0.6562500000006404 0
0.1562500000003481 0.6875000000005298 0
0.1562500000003179 0.6562500000006999 0
0.1875000000004465 0.7187500000003191 0
0.1562500000004086 0.7500000000001898 0
0.1562500000003783 0.7187500000003597 0
0.1875000000005207 0.7812499999999976 0
0.156250000000469 0.8124999999998495 0
0.1562500000004388 0.7812500000000195 0
0.1875000000005949 0.8437499999996848 0
0.1562500000005294 0.8749999999995275 0
0.1562500000004992 0.8437499999996885 0
0.1875000000006691 0.9062499999996452 0
0.1562500000005899 0.9374999999997546 0
0.1562500000005597 0.9062499999996411 0
0.1875000000007433 0.9687499999998788 0
0.1562500000006201 0.9687499999998773 0
0.2499999999994619 0.03125000000008167 0
0.2187499999995902 0.06250000000017544 0
0.2187499999995462 0.03125000000008772 0
0.2499999999995637 0.0937500000002484 0
0.2187499999996783 0.1250000000003568 0
0.2187499999996342 0.09375000000026615 0
0.2499999999996656 0.1562500000004086 0
0.2187499999997662 0.1875000000005207 0
0.2187499999997223 0.1562500000004388 0
0.2499999999997674 0.2187500000005584 0
0.2187499999998543 0.2500000000006841 0
0.2187499999998103 0.2187500000006024 0
0.2499999999998693 0.2812500000007079 0
0.2187499999999423 0.3125000000008474 0
0.2187499999998983 0.2812500000007657 0
0.2499999999999711 0.3437500000008574 0
0.2187500000000303 0.3750000000010107 0
0.2187499999999863 0.3437500000009291 0
0.2500000000000729 0.4062500000010069 0
0.2187500000001183 0.4375000000011741 0
0.2187500000000743 0.4062500000010923 0
0.2500000000001748 0.4687500000011496 0
0.2187500000002063 0.5000000000013229 0
0.2187500000001623 0.4687500000012486 0
0.2500000000002767 0.5312500000010825 0
0.2187500000002943 0.5625000000010347 0
0.2187500000002503 0.5312500000011788 0
0.2500000000003785 0.5937500000008054 0
0.2187500000003823 0.6250000000007321 0
0.2187500000003383 0.5937500000008834 0
0.2500000000004803 0.6562500000005214 0
0.2187500000004704 0.6875000000004295 0
0.2187500000004264 0.6562500000005809 0
0.2500000000005822 0.7187500000002374 0
0.2187500000005584 0.750000000000127 0
0.2187500000005144 0.7187500000002782 0
0.250000000000684 0.7812499999999534 0
0.2187500000006464 0.812499999999824 0
0.2187500000006024 0.7812499999999754 0
0.2500000000007858 0.8437499999996774 0
0.2187500000007344 0.8749999999995381 0
0.2187500000006904 0.843749999999681 0
0.2500000000008877 0.9062499999996536 0
0.2187500000008224 0.9374999999997606 0
0.2187500000007784 0.9062499999996494 0
0.2500000000009895 0.9687499999998819 0
0.2187500000008664 0.9687499999998803 0
0.3124999999992932 0.03125000000006956 0
0.2812499999994354 0.06250000000015124 0
0.2812499999993776 0.03125000000007562 0
0.3124999999994228 0.09375000000021297 0
0.2812499999995511 0.1250000000003101 0
0.2812499999994932 0.09375000000023068 0
0.3124999999995523 0.1562500000003481 0
0.2812499999996668 0.1875000000004465 0
0.281249999999609 0.1562500000003783 0
0.3124999999996819 0.2187500000004703 0
0.2812499999997825 0.2500000000005822 0
0.2812499999997247 0.2187500000005144 0
0.3124999999998114 0.2812500000005922 0
0.2812499999998982 0.3125000000007179 0
0.2812499999998403 0.2812500000006501 0
0.3124999999999408 0.3437500000007141 0
0.2812500000000138 0.3750000000008535 0
0.281249999999956 0.3437500000007857 0
0.3125000000000703 0.4062500000008359 0
0.2812500000001295 0.4375000000009892 0
0.2812500000000716 0.4062500000009214 0
0.3125000000001999 0.468750000000952 0
0.2812500000002452 0.5000000000011124 0
0.2812500000001874 0.4687500000010508 0
0.3125000000003294 0.5312500000008895 0
0.2812500000003608 0.5625000000008595 0
0.281250000000303 0.531250000000986 0
0.3125000000004589 0.5937500000006488 0
0.2812500000004765 0.6250000000005945 0
0.2812500000004187 0.593750000000727 0
0.3125000000005884 0.6562500000004023 0
0.2812500000005922 0.6875000000003292 0
0.2812500000005344 0.6562500000004619 0
0.3125000000007179 0.7187500000001558 0
0.2812500000007079 0.7500000000000639 0
0.28125000000065 0.7187500000001965 0
0.3125000000008474 0.7812499999999092 0
0.2812500000008236 0.8124999999997985 0
0.2812500000007657 0.7812499999999312 0
0.3125000000009769 0.8437499999996699 0
0.2812500000009391 0.8749999999995488 0
0.2812500000008814 0.8437499999996737 0
0.3125000000011064 0.9062499999996619 0
0.2812500000010549 0.9374999999997666 0
0.2812500000009971 0.9062499999996576 0
0.312500000001236 0.9687499999998849 0
0.2812500000011128 0.9687499999998834 0
0.3749999999991247 0.03125000000005745 0
0.3437499999992806 0.06250000000012701 0
0.343749999999209 0.0312500000000635 0
0.3749999999992819 0.09375000000017747 0
0.343749999999424 0.1250000000002634 0
0.3437499999993524 0.09375000000019522 0
0.374999999999439 0.1562500000002877 0
0.3437499999995673 0.1875000000003724 0
0.3437499999994956 0.1562500000003179 0
0.3749999999995962 0.2187500000003824 0
0.3437499999997107 0.2500000000004803 0
0.3437499999996391 0.2187500000004263 0
0.3749999999997534 0.2812500000004765 0
0.3437499999998541 0.3125000000005884 0
0.3437499999997824 0.2812500000005344 0
0.3749999999999105 0.3437500000005707 0
0.3437499999999973 0.3750000000006964 0
0.3437499999999257 0.3437500000006424 0
0.3750000000000676 0.4062500000006649 0
0.3437500000001407 0.4375000000008044 0
0.343750000000069 0.4062500000007504 0
0.3750000000002249 0.4687500000007543 0
0.3437500000002841 0.5000000000009018 0
0.3437500000002124 0.4687500000008532 0
0.3750000000003821 0.5312500000006968 0
0.3437500000004274 0.5625000000006845 0
0.3437500000003557 0.5312500000007931 0
0.3750000000005393 0.5937500000004925 0
0.3437500000005708 0.6250000000004567 0
0.343750000000499 0.5937500000005707 0
0.3750000000006964 0.6562500000002832 0
0.3437500000007141 0.6875000000002287 0
0.3437500000006425 0.6562500000003428 0
0.3750000000008535 0.7187500000000742 0
0.3437500000008574 0.7500000000000011 0
0.3437500000007857 0.718750000000115 0
0.3750000000010107 0.781249999999865 0
0.3437500000010008 0.8124999999997731 0
0.3437500000009291 0.781249999999887 0
0.3750000000011679 0.8437499999996626 0
0.3437500000011441 0.8749999999995595 0
0.3437500000010724 0.8437499999996663 0
0.3750000000013251 0.9062499999996702 0
0.3437500000012875 0.9374999999997726 0
0.3437500000012158 0.906249999999666 0
0.3750000000014823 0.9687499999998878 0
0.3437500000013591 0.9687499999998863 0
0.4374999999989561 0.03125000000004536 0
0.4062499999991258 0.06250000000010281 0
0.4062499999990404 0.0312500000000514 0
0.4374999999991409 0.09375000000014208 0
0.4062499999992969 0.1250000000002167 0
0.4062499999992114 0.09375000000015977 0
0.4374999999993257 0.1562500000002273 0
0.4062499999994679 0.1875000000002982 0
0.4062499999993824 0.1562500000002575 0
0.4374999999995106 0.2187500000002943 0
0.406249999999639 0.2500000000003785 0
0.4062499999995535 0.2187500000003383 0
0.4374999999996955 0.2812500000003608 0
0.4062499999998099 0.3125000000004589 0
0.4062499999997244 0.2812500000004187 0
0.4374999999998802 0.3437500000004274 0
0.4062499999999808 0.3750000000005392 0
0.4062499999998954 0.343750000000499 0
0.437500000000065 0.4062500000004939 0
0.4062500000001519 0.4375000000006196 0
0.4062500000000663 0.4062500000005794 0
0.4375000000002499 0.4687500000005566 0
0.4062500000003229 0.5000000000006913 0
0.4062500000002373 0.4687500000006554 0
0.4375000000004348 0.531250000000504 0
0.4062500000004939 0.5625000000005095 0
0.4062500000004085 0.5312500000006004 0
0.4375000000006196 0.5937500000003362 0
0.4062500000006649 0.6250000000003191 0
0.4062500000005794 0.5937500000004143 0
0.4375000000008044 0.6562500000001643 0
0.4062500000008359 0.6875000000001283 0
0.4062500000007504 0.6562500000002238 0
0.4375000000009893 0.7187499999999925 0
0.4062500000010069 0.7499999999999382 0
0.4062500000009214 0.7187500000000333 0
0.4375000000011741 0.7812499999998208 0
0.4062500000011778 0.8124999999997476 0
0.4062500000010923 0.781249999999843 0
0.4375000000013589 0.8437499999996549 0
0.4062500000013489 0.8749999999995699 0
0.4062500000012634 0.8437499999996588 0
0.4375000000015437 0.9062499999996781 0
0.4062500000015199 0.9374999999997784 0
0.4062500000014344 0.9062499999996743 0
0.4375000000017286 0.9687499999998906 0
0.4062500000016054 0.9687499999998892 0
0.4999999999987974 0.03125000000003326 0
0.4687499999989755 0.06250000000007862 0
0.4687499999988768 0.03125000000003931 0
0.4999999999990078 0.09375000000010661 0
0.4687499999991732 0.1250000000001701 0
0.4687499999990744 0.09375000000012433 0
0.4999999999992183 0.1562500000001668 0
0.4687499999993708 0.187500000000224 0
0.468749999999272 0.156250000000197 0
0.4999999999994287 0.2187500000002063 0
0.4687499999995685 0.2500000000002766 0
0.4687499999994696 0.2187500000002502 0
0.4999999999996392 0.2812500000002451 0
0.4687499999997662 0.3125000000003294 0
0.4687499999996674 0.281250000000303 0
0.4999999999998497 0.3437500000002841 0
0.4687499999999637 0.3750000000003821 0
0.468749999999865 0.3437500000003557 0
0.5000000000000601 0.4062500000003229 0
0.4687500000001614 0.4375000000004347 0
0.4687500000000625 0.4062500000004084 0
0.5000000000002706 0.468750000000359 0
0.468750000000359 0.5000000000004809 0
0.4687500000002601 0.4687500000004579 0
0.5000000000004811 0.5312500000003113 0
0.4687500000005568 0.5625000000003344 0
0.468750000000458 0.5312500000004077 0
0.5000000000006916 0.5937500000001796 0
0.4687500000007543 0.6250000000001814 0
0.4687500000006555 0.5937500000002579 0
0.5000000000009019 0.6562500000000453 0
0.468750000000952 0.6875000000000282 0
0.4687500000008532 0.6562500000001048 0
0.5000000000011123 0.718749999999911 0
0.4687500000011496 0.7499999999998752 0
0.4687500000010507 0.7187499999999517 0
0.5000000000013228 0.7812499999997766 0
0.4687500000013473 0.8124999999997221 0
0.4687500000012484 0.7812499999997986 0
0.5000000000015333 0.8437499999996475 0
0.4687500000015449 0.8749999999995803 0
0.4687500000014462 0.8437499999996512 0
0.5000000000017438 0.9062499999996867 0
0.4687500000017426 0.9374999999997844 0
0.4687500000016437 0.9062499999996823 0
0.5000000000019542 0.9687499999998939 0
0.4687500000018414 0.9687499999998923 0
0.5624999999989335 0.03125000000002116 0
0.5312499999989619 0.06250000000005441 0
0.5312499999988656 0.03125000000002721 0
0.5624999999991086 0.09375000000007117 0
0.5312499999991546 0.1250000000001233 0
0.5312499999990582 0.09375000000008889 0
0.5624999999992837 0.1562500000001064 0
0.5312499999993474 0.1875000000001498 0
0.5312499999992509 0.1562500000001366 0
0.5624999999994589 0.2187500000001183 0
0.5312499999995403 0.2500000000001748 0
0.5312499999994439 0.2187500000001623 0
0.5624999999996341 0.2812500000001296 0
0.531249999999733 0.3125000000001999 0
0.5312499999996366 0.2812500000001874 0
0.562499999999809 0.3437500000001407 0
0.5312499999999257 0.3750000000002249 0
0.5312499999998294 0.3437500000002124 0
0.5624999999999842 0.4062500000001519 0
0.5312500000001186 0.4375000000002499 0
0.5312500000000222 0.4062500000002374 0
0.5625000000001593 0.4687500000001614 0
0.5312500000003113 0.5000000000002706 0
0.5312500000002149 0.4687500000002601 0
0.5625000000003344 0.5312500000001185 0
0.5312500000005042 0.5625000000001592 0
0.5312500000004078 0.5312500000002148 0
0.5625000000005095 0.5937500000000231 0
0.5312500000006969 0.6250000000000435 0
0.5312500000006005 0.5937500000001014 0
0.5625000000006846 0.6562499999999263 0
0.5312500000008896 0.6874999999999281 0
0.5312500000007933 0.6562499999999858 0
0.5625000000008596 0.7187499999998295 0
0.5312500000010824 0.7499999999998124 0
0.531250000000986 0.7187499999998702 0
0.5625000000010347 0.7812499999997324 0
0.5312500000012752 0.8124999999996966 0
0.5312500000011787 0.7812499999997546 0
0.5625000000012098 0.8437499999996401 0
0.5312500000014679 0.874999999999591 0
0.5312500000013716 0.8437499999996438 0
0.5625000000013849 0.9062499999996949 0
0.5312500000016608 0.9374999999997905 0
0.5312500000015643 0.9062499999996907 0
0.5625000000015601 0.9687499999998967 0
0.5312500000017422 0.9687499999998954 0
0.6249999999990797 0.03125000000000906 0
0.5937499999990848 0.06250000000003021 0
0.5937499999990066 0.03125000000001511 0
0.6249999999992174 0.09375000000003572 0
0.5937499999992412 0.1250000000000767 0
0.593749999999163 0.09375000000005344 0
0.624999999999355 0.1562500000000459 0
0.5937499999993976 0.1875000000000756 0
0.5937499999993194 0.1562500000000761 0
0.6249999999994926 0.2187500000000303 0
0.5937499999995541 0.250000000000073 0
0.5937499999994758 0.2187500000000743 0
0.6249999999996305 0.2812500000000138 0
0.5937499999997105 0.3125000000000703 0
0.5937499999996323 0.2812500000000717 0
0.6249999999997682 0.3437499999999973 0
0.5937499999998668 0.3750000000000677 0
0.5937499999997886 0.343750000000069 0
0.6249999999999059 0.4062499999999809 0
0.5937500000000233 0.4375000000000651 0
0.593749999999945 0.4062500000000664 0
0.6250000000000436 0.4687499999999638 0
0.5937500000001796 0.5000000000000601 0
0.5937500000001015 0.4687500000000626 0
0.6250000000001813 0.5312499999999257 0
0.5937500000003361 0.5624999999999841 0
0.5937500000002579 0.5312500000000221 0
0.625000000000319 0.5937499999998668 0
0.5937500000004924 0.6249999999999057 0
0.5937500000004142 0.5937499999999449 0
0.6250000000004566 0.6562499999998073 0
0.5937500000006488 0.6874999999998278 0
0.5937500000005705 0.6562499999998668 0
0.6250000000005944 0.7187499999997478 0
0.5937500000008052 0.7499999999997494 0
0.593750000000727 0.7187499999997886 0
0.6250000000007322 0.781249999999688 0
0.5937500000009617 0.812499999999671 0
0.5937500000008835 0.7812499999997102 0
0.6250000000008699 0.8437499999996326 0
0.593750000001118 0.8749999999996017 0
0.5937500000010398 0.8437499999996363 0
0.6250000000010075 0.9062499999997033 0
0.5937500000012744 0.9374999999997965 0
0.5937500000011962 0.9062499999996991 0
0.6250000000011452 0.9687499999998999 0
0.5937500000013951 0.9687499999998983 0
0.687499999999226 0.03124999999999697 0
0.6562499999992124 0.06250000000000602 0
0.6562499999991528 0.03125000000000301 0
0.6874999999993263 0.09375000000000025 0
0.6562499999993313 0.1250000000000299 0
0.6562499999992718 0.09375000000001799 0
0.6874999999994265 0.1562499999999855 0
0.6562499999994502 0.1875000000000014 0
0.6562499999993907 0.1562500000000157 0
0.6874999999995267 0.2187499999999422 0
0.6562499999995692 0.2499999999999711 0
0.6562499999995097 0.2187499999999863 0
0.6874999999996271 0.2812499999998981 0
0.6562499999996884 0.3124999999999408 0
0.6562499999996289 0.2812499999999559 0
0.6874999999997273 0.343749999999854 0
0.6562499999998073 0.3749999999999105 0
0.6562499999997478 0.3437499999999257 0
0.6874999999998277 0.4062499999998099 0
0.6562499999999264 0.4374999999998803 0
0.6562499999998668 0.4062499999998954 0
0.6874999999999281 0.4687499999997662 0
0.6562500000000453 0.4999999999998497 0
0.6562499999999859 0.4687499999998649 0
0.6875000000000282 0.5312499999997331 0
0.6562500000001642 0.5624999999998092 0
0.6562500000001048 0.5312499999998295 0
0.6875000000001285 0.5937499999997105 0
0.6562500000002832 0.6249999999997681 0
0.6562500000002237 0.5937499999997886 0
0.6875000000002288 0.6562499999996882 0
0.6562500000004022 0.6874999999997274 0
0.6562500000003427 0.6562499999997478 0
0.6875000000003292 0.7187499999996663 0
0.6562500000005214 0.7499999999996866 0
0.6562500000004617 0.718749999999707 0
0.6875000000004295 0.7812499999996441 0
0.6562500000006404 0.8124999999996456 0
0.6562500000005809 0.781249999999666 0
0.6875000000005298 0.8437499999996252 0
0.6562500000007593 0.8749999999996122 0
0.6562500000006998 0.843749999999629 0
0.6875000000006301 0.9062499999997113 0
0.6562500000008783 0.9374999999998025 0
0.6562500000008188 0.9062499999997073 0
0.6875000000007303 0.9687499999999027 0
0.6562500000009261 0.9687499999999014 0
0.7499999999993721 0.03124999999998487 0
0.7187499999993398 0.06249999999998183 0
0.718749999999299 0.03124999999999092 0
0.7499999999994349 0.09374999999996483 0
0.7187499999994214 0.1249999999999833 0
0.7187499999993805 0.09374999999998254 0
0.749999999999498 0.1562499999999251 0
0.718749999999503 0.1874999999999273 0
0.7187499999994622 0.1562499999999553 0
0.7499999999995608 0.2187499999998542 0
0.7187499999995846 0.2499999999998692 0
0.7187499999995438 0.2187499999998982 0
0.7499999999996236 0.2812499999997824 0
0.7187499999996663 0.3124999999998113 0
0.7187499999996254 0.2812499999998402 0
0.7499999999996866 0.3437499999997107 0
0.7187499999997478 0.3749999999997534 0
0.7187499999997069 0.3437499999997823 0
0.7499999999997494 0.406249999999639 0
0.7187499999998295 0.4374999999996954 0
0.7187499999997886 0.4062499999997244 0
0.7499999999998124 0.4687499999995685 0
0.718749999999911 0.4999999999996392 0
0.7187499999998702 0.4687499999996673 0
0.7499999999998753 0.5312499999995401 0
0.7187499999999926 0.562499999999634 0
0.7187499999999518 0.5312499999996365 0
0.7499999999999383 0.5937499999995539 0
0.7187500000000742 0.6249999999996304 0
0.7187500000000334 0.5937499999996322 0
0.7500000000000011 0.6562499999995692 0
0.7187500000001558 0.6874999999996271 0
0.718750000000115 0.6562499999996287 0
0.7500000000000639 0.7187499999995846 0
0.7187500000002374 0.7499999999996236 0
0.7187500000001966 0.7187499999996254 0
0.7500000000001268 0.7812499999995998 0
0.7187500000003191 0.8124999999996202 0
0.7187500000002782 0.781249999999622 0
0.7500000000001898 0.8437499999996176 0
0.7187500000004006 0.8749999999996226 0
0.7187500000003598 0.8437499999996214 0
0.7500000000002527 0.9062499999997196 0
0.7187500000004822 0.9374999999998083 0
0.7187500000004413 0.9062499999997154 0
0.7500000000003155 0.9687499999999056 0
0.7187500000005245 0.9687499999999043 0
0.8124999999995183 0.03124999999997276 0
0.7812499999994672 0.06249999999995763 0
0.7812499999994451 0.03124999999997882 0
0.8124999999995438 0.09374999999992936 0
0.7812499999995115 0.1249999999999366 0
0.7812499999994894 0.0937499999999471 0
0.8124999999995693 0.1562499999998646 0
0.7812499999995557 0.187499999999853 0
0.7812499999995337 0.1562499999998948 0
0.8124999999995947 0.2187499999997662 0
0.7812499999995997 0.2499999999997674 0
0.7812499999995777 0.2187499999998102 0
0.8124999999996201 0.2812499999996668 0
0.7812499999996441 0.3124999999996818 0
0.7812499999996219 0.2812499999997246 0
0.8124999999996456 0.3437499999995673 0
0.781249999999688 0.3749999999995963 0
0.781249999999666 0.3437499999996391 0
0.8124999999996712 0.4062499999994679 0
0.7812499999997324 0.4374999999995106 0
0.7812499999997102 0.4062499999995534 0
0.8124999999996967 0.4687499999993708 0
0.7812499999997766 0.4999999999994287 0
0.7812499999997546 0.4687499999994696 0
0.8124999999997221 0.5312499999993474 0
0.7812499999998208 0.5624999999994588 0
0.7812499999997987 0.5312499999994438 0
0.8124999999997475 0.5937499999993976 0
0.781249999999865 0.6249999999994927 0
0.7812499999998429 0.5937499999994758 0
0.812499999999773 0.6562499999994502 0
0.7812499999999092 0.6874999999995267 0
0.781249999999887 0.6562499999995097 0
0.8124999999997985 0.718749999999503 0
0.7812499999999533 0.7499999999995608 0
0.7812499999999313 0.7187499999995438 0
0.812499999999824 0.7812499999995557 0
0.7812499999999976 0.8124999999995947 0
0.7812499999999754 0.7812499999995778 0
0.8124999999998496 0.8437499999996102 0
0.7812500000000417 0.8749999999996332 0
0.7812500000000198 0.843749999999614 0
0.8124999999998751 0.906249999999728 0
0.7812500000000859 0.9374999999998143 0
0.7812500000000637 0.9062499999997238 0
0.8124999999999005 0.9687499999999087 0
0.7812500000000941 0.9687499999999072 0
0.874999999999665 0.03124999999996066 0
0.8437499999995954 0.06249999999993343 0
0.8437499999995917 0.03124999999996671 0
0.8749999999996544 0.09374999999989392 0
0.8437499999996028 0.1249999999998899 0
0.843749999999599 0.09374999999991163 0
0.8749999999996437 0.1562499999998042 0
0.8437499999996103 0.1874999999997788 0
0.8437499999996065 0.1562499999998344 0
0.8749999999996332 0.2187499999996782 0
0.8437499999996176 0.2499999999996656 0
0.8437499999996141 0.2187499999997222 0
0.8749999999996227 0.2812499999995511 0
0.8437499999996252 0.3124999999995523 0
0.8437499999996214 0.2812499999996089 0
0.8749999999996122 0.343749999999424 0
0.8437499999996326 0.3749999999994391 0
0.8437499999996289 0.3437499999994957 0
0.8749999999996017 0.4062499999992969 0
0.8437499999996402 0.4374999999993257 0
0.8437499999996365 0.4062499999993824 0
0.874999999999591 0.4687499999991732 0
0.8437499999996475 0.4999999999992183 0
0.8437499999996438 0.468749999999272 0
0.8749999999995804 0.5312499999991547 0
0.8437499999996551 0.5624999999992838 0
0.8437499999996513 0.531249999999251 0
0.8749999999995699 0.5937499999992413 0
0.8437499999996624 0.6249999999993551 0
0.8437499999996587 0.5937499999993194 0
0.8749999999995594 0.6562499999993312 0
0.8437499999996699 0.6874999999994263 0
0.843749999999666 0.6562499999993907 0
0.8749999999995488 0.7187499999994214 0
0.8437499999996774 0.749999999999498 0
0.8437499999996736 0.7187499999994622 0
0.8749999999995381 0.7812499999995115 0
0.8437499999996848 0.8124999999995692 0
0.843749999999681 0.7812499999995337 0
0.8749999999995275 0.8437499999996029 0
0.8437499999996922 0.8749999999996438 0
0.8437499999996886 0.8437499999996065 0
0.8749999999995169 0.9062499999997362 0
0.8437499999996998 0.9374999999998203 0
0.843749999999696 0.906249999999732 0
0.8749999999995064 0.9687499999999116 0
0.8437499999997076 0.9687499999999103 0
0.9374999999998322 0.03124999999994856 0
0.9062499999997446 0.06249999999990923 0
0.9062499999997486 0.03124999999995461 0
0.9374999999998263 0.09374999999985847 0
0.906249999999736 0.1249999999998432 0
0.9062499999997402 0.09374999999987618 0
0.9374999999998203 0.1562499999997437 0
0.906249999999728 0.1874999999997047 0
0.906249999999732 0.1562499999997739 0
0.9374999999998143 0.2187499999995902 0
0.9062499999997196 0.2499999999995637 0
0.9062499999997238 0.2187499999996342 0
0.9374999999998082 0.2812499999994355 0
0.9062499999997113 0.3124999999994228 0
0.9062499999997156 0.2812499999994933 0
0.9374999999998023 0.3437499999992807 0
0.9062499999997031 0.3749999999992819 0
0.9062499999997072 0.3437499999993523 0
0.9374999999997963 0.4062499999991259 0
0.9062499999996948 0.4374999999991409 0
0.9062499999996989 0.4062499999992114 0
0.9374999999997904 0.4687499999989755 0
0.9062499999996865 0.4999999999990078 0
0.9062499999996907 0.4687499999990743 0
0.9374999999997845 0.5312499999989618 0
0.9062499999996785 0.5624999999991087 0
0.9062499999996825 0.5312499999990583 0
0.9374999999997786 0.5937499999990848 0
0.90624999999967 0.6249999999992174 0
0.9062499999996743 0.593749999999163 0
0.9374999999997726 0.6562499999992123 0
0.9062499999996618 0.6874999999993261 0
0.906249999999666 0.6562499999992718 0
0.9374999999997666 0.7187499999993398 0
0.9062499999996536 0.749999999999435 0
0.9062499999996577 0.7187499999993805 0
0.9374999999997605 0.7812499999994671 0
0.9062499999996452 0.8124999999995437 0
0.9062499999996494 0.7812499999994893 0
0.9374999999997545 0.8437499999995953 0
0.906249999999637 0.8749999999996545 0
0.906249999999641 0.8437499999995991 0
0.9374999999997488 0.9062499999997446 0
0.9062499999996287 0.9374999999998263 0
0.9062499999996327 0.9062499999997404 0
0.9374999999997429 0.9687499999999147 0
0.9062499999996527 0.9687499999999132 0
0.9687499999999147 0.06249999999988502 0
0.9687499999999161 0.03124999999994519 0
0.9687499999999116 0.1249999999997965 0
0.9687499999999132 0.09374999999984074 0
0.9687499999999087 0.1874999999996305 0
0.9687499999999101 0.1562499999997135 0
0.9687499999999056 0.2499999999994619 0
0.9687499999999072 0.2187499999995462 0
0.9687499999999026 0.3124999999992933 0
0.9687499999999041 0.2812499999993776 0
0.9687499999998996 0.3749999999991247 0
0.9687499999999011 0.343749999999209 0
0.9687499999998966 0.4374999999989561 0
0.9687499999998981 0.4062499999990404 0
0.9687499999998936 0.4999999999987973 0
0.9687499999998952 0.4687499999988767 0
0.9687499999998908 0.5624999999989335 0
0.9687499999998923 0.5312499999988654 0
0.9687499999998879 0.6249999999990797 0
0.9687499999998893 0.5937499999990066 0
0.9687499999998848 0.687499999999226 0
0.9687499999998863 0.6562499999991529 0
0.9687499999998819 0.7499999999993721 0
0.9687499999998833 0.718749999999299 0
0.9687499999998788 0.8124999999995182 0
0.9687499999998803 0.7812499999994451 0
0.9687499999998759 0.874999999999665 0
0.9687499999998772 0.8437499999995915 0
0.968749999999873 0.9374999999998322 0
0.9687499999998743 0.9062499999997486 0
0.96874999999987 0.9687499999999162 0
$EndNodes
$Elements
5 320 1 320
1 7 8 16
1 1 5 20 
2 5 6 21 
3 6 7 22 
4 7 8 23 
5 8 9 24 
6 9 10 25 
7 10 11 26 
8 11 12 27 
9 12 13 28 
10 13 14 29 
11 14 15 30 
12 15 16 31 
13 16 17 32 
14 17 18 33 
15 18 19 34 
16 19 2 35 
1 8 8 16
17 2 36 51 
18 36 37 52 
19 37 38 53 
20 38 39 54 
21 39 40 55 
22 40 41 56 
23 41 42 57 
24 42 43 58 
25 43 44 59 
26 44 45 60 
27 45 46 61 
28 46 47 62 
29 47 48 63 
30 48 49 64 
31 49 50 65 
32 50 3 66 
1 9 8 16
33 3 67 82 
34 67 68 83 
35 68 69 84 
36 69 70 85 
37 70 71 86 
38 71 72 87 
39 72 73 88 
40 73 74 89 
41 74 75 90 
42 75 76 91 
43 76 77 92 
44 77 78 93 
45 78 79 94 
46 79 80 95 
47 80 81 96 
48 81 4 97 
1 10 8 16
49 4 98 113 
50 98 99 114 
51 99 100 115 
52 100 101 116 
53 101 102 117 
54 102 103 118 
55 103 104 119 
56 104 105 120 
57 105 106 121 
58 106 107 122 
59 107 108 123 
60 108 109 124 
61 109 110 125 
62 110 111 126 
63 111 112 127 
64 112 1 128 
2 16 10 256
65 1 5 129 112 20 354 355 128 356 
66 112 129 130 111 355 357 358 127 359 
67 111 130 131 110 358 360 361 126 362 
68 110 131 132 109 361 363 364 125 365 
69 109 132 133 108 364 366 367 124 368 
70 108 133 134 107 367 369 370 123 371 
71 107 134 135 106 370 372 373 122 374 
72 106 135 136 105 373 375 376 121 377 
73 105 136 137 104 376 378 379 120 380 
74 104 137 138 103 379 381 382 119 383 
75 103 138 139 102 382 384 385 118 386 
76 102 139 140 101 385 387 388 117 389 
77 101 140 141 100 388 390 391 116 392 
78 100 141 142 99 391 393 394 115 395 
79 99 142 143 98 394 396 397 114 398 
80 98 143 81 4 397 399 97 113 400 
81 5 6 144 129 21 401 402 354 403 
82 129 144 145 130 402 404 405 357 406 
83 130 145 146 131 405 407 408 360 409 
84 131 146 147 132 408 410 411 363 412 
85 132 147 148 133 411 413 414 366 415 
86 133 148 149 134 414 416 417 369 418 
87 134 149 150 135 417 419 420 372 421 
88 135 150 151 136 420 422 423 375 424 
89 136 151 152 137 423 425 426 378 427 
90 137 152 153 138 426 428 429 381 430 
91 138 153 154 139 429 431 432 384 433 
92 139 154 155 140 432 434 435 387 436 
93 140 155 156 141 435 437 438 390 439 
94 141 156 157 142 438 440 441 393 442 
95 142 157 158 143 441 443 444 396 445 
96 143 158 80 81 444 446 96 399 447 
97 6 7 159 144 22 448 449 401 450 
98 144 159 160 145 449 451 452 404 453 
99 145 160 161 146 452 454 455 407 456 
100 146 161 162 147 455 457 458 410 459 
101 147 162 163 148 458 460 461 413 462 
102 148 163 164 149 461 463 464 416 465 
103 149 164 165 150 464 466 467 419 468 
104 150 165 166 151 467 469 470 422 471 
105 151 166 167 152 470 472 473 425 474 
106 152 167 168 153 473 475 476 428 477 
107 153 168 169 154 476 478 479 431 480 
108 154 169 170 155 479 481 482 434 483 
109 155 170 171 156 482 484 485 437 486 
110 156 171 172 157 485 487 488 440 489 
111 157 172 173 158 488 490 491 443 492 
112 158 173 79 80 491 493 95 446 494 
113 7 8 174 159 23 495 496 448 497 
114 159 174 175 160 496 498 499 451 500 
115 160 175 176 161 499 501 502 454 503 
116 161 176 177 162 502 504 505 457 506 
117 162 177 178 163 505 507 508 460 509 
118 163 178 179 164 508 510 511 463 512 
119 164 179 180 165 511 513 514 466 515 
120 165 180 181 166 514 516 517 469 518 
121 166 181 182 167 517 519 520 472 521 
122 167 182 183 168 520 522 523 475 524 
123 168 183 184 169 523 525 526 478 527 
124 169 184 185 170 526 528 529 481 530 
125 170 185 186 171 529 531 532 484 533 
126 171 186 187 172 532 534 535 487 536 
127 172 187 188 173 535 537 538 490 539 
128 173 188 78 79 538 540 94 493 541 
129 8 9 189 174 24 542 543 495 544 
130 174 189 190 175 543 545 546 498 547 
131 175 190 191 176 546 548 549 501 550 
132 176 191 192 177 549 551 552 504 553 
133 177 192 193 178 552 554 555 507 556 
134 178 193 194 179 555 557 558 510 559 
135 179 194 195 180 558 560 561 513 562 
136 180 195 196 181 561 563 564 516 565 
137 181 196 197 182 564 566 567 519 568 
138 182 197 198 183 567 569 570 522 571 
139 183 198 199 184 570 572 573 525 574 
140 184 199 200 185 573 575 576 528 577 
141 185 200 201 186 576 578 579 531 580 
142 186 201 202 187 579 581 582 534 583 
143 187 202 203 188 582 584 585 537 586 
144 188 203 77 78 585 587 93 540 588 
145 9 10 204 189 25 589 590 542 591 
146 189 204 205 190 590 592 593 545 594 
147 190 205 206 191 593 595 596 548 597 
148 191 206 207 192 596 598 599 551 600 
149 192 207 208 193 599 601 602 554 603 
150 193 208 209 194 602 604 605 557 606 
151 194 209 210 195 605 607 608 560 609 
152 195 210 211 196 608 610 611 563 612 
153 196 211 212 197 611 613 614 566 615 
154 197 212 213 198 614 616 617 569 618 
155 198 213 214 199 617 619 620 572 621 
156 199 214 215 200 620 622 623 575 624 
157 200 215 216 201 623 625 626 578 627 
158 201 216 217 202 626 628 629 581 630 
159 202 217 218 203 629 631 632 584 633 
160 203 218 76 77 632 634 92 587 635 
161 10 11 219 204 26 636 637 589 638 
162 204 219 220 205 637 639 640 592 641 
163 205 220 221 206 640 642 643 595 644 
164 206 221 222 207 643 645 646 598 647 
165 207 222 223 208 646 648 649 601 650 
166 208 223 224 209 649 651 652 604 653 
167 209 224 225 210 652 654 655 607 656 
168 210 225 226 211 655 657 658 610 659 
169 211 226 227 212 658 660 661 613 662 
170 212 227 228 213 661 663 664 616 665 
171 213 228 229 214 664 666 667 619 668 
172 214 229 230 215 667 669 670 622 671 
173 215 230 231 216 670 672 673 625 674 
174 216 231 232 217 673 675 676 628 677 
175 217 232 233 218 676 678 679 631 680 
176 218 233 75 76 679 681 91 634 682 
177 11 12 234 219 27 683 684 636 685 
178 219 234 235 220 684 686 687 639 688 
179 220 235 236 221 687 689 690 642 691 
180 221 236 237 222 690 692 693 645 694 
181 222 237 238 223 693 695 696 648 697 
182 223 238 239 224 696 698 699 651 700 
183 224 239 240 225 699 701 702 654 703 
184 225 240 241 226 702 704 705 657 706 
185 226 241 242 227 705 707 708 660 709 
186 227 242 243 228 708 710 711 663 712 
187 228 243 244 229 711 713 714 666 715 
188 229 244 245 230 714 716 717 669 718 
189 230 245 246 231 717 719 720 672 721 
190 231 246 247 232 720 722 723 675 724 
191 232 247 248 233 723 725 726 678 727 
192 233 248 74 75 726 728 90 681 729 
193 12 13 249 234 28 730 731 683 732 
194 234 249 250 235 731 733 734 686 735 
195 235 250 251 236 734 736 737 689 738 
196 236 251 252 237 737 739 740 692 741 
197 237 252 253 238 740 742 743 695 744 
198 238 253 254 239 743 745 746 698 747 
199 239 254 255 240 746 748 749 701 750 
200 240 255 256 241 749 751 752 704 753 
201 241 256 257 242 752 754 755 707 756 
202 242 257 258 243 755 757 758 710 759 
203 243 258 259 244 758 760 761 713 762 
204 244 259 260 245 761 763 764 716 765 
205 245 260 261 246 764 766 767 719 768 
206 246 261 262 247 767 769 770 722 771 
207 247 262 263 248 770 772 773 725 774 
208 248 263 73 74 773 775 89 728 776 
209 13 14 264 249 29 777 778 730 779 
210 249 264 265 250 778 780 781 733 782 
211 250 265 266 251 781 783 784 736 785 
212 251 266 267 252 784 786 787 739 788 
213 252 267 268 253 787 789 790 742 791 
214 253 268 269 254 790 792 793 745 794 
215 254 269 270 255 793 795 796 748 797 
216 255 270 271 256 796 798 799 751 800 
217 256 271 272 257 799 801 802 754 803 
218 257 272 273 258 802 804 805 757 806 
219 258 273 274 259 805 807 808 760 809 
220 259 274 275 260 808 810 811 763 812 
221 260 275 276 261 811 813 814 766 815 
222 261 276 277 262 814 816 817 769 818 
223 262 277 278 263 817 819 820 772 821 
224 263 278 72 73 820 822 88 775 823 
225 14 15 279 264 30 824 825 777 826 
226 264 279 280 265 825 827 828 780 829 
227 265 280 281 266 828 830 831 783 832 
228 266 281 282 267 831 833 834 786 835 
229 267 282 283 268 834 836 837 789 838 
230 268 283 284 269 837 839 840 792 841 
231 269 284 285 270 840 842 843 795 844 
232 270 285 286 271 843 845 846 798 847 
233 271 286 287 272 846 848 849 801 850 
234 272 287 288 273 849 851 852 804 853 
235 273 288 289 274 852 854 855 807 856 
236 274 289 290 275 855 857 858 810 859 
237 275 290 291 276 858 860 861 813 862 
238 276 291 292 277 861 863 864 816 865 
239 277 292 293 278 864 866 867 819 868 
240 278 293 71 72 867 869 87 822 870 
241 15 16 294 279 31 871 872 824 873 
242 279 294 295 280 872 874 875 827 876 
243 280 295 296 281 875 877 878 830 879 
244 281 296 297 282 878 880 881 833 882 
245 282 297 298 283 881 883 884 836 885 
246 283 298 299 284 884 886 887 839 888 
247 284 299 300 285 887 889 890 842 891 
248 285 300 301 286 890 892 893 845 894 
249 286 301 302 287 893 895 896 848 897 
250 287 302 303 288 896 898 899 851 900 
251 288 303 304 289 899 901 902 854 903 
252 289 304 305 290 902 904 905 857 906 
253 290 305 306 291 905 907 908 860 909 
254 291 306 307 292 908 910 911 863 912 
255 292 307 308 293 911 913 914 866 915 
256 293 308 70 71 914 916 86 869 917 
257 16 17 309 294 32 918 919 871 920 
258 294 309 310 295 919 921 922 874 923 
259 295 310 311 296 922 924 925 877 926 
260 296 311 312 297 925 927 928 880 929 
261 297 312 313 298 928 930 931 883 932 
262 298 313 314 299 931 933 934 886 935 
263 299 314 315 300 934 936 937 889 938 
264 300 315 316 301 937 939 940 892 941 
265 301 316 317 302 940 942 943 895 944 
266 302 317 318 303 943 945 946 898 947 
267 303 318 319 304 946 948 949 901 950 
268 304 319 320 305 949 951 952 904 953 
269 305 320 321 306 952 954 955 907 956 
270 306 321 322 307 955 957 958 910 959 
271 307 322 323 308 958 960 961 913 962 
272 308 323 69 70 961 963 85 916 964 
273 17 18 324 309 33 965 966 918 967 
274 309 324 325 310 966 968 969 921 970 
275 310 325 326 311 969 971 972 924 973 
276 311 326 327 312 972 974 975 927 976 
277 312 327 328 313 975 977 978 930 979 
278 313 328 329 314 978 980 981 933 982 
279 314 329 330 315 981 983 984 936 985 
280 315 330 331 316 984 986 987 939 988 
281 316 331 332 317 987 989 990 942 991 
282 317 332 333 318 990 992 993 945 994 
283 318 333 334 319 993 995 996 948 997 
284 319 334 335 320 996 998 999 951 1000 
285 320 335 336 321 999 1001 1002 954 1003 
286 321 336 337 322 1002 1004 1005 957 1006 
287 322 337 338 323 1005 1007 1008 960 1009 
288 323 338 68 69 1008 1010 84 963 1011 
289 18 19 339 324 34 1012 1013 965 1014 
290 324 339 340 325 1013 1015 1016 968 1017 
291 325 340 341 326 1016 1018 1019 971 1020 
292 326 341 342 327 1019 1021 1022 974 1023 
293 327 342 343 328 1022 1024 1025 977 1026 
294 328 343 344 329 1025 1027 1028 980 1029 
295 329 344 345 330 1028 1030 1031 983 1032 
296 330 345 346 331 1031 1033 1034 986 1035 
297 331 346 347 332 1034 1036 1037 989 1038 
298 332 347 348 333 1037 1039 1040 992 1041 
299 333 348 349 334 1040 1042 1043 995 1044 
300 334 349 350 335 1043 1045 1046 998 1047 
301 335 350 351 336 1046 1048 1049 1001 1050 
302 336 351 352 337 1049 1051 1052 1004 1053 
303 337 352 353 338 1052 1054 1055 1007 1056 
304 338 353 67 68 1055 1057 83 1010 1058 
305 19 2 36 339 35 51 1059 1012 1060 
306 339 36 37 340 1059 52 1061 1015 1062 
307 340 37 38 341 1061 53 1063 1018 1064 
308 341 38 39 342 1063 54 1065 1021 1066 
309 342 39 40 343 1065 55 1067 1024 1068 
310 343 40 41 344 1067 56 1069 1027 1070 
311 344 41 42 345 1069 57 1071 1030 1072 
312 345 42 43 346 1071 58 1073 1033 1074 
313 346 43 44 347 1073 59 1075 1036 1076 
314 347 44 45 348 1075 60 1077 1039 1078 
315 348 45 46 349 1077 61 1079 1042 1080 
316 349 46 47 350 1079 62 1081 1045 1082 
317 350 47 48 351 1081 63 1083 1048 1084 
318 351 48 49 352 1083 64 1085 1051 1086 
319 352 49 50 353 1085 65 1087 1054 1088 
320 353 50 3 67 1087 66 82 1057 1089 
$EndElements
