$MeshFormat
4.1 0 8
$EndMeshFormat
$PhysicalNames
3
1 1 "Boundary 1"
1 2 "Boundary 2"
2 3 "Surface Rect"
$EndPhysicalNames
$Entities
4 4 1 0
1 0 0 0 0 
2 1 0 0 0 
3 1 1 0 0 
4 0 1 0 0 
7 0 0 0 1 0 0 1 1 2 1 -2 
8 1 0 0 1 1 0 1 1 2 2 -3 
9 0 1 0 1 1 0 1 2 2 3 -4 
10 0 0 0 0 1 0 1 2 2 4 -1 
16 0 0 0 1 1 0 1 3 4 7 8 9 10 
$EndEntities
$Nodes
9 9 1 9
0 1 0 1
1
0 0 0
0 2 0 1
2
1 0 0
0 3 0 1
3
1 1 0
0 4 0 1
4
0 1 0
1 7 0 1
5
0.4999999999986921 0 0
1 8 0 1
6
1 0.4999999999986921 0
1 9 0 1
7
0.5000000000020595 1 0
1 10 0 1
8
0 0.5000000000020595 0
2 16 0 1
9
0.5000000000003758 0.5000000000003758 0
$EndNodes
$Elements
5 12 1 12
1 7 1 2
1 1 5 
2 5 2 
1 8 1 2
3 2 6 
4 6 3 
1 9 1 2
5 3 7 
6 7 4 
1 10 1 2
7 4 8 
8 8 1 
2 16 3 4
9 1 5 9 8 
10 8 9 7 4 
11 5 2 6 9 
12 9 6 3 7 
$EndElements
