$MeshFormat
4.1 0 8
$EndMeshFormat
$PhysicalNames
3
1 1 "Boundary 1"
1 2 "Boundary 2"
2 3 "Surface Rect"
$EndPhysicalNames
$Entities
4 4 1 0
1 0 0 0 0 
2 1 0 0 0 
3 1 1 0 0 
4 0 1 0 0 
7 0 0 0 1 0 0 1 1 2 1 -2 
8 1 0 0 1 1 0 1 1 2 2 -3 
9 0 1 0 1 1 0 1 2 2 3 -4 
10 0 0 0 0 1 0 1 2 2 4 -1 
16 0 0 0 1 1 0 1 3 4 7 8 9 10 
$EndEntities
$Nodes
9 81 1 81
0 1 0 1
1
0 0 0
0 2 0 1
2
1 0 0
0 3 0 1
3
1 1 0
0 4 0 1
4
0 1 0
1 7 0 7
5
6
7
8
9
10
11
0.1249999999997731 0 0
0.2499999999994109 0 0
0.3749999999990461 0 0
0.4999999999986921 0 0
0.6249999999990109 0 0
0.7499999999993406 0 0
0.8749999999996703 0 0
1 8 0 7
12
13
14
15
16
17
18
1 0.1249999999997731 0
1 0.2499999999994109 0
1 0.3749999999990461 0
1 0.4999999999986921 0
1 0.6249999999990109 0
1 0.7499999999993406 0
1 0.8749999999996703 0
1 9 0 7
19
20
21
22
23
24
25
0.8749999999995012 1 0
0.7500000000003471 1 0
0.625000000001214 1 0
0.5000000000020595 1 0
0.3750000000015609 1 0
0.2500000000010405 1 0
0.1250000000005203 1 0
1 10 0 7
26
27
28
29
30
31
32
0 0.8749999999995012 0
0 0.7500000000003471 0
0 0.625000000001214 0
0 0.5000000000020595 0
0 0.3750000000015609 0
0 0.2500000000010405 0
0 0.1250000000005203 0
2 16 0 49
33
34
35
36
37
38
39
40
41
42
43
44
45
46
47
48
49
50
51
52
53
54
55
56
57
58
59
60
61
62
63
64
65
66
67
68
69
70
71
72
73
74
75
76
77
78
79
80
81
0.1249999999998665 0.1250000000004269 0
0.1249999999999599 0.2500000000008368 0
0.1250000000000533 0.3750000000012465 0
0.1250000000001467 0.5000000000016386 0
0.1250000000002401 0.6250000000009387 0
0.1250000000003335 0.7500000000002212 0
0.1250000000004269 0.8749999999995224 0
0.2499999999996146 0.1250000000003335 0
0.2499999999998184 0.2500000000006332 0
0.250000000000022 0.3750000000009323 0
0.2500000000002257 0.5000000000012176 0
0.2500000000004294 0.6250000000006634 0
0.2500000000006332 0.7500000000000955 0
0.2500000000008368 0.8749999999995434 0
0.3749999999993605 0.1250000000002401 0
0.3749999999996748 0.2500000000004294 0
0.3749999999999891 0.3750000000006178 0
0.3750000000003035 0.5000000000007966 0
0.3750000000006179 0.6250000000003878 0
0.3750000000009322 0.7499999999999696 0
0.3750000000012465 0.8749999999995648 0
0.4999999999991129 0.1250000000001467 0
0.4999999999995339 0.2500000000002257 0
0.4999999999999548 0.3750000000003034 0
0.5000000000003758 0.5000000000003758 0
0.5000000000007968 0.6250000000001125 0
0.5000000000012176 0.7499999999998439 0
0.5000000000016386 0.8749999999995856 0
0.6249999999992862 0.1250000000000533 0
0.6249999999995616 0.2500000000000221 0
0.6249999999998369 0.3749999999999892 0
0.6250000000001125 0.4999999999999548 0
0.6250000000003878 0.6249999999998369 0
0.6250000000006631 0.749999999999718 0
0.6250000000009388 0.874999999999607 0
0.7499999999994666 0.1249999999999599 0
0.7499999999995923 0.2499999999998184 0
0.749999999999718 0.3749999999996748 0
0.7499999999998439 0.4999999999995339 0
0.7499999999999698 0.6249999999995616 0
0.7500000000000955 0.7499999999995921 0
0.7500000000002214 0.8749999999996279 0
0.8749999999996489 0.1249999999998665 0
0.8749999999996282 0.2499999999996146 0
0.874999999999607 0.3749999999993605 0
0.8749999999995858 0.499999999999113 0
0.8749999999995646 0.6249999999992863 0
0.8749999999995433 0.7499999999994664 0
0.8749999999995223 0.8749999999996491 0
$EndNodes
$Elements
5 96 1 96
1 7 1 8
1 1 5 
2 5 6 
3 6 7 
4 7 8 
5 8 9 
6 9 10 
7 10 11 
8 11 2 
1 8 1 8
9 2 12 
10 12 13 
11 13 14 
12 14 15 
13 15 16 
14 16 17 
15 17 18 
16 18 3 
1 9 1 8
17 3 19 
18 19 20 
19 20 21 
20 21 22 
21 22 23 
22 23 24 
23 24 25 
24 25 4 
1 10 1 8
25 4 26 
26 26 27 
27 27 28 
28 28 29 
29 29 30 
30 30 31 
31 31 32 
32 32 1 
2 16 3 64
33 1 5 33 32 
34 32 33 34 31 
35 31 34 35 30 
36 30 35 36 29 
37 29 36 37 28 
38 28 37 38 27 
39 27 38 39 26 
40 26 39 25 4 
41 5 6 40 33 
42 33 40 41 34 
43 34 41 42 35 
44 35 42 43 36 
45 36 43 44 37 
46 37 44 45 38 
47 38 45 46 39 
48 39 46 24 25 
49 6 7 47 40 
50 40 47 48 41 
51 41 48 49 42 
52 42 49 50 43 
53 43 50 51 44 
54 44 51 52 45 
55 45 52 53 46 
56 46 53 23 24 
57 7 8 54 47 
58 47 54 55 48 
59 48 55 56 49 
60 49 56 57 50 
61 50 57 58 51 
62 51 58 59 52 
63 52 59 60 53 
64 53 60 22 23 
65 8 9 61 54 
66 54 61 62 55 
67 55 62 63 56 
68 56 63 64 57 
69 57 64 65 58 
70 58 65 66 59 
71 59 66 67 60 
72 60 67 21 22 
73 9 10 68 61 
74 61 68 69 62 
75 62 69 70 63 
76 63 70 71 64 
77 64 71 72 65 
78 65 72 73 66 
79 66 73 74 67 
80 67 74 20 21 
81 10 11 75 68 
82 68 75 76 69 
83 69 76 77 70 
84 70 77 78 71 
85 71 78 79 72 
86 72 79 80 73 
87 73 80 81 74 
88 74 81 19 20 
89 11 2 12 75 
90 75 12 13 76 
91 76 13 14 77 
92 77 14 15 78 
93 78 15 16 79 
94 79 16 17 80 
95 80 17 18 81 
96 81 18 3 19 
$EndElements
