$MeshFormat
4.1 0 8
$EndMeshFormat
$Entities
4 4 1 0
1 0 0 0 0 
2 1 0 0 0 
3 1 1 0 0 
4 0 1 0 0 
1 -9.999999994736442e-08 -1e-07 -1e-07 1.0000001 1e-07 1e-07 1 1 2 1 -2 
2 0.9999999000000001 -9.999999994736442e-08 -1e-07 1.0000001 1.0000001 1e-07 1 2 2 2 -3 
3 -9.999999994736442e-08 0.9999999000000001 -1e-07 1.0000001 1.0000001 1e-07 1 2 2 3 -4 
4 -1e-07 -9.999999994736442e-08 -1e-07 1e-07 1.0000001 1e-07 1 2 2 4 -1 
1 -9.999999994736442e-08 -9.999999994736442e-08 -1e-07 1.0000001 1.0000001 1e-07 1 10 4 1 2 3 4 
$EndEntities
$Nodes
9 1285 1 1285
0 1 0 1
1
0 0 0
0 2 0 1
2
1 0 0
0 3 0 1
3
1 1 0
0 4 0 1
4
0 1 0
1 1 0 31
5
6
7
8
9
10
11
12
13
14
15
16
17
18
19
20
21
22
23
24
25
26
27
28
29
30
31
32
33
34
35
0.0625 0 0
0.125 0 0
0.1875 0 0
0.25 0 0
0.3125 0 0
0.375 0 0
0.4375 0 0
0.5 0 0
0.5625 0 0
0.625 0 0
0.6875 0 0
0.75 0 0
0.8125 0 0
0.875 0 0
0.9375 0 0
0.03125 0 0
0.09375 0 0
0.15625 0 0
0.21875 0 0
0.28125 0 0
0.34375 0 0
0.40625 0 0
0.46875 0 0
0.53125 0 0
0.59375 0 0
0.65625 0 0
0.71875 0 0
0.78125 0 0
0.84375 0 0
0.90625 0 0
0.96875 0 0
1 2 0 31
36
37
38
39
40
41
42
43
44
45
46
47
48
49
50
51
52
53
54
55
56
57
58
59
60
61
62
63
64
65
66
1 0.0625 0
1 0.125 0
1 0.1875 0
1 0.25 0
1 0.3125 0
1 0.375 0
1 0.4375 0
1 0.5 0
1 0.5625 0
1 0.625 0
1 0.6875 0
1 0.75 0
1 0.8125 0
1 0.875 0
1 0.9375 0
1 0.03125 0
1 0.09375 0
1 0.15625 0
1 0.21875 0
1 0.28125 0
1 0.34375 0
1 0.40625 0
1 0.46875 0
1 0.53125 0
1 0.59375 0
1 0.65625 0
1 0.71875 0
1 0.78125 0
1 0.84375 0
1 0.90625 0
1 0.96875 0
1 3 0 31
67
68
69
70
71
72
73
74
75
76
77
78
79
80
81
82
83
84
85
86
87
88
89
90
91
92
93
94
95
96
97
0.9375 1 0
0.875 1 0
0.8125 1 0
0.75 1 0
0.6875 1 0
0.625 1 0
0.5625 1 0
0.5 1 0
0.4375 1 0
0.375 1 0
0.3125 1 0
0.25 1 0
0.1875 1 0
0.125 1 0
0.0625 1 0
0.96875 1 0
0.90625 1 0
0.84375 1 0
0.78125 1 0
0.71875 1 0
0.65625 1 0
0.59375 1 0
0.53125 1 0
0.46875 1 0
0.40625 1 0
0.34375 1 0
0.28125 1 0
0.21875 1 0
0.15625 1 0
0.09375 1 0
0.03125 1 0
1 4 0 31
98
99
100
101
102
103
104
105
106
107
108
109
110
111
112
113
114
115
116
117
118
119
120
121
122
123
124
125
126
127
128
0 0.9375 0
0 0.875 0
0 0.8125 0
0 0.75 0
0 0.6875 0
0 0.625 0
0 0.5625 0
0 0.5 0
0 0.4375 0
0 0.375 0
0 0.3125 0
0 0.25 0
0 0.1875 0
0 0.125 0
0 0.0625 0
0 0.96875 0
0 0.90625 0
0 0.84375 0
0 0.78125 0
0 0.71875 0
0 0.65625 0
0 0.59375 0
0 0.53125 0
0 0.46875 0
0 0.40625 0
0 0.34375 0
0 0.28125 0
0 0.21875 0
0 0.15625 0
0 0.09375 0
0 0.03125 0
2 1 0 1157
129
130
131
132
133
134
135
136
137
138
139
140
141
142
143
144
145
146
147
148
149
150
151
152
153
154
155
156
157
158
159
160
161
162
163
164
165
166
167
168
169
170
171
172
173
174
175
176
177
178
179
180
181
182
183
184
185
186
187
188
189
190
191
192
193
194
195
196
197
198
199
200
201
202
203
204
205
206
207
208
209
210
211
212
213
214
215
216
217
218
219
220
221
222
223
224
225
226
227
228
229
230
231
232
233
234
235
236
237
238
239
240
241
242
243
244
245
246
247
248
249
250
251
252
253
254
255
256
257
258
259
260
261
262
263
264
265
266
267
268
269
270
271
272
273
274
275
276
277
278
279
280
281
282
283
284
285
286
287
288
289
290
291
292
293
294
295
296
297
298
299
300
301
302
303
304
305
306
307
308
309
310
311
312
313
314
315
316
317
318
319
320
321
322
323
324
325
326
327
328
329
330
331
332
333
334
335
336
337
338
339
340
341
342
343
344
345
346
347
348
349
350
351
352
353
354
355
356
357
358
359
360
361
362
363
364
365
366
367
368
369
370
371
372
373
374
375
376
377
378
379
380
381
382
383
384
385
386
387
388
389
390
391
392
393
394
395
396
397
398
399
400
401
402
403
404
405
406
407
408
409
410
411
412
413
414
415
416
417
418
419
420
421
422
423
424
425
426
427
428
429
430
431
432
433
434
435
436
437
438
439
440
441
442
443
444
445
446
447
448
449
450
451
452
453
454
455
456
457
458
459
460
461
462
463
464
465
466
467
468
469
470
471
472
473
474
475
476
477
478
479
480
481
482
483
484
485
486
487
488
489
490
491
492
493
494
495
496
497
498
499
500
501
502
503
504
505
506
507
508
509
510
511
512
513
514
515
516
517
518
519
520
521
522
523
524
525
526
527
528
529
530
531
532
533
534
535
536
537
538
539
540
541
542
543
544
545
546
547
548
549
550
551
552
553
554
555
556
557
558
559
560
561
562
563
564
565
566
567
568
569
570
571
572
573
574
575
576
577
578
579
580
581
582
583
584
585
586
587
588
589
590
591
592
593
594
595
596
597
598
599
600
601
602
603
604
605
606
607
608
609
610
611
612
613
614
615
616
617
618
619
620
621
622
623
624
625
626
627
628
629
630
631
632
633
634
635
636
637
638
639
640
641
642
643
644
645
646
647
648
649
650
651
652
653
654
655
656
657
658
659
660
661
662
663
664
665
666
667
668
669
670
671
672
673
674
675
676
677
678
679
680
681
682
683
684
685
686
687
688
689
690
691
692
693
694
695
696
697
698
699
700
701
702
703
704
705
706
707
708
709
710
711
712
713
714
715
716
717
718
719
720
721
722
723
724
725
726
727
728
729
730
731
732
733
734
735
736
737
738
739
740
741
742
743
744
745
746
747
748
749
750
751
752
753
754
755
756
757
758
759
760
761
762
763
764
765
766
767
768
769
770
771
772
773
774
775
776
777
778
779
780
781
782
783
784
785
786
787
788
789
790
791
792
793
794
795
796
797
798
799
800
801
802
803
804
805
806
807
808
809
810
811
812
813
814
815
816
817
818
819
820
821
822
823
824
825
826
827
828
829
830
831
832
833
834
835
836
837
838
839
840
841
842
843
844
845
846
847
848
849
850
851
852
853
854
855
856
857
858
859
860
861
862
863
864
865
866
867
868
869
870
871
872
873
874
875
876
877
878
879
880
881
882
883
884
885
886
887
888
889
890
891
892
893
894
895
896
897
898
899
900
901
902
903
904
905
906
907
908
909
910
911
912
913
914
915
916
917
918
919
920
921
922
923
924
925
926
927
928
929
930
931
932
933
934
935
936
937
938
939
940
941
942
943
944
945
946
947
948
949
950
951
952
953
954
955
956
957
958
959
960
961
962
963
964
965
966
967
968
969
970
971
972
973
974
975
976
977
978
979
980
981
982
983
984
985
986
987
988
989
990
991
992
993
994
995
996
997
998
999
1000
1001
1002
1003
1004
1005
1006
1007
1008
1009
1010
1011
1012
1013
1014
1015
1016
1017
1018
1019
1020
1021
1022
1023
1024
1025
1026
1027
1028
1029
1030
1031
1032
1033
1034
1035
1036
1037
1038
1039
1040
1041
1042
1043
1044
1045
1046
1047
1048
1049
1050
1051
1052
1053
1054
1055
1056
1057
1058
1059
1060
1061
1062
1063
1064
1065
1066
1067
1068
1069
1070
1071
1072
1073
1074
1075
1076
1077
1078
1079
1080
1081
1082
1083
1084
1085
1086
1087
1088
1089
1090
1091
1092
1093
1094
1095
1096
1097
1098
1099
1100
1101
1102
1103
1104
1105
1106
1107
1108
1109
1110
1111
1112
1113
1114
1115
1116
1117
1118
1119
1120
1121
1122
1123
1124
1125
1126
1127
1128
1129
1130
1131
1132
1133
1134
1135
1136
1137
1138
1139
1140
1141
1142
1143
1144
1145
1146
1147
1148
1149
1150
1151
1152
1153
1154
1155
1156
1157
1158
1159
1160
1161
1162
1163
1164
1165
1166
1167
1168
1169
1170
1171
1172
1173
1174
1175
1176
1177
1178
1179
1180
1181
1182
1183
1184
1185
1186
1187
1188
1189
1190
1191
1192
1193
1194
1195
1196
1197
1198
1199
1200
1201
1202
1203
1204
1205
1206
1207
1208
1209
1210
1211
1212
1213
1214
1215
1216
1217
1218
1219
1220
1221
1222
1223
1224
1225
1226
1227
1228
1229
1230
1231
1232
1233
1234
1235
1236
1237
1238
1239
1240
1241
1242
1243
1244
1245
1246
1247
1248
1249
1250
1251
1252
1253
1254
1255
1256
1257
1258
1259
1260
1261
1262
1263
1264
1265
1266
1267
1268
1269
1270
1271
1272
1273
1274
1275
1276
1277
1278
1279
1280
1281
1282
1283
1284
1285
0.4701188008632367 0.04946424289454476 0
0.9458734122634723 0.5312500000000001 0
0.46875 0.9470461411968802 0
0.05604843845026014 0.5256538812011896 0
0.9458734122634725 0.3437500000000002 0
0.6649439335568842 0.9411806259179711 0
0.04510915480984434 0.3552046648525202 0
0.6547905325691472 0.05519499204790368 0
0.05835897028574427 0.7292197715998191 0
0.9458734122634715 0.7187500000000002 0
0.2781787202023634 0.05608541061169792 0
0.2812500000000001 0.9469683889980066 0
0.9458734122634727 0.21875 0
0.7819368313430266 0.9444592254433019 0
0.7794605244709644 0.05789008380089211 0
0.0598655642557262 0.2103255565228435 0
0.0541265877365274 0.84375 0
0.1497678306679729 0.06129168105465144 0
0.9461683306333983 0.8432391863992018 0
0.1491089724503616 0.9381954341011667 0
0.900287101505903 0.06202995618515933 0
0.9005108988089117 0.9433939220349506 0
0.05072289613155662 0.09932279682851047 0
0.9461683306333993 0.1567608136007985 0
0.8922953288905862 0.1884500374259996 0
0.8918382419208852 0.250158339571 0
0.8382262417186679 0.2197996313253664 0
0.837736473844116 0.2814513284827277 0
0.7836140227175484 0.2502084933013489 0
0.7835330841734496 0.3125683036306793 0
0.7293936961145657 0.2812961328220044 0
0.7293780729701563 0.3437690727421137 0
0.6752467479891682 0.3125108675940193 0
0.6752433545910228 0.3750049900560218 0
0.6211154117473946 0.343752642941673 0
0.6211146203298533 0.4062512721662819 0
0.5669876748392191 0.3750006525179918 0
0.5669874833106108 0.4375003207807116 0
0.5128608040269643 0.4062501622164497 0
0.5128607568476762 0.468750080499526 0
0.5669873367209888 0.500000066880039 0
0.5128607245528576 0.53125002456326 0
0.4587341459900811 0.4375000404526616 0
0.5669873069069151 0.5625000152405492 0
0.5128607142013754 0.5937500066339674 0
0.45873414213657 0.3750000337781842 0
0.4046075367575448 0.4062500032204814 0
0.5669873002126556 0.6250000036457521 0
0.621113887661642 0.5937500031477164 0
0.4046075384583968 0.3437500061664431 0
0.6211138860144705 0.6562500002947318 0
0.5128607113604182 0.6562500017132857 0
0.4587341234379393 0.6250000013912077 0
0.3504809480649282 0.3750000015644861 0
0.3504809476221045 0.4375000007974932 0
0.6752404739120839 0.6250000005737411 0
0.4587341229334542 0.6875000005174146 0
0.4046075350818542 0.6562500003181024 0
0.6752404736644027 0.6875000001447451 0
0.7293693767611926 0.4062540104663558 0
0.5669876152135348 0.3125005492432767 0
0.3504809479055803 0.3125000012884869 0
0.5128607105859008 0.7187500003717825 0
0.4046075349785943 0.7187500001392515 0
0.3504809472056784 0.6875000000762242 0
0.2963543596524251 0.4062500003936618 0
0.2963543595397623 0.4687500001985244 0
0.4046075356155497 0.2812500012424872 0
0.7293670613864978 0.6562500001197475 0
0.729367061323986 0.7187500000114746 0
0.2422277717455993 0.4375000000986961 0
0.2423063058953667 0.375000000082058 0
0.2422277717172159 0.5000000000495353 0
0.3504809471824034 0.7500000000359113 0
0.2963543594359321 0.7187500000186876 0
0.3504809474052146 0.2500000004218277 0
0.6752404735958657 0.7500000000260362 0
0.6752459584484248 0.2500095000693369 0
0.7293670613840926 0.5937500001155812 0
0.7834936490765334 0.6250000000392215 0
0.7834936490687849 0.5625000000258005 0
0.404881279098685 0.7807758611948628 0
0.4046075350583478 0.2187500002773847 0
0.7293670613209702 0.7812500000062517 0
0.2963543594303955 0.7812500000090983 0
0.244045232924449 0.7531479352012507 0
0.2347687819248533 0.6915227854963699 0
0.783493649055594 0.7500000000029545 0
0.4046075350626758 0.5937500002848838 0
0.2438260532806931 0.8158157932895476 0
0.1881011839663522 0.4687500000247035 0
0.1847349332528771 0.5318381492890236 0
0.1904879356565665 0.7854752232784192 0
0.3504809472289536 0.187500000116534 0
0.2963543594769482 0.2187500000897253 0
0.7834936490547736 0.8125000000015344 0
0.7809997463456033 0.1783469708608676 0
0.67524047358394 0.8125000000053809 0
0.8376202367908473 0.7812500000007486 0
0.8376202367966731 0.5937500000108372 0
0.8376202367939422 0.5312500000061066 0
0.8376461821526272 0.343794938685568 0
0.8376202367907721 0.7187500000006175 0
0.4587341227809761 0.2500000002533111 0
0.4587341226480192 0.1875000000230227 0
0.512860710397844 0.2187500000460549 0
0.6211138858473291 0.7812500000052355 0
0.7293670613309662 0.5312500000235634 0
0.2416667299101801 0.5625980248897583 0
0.1844559642815129 0.5941728151150708 0
0.5120080250247288 0.1577268943660763 0
0.5668451838877919 0.1877461490686879 0
0.8376202367906345 0.8437500000003809 0
0.6217615715379425 0.8426281754748235 0
0.5670952457238883 0.8123130292466757 0
0.5645310753761541 0.8841057543163088 0
0.5119951923510023 0.8411006622018894 0
0.5653873847155785 0.1161526474566961 0
0.6211138858443086 0.1562499999999991 0
0.2963543594251409 0.8437499999999977 0
0.3504809472575124 0.5000000001660017 0
0.188101183952086 0.8437499999999971 0
0.2972693911283952 0.1578348814005647 0
0.2423802769811259 0.1877641469150466 0
0.242253189246002 0.2500440245007936 0
0.1847645870540499 0.2193895111792904 0
0.1839365120249774 0.2828859747626264 0
0.3493373946965169 0.1273401217537558 0
0.1874703046924861 0.1575104059023071 0
0.128718950427576 0.1871433772933737 0
0.1319197525327267 0.4999358308246034 0
0.1338976789299797 0.4379492627675382 0
0.1377586743709673 0.8132042038797338 0
0.1356725686996278 0.7483358361422369 0
0.1433204612362317 0.8732534753603534 0
0.1386900718537544 0.1266255943965664 0
0.6752404735808327 0.8749999999999996 0
0.8965221945199426 0.1284314309844929 0
0.4531890721913929 0.132513191559181 0
0.7832341794355947 0.876577992121109 0
0.8397998284841848 0.9068856797137301 0
0.07868652854271391 0.4606891636658715 0
0.1137770919774307 0.5660288956599107 0
0.136569621163151 0.633167034996639 0
0.07212341870086048 0.6163521076804419 0
0.08510694833877153 0.1461361083084748 0
0.1192445654283392 0.2516517241492336 0
0.1307199087339604 0.3145459056304854 0
0.08664856621807093 0.7932516352702976 0
0.08773630603728633 0.3979718043594975 0
0.726661122189924 0.9072740450000465 0
0.1042557701701507 0.6819767009129737 0
0.1688083938389955 0.6933073438863602 0
0.06489812292712116 0.2920294057528867 0
0.8939148402878507 0.8754923177572456 0
0.891746824527075 0.750000000000228 0
0.8917468245270248 0.687500000000141 0
0.9458734122634851 0.6562500000000235 0
0.8917468245285745 0.5625000000028241 0
0.891746824527804 0.5000000000014887 0
0.8376202367911479 0.468750000001266 0
0.8917468245270139 0.4375000000001201 0
0.7834936490553105 0.5000000000024614 0
0.7834940349615535 0.4375006684116805 0
0.8376246253355296 0.4062576011831058 0
0.2416295191541602 0.3127799998909119 0
0.8921573135488797 0.8124969173596341 0
0.5669872986875883 0.6875000010042583 0
0.8917518801781767 0.3750087566447991 0
0.7835075627257515 0.3750240991865839 0
0.6211140455612383 0.4687502766378385 0
0.7834936490706332 0.6875000000290027 0
0.5669636652598401 0.2500411163930028 0
0.9458886484957959 0.2812763899285 0
0.8917891398091788 0.3125732922187658 0
0.4587341266223331 0.3125000069067372 0
0.6210871754775849 0.2187994609218376 0
0.6742443269843394 0.189229076074961 0
0.6786843383857812 0.1214008642461397 0
0.6752414886902506 0.4375017582210829 0
0.4587341257979617 0.5625000054788859 0
0.2447704632185621 0.1167127854403991 0
0.9459909801621373 0.7811643506265107 0
0.59375 0.9458734122634727 0
0.5315885125626924 0.945968084317342 0
0.40625 0.9460688670857071 0
0.4374999999999991 0.8970336982419844 0
0.374563825764038 0.8978344385710721 0
0.343723507395775 0.9467205882843727 0
0.217559828741727 0.9460836450511001 0
0.2467273464856639 0.8848965335647545 0
0.08866790606289277 0.9494428947540106 0
0.2962608525019139 0.5312663375506359 0
0.2962452679748649 0.5937690604067309 0
0.3492423166201423 0.8092483050234982 0
0.71875 0.05412658773652745 0
0.748324354291109 0.1153523993260117 0
0.8086401093067856 0.1137843938530497 0
0.8408172512149702 0.05895537963041547 0
0.6211077623559912 0.2812690228605244 0
0.2962677400162674 0.3437966672032671 0
0.5128568251076302 0.2812569454737303 0
0.2181086445790338 0.05454911689135433 0
0.3458832299746334 0.06369734019584161 0
0.4107570305271767 0.05069207865483188 0
0.5332501306385059 0.05372580736919197 0
0.59375 0.0541265877365274 0
0.675240473952321 0.5625000006434334 0
0.6211138859862392 0.7187500002458342 0
0.5670052895336994 0.7499688384789641 0
0.7293670613173631 0.2187499999999997 0
0.4587797467671014 0.7499209770372181 0
0.4605861547646724 0.808600776491492 0
0.512860197991042 0.3437513916893949 0
0.6752406694494075 0.5000003392543195 0
0.6211139533754187 0.5312501169673161 0
0.1884455442693784 0.406784834788154 0
0.4046075391933609 0.4687500074394391 0
0.4587341378800225 0.5000000264056285 0
0.2950930125652689 0.656923640999668 0
0.9458734122636271 0.4687500000002682 0
0.9458734122637458 0.5937500000004746 0
0.350252540842002 0.6251154503476013 0
0.5129310503553834 0.7808342009127799 0
0.8376202367980966 0.6562500000133034 0
0.4030332263067736 0.1587706293811487 0
0.7293677133747801 0.4687511293965773 0
0.4046075387255339 0.5312500066291395 0
0.2963543594251438 0.2812499999999979 0
0.3504091137274172 0.5625251425641655 0
0.9458742548720483 0.4062514594408646 0
0.2422277716886147 0.6249999999999976 0
0.7288728265276725 0.8441836728557203 0
0.8917468245295999 0.6250000000046007 0
0.1878216570034401 0.3443670459957612 0
0.1379947937060037 0.37526614044276 0
0.4055261766154855 0.8433151367892069 0
0.9495374085310317 0.09674589604058426 0
0.9487123700257603 0.9043472065317673 0
0.09106368511661195 0.05109213859601092 0
0.04763931336824145 0.9101616184636164 0
0.8436054746228087 0.157304825818722 0
0.3128797026262864 0.8978428650726513 0
0.4985641819974359 0.8971001320586005 0
0.6227452283029631 0.1006250182974532 0
0.6249999999999972 0.8995190528383277 0
0.1874999999999998 0.8995912226804826 0
0.1875680609647964 0.1011712563432391 0
0.1933661065794255 0.6474339958988875 0
0.048999409108336 0.6649549298814224 0
0.4953202700601071 0.09925061656875339 0
0.3030878398440942 0.1043341078804518 0
0.7223239654648392 0.1646158621015959 0
0.8419495117272247 0.9589477654383965 0
0.3980719453979898 0.1050699730717746 0
0.71875 0.959113189042562 0
0.04575317547305485 0.9542468245269451 0
0.04575317547305485 0.04575317547305485 0
0.9542468245269451 0.9542468245269451 0
0.9542468245269451 0.04575317547305485 0
0.3477132762102186 0.8583981490912853 0
0.4645245293897986 0.8574934841178717 0
0.0357513673149189 0.1553049899168972 0
0.03886692251415991 0.4131090039140344 0
0.03380887050855819 0.46875 0
0.03687925537565462 0.7835430007010323 0
0.1038285000997541 0.8448978612022257 0
0.04384533876752167 0.5759423544204169 0
0.09329165724284322 0.3470035842076299 0
0.09764088657175551 0.8954968170813282 0
0.1959706879637995 0.7352949066234413 0
0.09883533685545715 0.09714932480955429 0
0.8536462770795961 0.1048351852081457 0
0.4418065828867819 0.08667454065610913 0
0.1239817579279576 0.2193975507213037 0
0.08955506484203268 0.2309886403360386 0
0.09429225734165109 0.1987344669081086 0
0.1228484222550787 0.532982363242257 0
0.08491276521384539 0.5458413884305502 0
0.09398409549149345 0.5127948560128965 0
0.1204126956666509 0.6575718679548064 0
0.08818959443550556 0.6491644042967079 0
0.1043465199320057 0.6247595713385404 0
0.1515905387266583 0.26726884945593 0
0.1520045762411945 0.235520617664262 0
0.1843505495395136 0.2511377429709584 0
0.1491165281294718 0.5801008553874907 0
0.1492560126151539 0.5489335224744671 0
0.184595448767195 0.5630054822020473 0
0.07662758963924332 0.6734658153971981 0
0.06056141390459824 0.6406535187809321 0
0.7784822317989473 0.1145683965895307 0
0.7948199278261945 0.1460656823569586 0
0.7646620503183561 0.1468496850934397 0
0.07248625629724886 0.1782308324156592 0
0.1069129493831737 0.1666397428009243 0
0.06736748349648702 0.4931715224335306 0
0.1053031405377203 0.4803124972452374 0
0.1111605674588494 0.7707937357062673 0
0.07250376825190763 0.7612357034350584 0
0.09701576949268609 0.738777803871028 0
0.08130737022794748 0.7055982362563964 0
0.1199641694348893 0.7151562685276053 0
0.6867702662845736 0.05466078989221557 0
0.6987171691928906 0.08776372599133353 0
0.6667374354774642 0.08829792814702164 0
0.7335371771455546 0.08473949353126958 0
0.7135043463384452 0.1183766317860757 0
0.2452766998831785 0.850356163427151 0
0.217414265218875 0.8643232667823758 0
0.2159636186163896 0.8297828966447723 0
0.7009507978853784 0.891137022500023 0
0.6958025278734041 0.9242273354590088 0
0.6700922035688585 0.9080903129589853 0
0.2314395538987979 0.08563095116587671 0
0.2481436823906986 0.05531726375152612 0
0.2614745917104627 0.0863990980260485 0
0.1120057829884018 0.3307747449190577 0
0.07909489008498216 0.3195164949802583 0
0.0978090158305408 0.303287655691686 0
0.5626692562813462 0.9459207482904073 0
0.5480597939694232 0.9150369193168254 0
0.5791405376880771 0.9149895832898907 0
0.563500065319253 0.05392619755285966 0
0.5795686923577893 0.08513961759661171 0
0.5493187576770422 0.08493922741294402 0
0.09207134417773016 0.2718405649510601 0
0.1249822370811498 0.2830988148898596 0
0.1567417687408129 0.2032664442363321 0
0.1583273428928019 0.5158869900568135 0
0.8668573343860178 0.8911889987354878 0
0.8972128695483812 0.9094431198960982 0
0.8701553636465482 0.9251398008743403 0
0.1573282103794689 0.2987159401965559 0
0.160512792722332 0.6136699250558548 0
0.1251733565702908 0.5995979653282748 0
0.1526890075010733 0.6632371894414996 0
0.1365320820045731 0.6876420223996669 0
0.2715408529554024 0.8643232667823761 0
0.270090206352917 0.8297828966447727 0
0.722705561094962 0.9331936170213042 0
0.6918469667784422 0.9501469074802666 0
0.5150763472800641 0.9215341081879712 0
0.5315476286867949 0.8906029431874546 0
0.1649678638712883 0.6403005154477632 0
0.1810872502092105 0.6703706698926237 0
0.2906332800232288 0.08020975924607487 0
0.2739291515313281 0.1105234466604255 0
0.06920040602634381 0.3511041245300751 0
0.05500363886848275 0.3236170353027034 0
0.7516618559052213 0.1714814164812317 0
0.7353241598779741 0.1399841307138038 0
0.5303538273878428 0.1077016320127248 0
0.5142852003493065 0.07648821196897271 0
0.794050316888875 0.08583723882697092 0
0.7638924393810367 0.08662124156345191 0
0.7491052622354821 0.05600833576870978 0
0.8712302052680682 0.9511708437366736 0
0.8408746701057047 0.9329167225760633 0
0.2171136732428319 0.8922438781226185 0
0.1878005919760429 0.8716706113402399 0
0.8261227919647971 0.1355446098358858 0
0.8123026104842059 0.1678258983397948 0
0.8115170039598898 0.8917318359174196 0
0.8108683299136057 0.925672452578516 0
0.7825855053893107 0.9105186087822055 0
0.3719775876863116 0.08438365663380809 0
0.3737046700472534 0.1162050474127652 0
0.3476103123355752 0.09551873097479868 0
0.1233749295110586 0.9168461255912475 0
0.1204806739039936 0.8843751462208408 0
0.1462147168432967 0.90572445473076 0
0.05877672552843693 0.436899083789953 0
0.06330161427572312 0.405540404136766 0
0.08321141729000014 0.4293304840126845 0
0.05624769952563602 0.4647195818329358 0
0.03633789651135905 0.4409295019570172 0
0.857908625607485 0.02947768981520771 0
0.826658625607485 0.02947768981520771 0
0.5947655376880757 0.8918124035773183 0
0.6093749999999987 0.9226962325509002 0
0.6082476141514815 0.07737580301699032 0
0.5940663065092708 0.1083888328770746 0
0.8750842357997693 0.1166333080963193 0
0.8769666892927495 0.08343257069665255 0
0.8984046480129229 0.09523069358482616 0
0.1187627043546058 0.1118874596030603 0
0.124301583761715 0.07922050293210287 0
0.1442289512608637 0.09395863772560892 0
0.7542989767664753 0.9258666352216741 0
0.7549476508127594 0.8919260185605777 0
0.9213136051568055 0.8899197621445064 0
0.924611634417336 0.9238705642833589 0
0.9249122550184674 0.07938792611287182 0
0.9230298015254872 0.1125886635125386 0
0.2161692620916792 0.1089420208918191 0
0.2028383527719151 0.07786018661729677 0
0.4044144879625833 0.07788102586330325 0
0.3783201302509051 0.05719470942533678 0
0.1654102306181158 0.8864223490204179 0
0.1683044862251807 0.9188933283908247 0
0.1686679458163847 0.08123146869894526 0
0.1631290664092754 0.1138984253699028 0
0.8705521763604366 0.0604926679077874 0
0.8876435507529514 0.03101497809257969 0
0.8101388878429673 0.05842273171565382 0
0.7959802622354821 0.02894504190044606 0
0.06238184359142368 0.2511774811378651 0
0.09295025533914558 0.5911905016701763 0
0.03244906146356058 0.2710147028764434 0
0.03244906146356058 0.3022647028764434 0
0.8472317641472831 0.08189528241928057 0
0.024499704554168 0.6449774649407112 0
0.03606170935043024 0.620676053840221 0
0.09315439631732414 0.9224698559176694 0
0.1188884392566272 0.9438191644275886 0
0.5052796871742191 0.8691003971302449 0
0.5382631338635782 0.8626032082590991 0
0.3262126172703055 0.1158371148171038 0
0.3244855349093638 0.08401572403814672 0
0.6449719667784407 0.9203498393781494 0
0.650120236790415 0.8872595264191636 0
0.6507147833443722 0.1110129412717964 0
0.6387678804360551 0.07791000517267843 0
0.07881121537247615 0.5709856250401637 0
0.0499468886088909 0.5507981178108032 0
0.1858790845142088 0.3136265103791938 0
0.1592707828687003 0.3294564758131233 0
0.2140674442521394 0.6694783906976287 0
0.2017885878819244 0.692415064691365 0
0.8247286802608779 0.08636988674173257 0
0.7277669743587982 0.8757288589278833 0
0.7560535029816335 0.8603808324884146 0
0.7020566500542527 0.8595918364278599 0
0.02192266938376086 0.6004711772102084 0
0.05798437873419104 0.5961472310504294 0
0.0299327821278631 0.2301627782614217 0
0.02255457740492217 0.3338523324262601 0
0.1522404812693117 0.7208215900142985 0
0.2153697349443264 0.7134088460599057 0
0.1823895409013975 0.7143011252549007 0
0.8119431715351256 0.9517034954408492 0
0.4685634264734445 0.09296257861243129 0
0.4559626918750093 0.06806939177532695 0
0.4827195354616719 0.07435742973164905 0
0.3046170310257136 0.8707964325363244 0
0.2798035245559751 0.8913696993187029 0
0.8930360769183653 0.8439946175584399 0
0.9191628220911391 0.8278680518794179 0
0.9200415854606245 0.8593657520782237 0
0.9188689023446062 0.7655821753133694 0
0.9190741468555086 0.7968306339930724 0
0.8919520690379774 0.7812484586799311 0
0.9460796553977679 0.8122017685128562 0
0.9459321962128044 0.7499571753132555 0
0.9188101183952733 0.7343750000001141 0
0.9729367061317425 0.6718750000000118 0
0.9729367061317425 0.6406250000000118 0
0.8917468245270499 0.7187500000001845 0
0.9188101183952482 0.7031250000000706 0
0.9458734122636154 0.6250000000002491 0
0.9729367061318729 0.6093750000002374 0
0.9458734122634784 0.6875000000000119 0
0.9729367061317358 0.7031250000000001 0
0.9188101183952549 0.6718750000000823 0
0.9729367061318729 0.5781250000002374 0
0.8917468245281892 0.5312500000021564 0
0.9188101183956382 0.5156250000007444 0
0.9188101183960233 0.5468750000014121 0
0.9188101183957156 0.4843750000008785 0
0.9458734122635497 0.5000000000001342 0
0.8647176609809031 0.3281841154521669 0
0.8917705099936779 0.3437910244317824 0
0.864699031165402 0.3594018476651835 0
0.9458734122636091 0.5625000000002374 0
0.9188101183961601 0.5781250000016493 0
0.8105569429373151 0.6406250000262624 0
0.810556942934365 0.6718750000211531 0
0.7834936490735833 0.6562500000341122 0
0.8376202367973848 0.6250000000120703 0
0.8105569429366033 0.6093750000250294 0
0.9188312760363258 0.328161646109383 0
0.9188126462208247 0.3593793783223996 0
0.8105660940306405 0.3906408501848448 0
0.8105768724391893 0.3594095189360759 0
0.8376354037440784 0.3750262699343369 0
0.9188101183953206 0.4531250000001942 0
0.8917468245274089 0.4687500000008044 0
0.9188101183965425 0.6406250000023122 0
0.9188101183966728 0.6093750000025376 0
0.9729371274360241 0.3906257297204323 0
0.9458738335677604 0.3750007297204324 0
0.9729367061317362 0.3593750000000001 0
0.9729367061317362 0.5468750000000001 0
0.9188130675251126 0.3906301080428318 0
0.9188558270921789 0.2344541697855 0
0.8920667854057358 0.2193041884984998 0
0.9190843705770294 0.2036000187129998 0
0.7564308741681668 0.4531258989041289 0
0.7293685450679864 0.4375025699314665 0
0.7564317058613731 0.4218773394390181 0
0.7564303551973097 0.7031250000202387 0
0.7834936490631137 0.7187500000159786 0
0.7564303551897901 0.7343750000072146 0
0.6476657512309623 0.2040142684983993 0
0.6747451427163822 0.2196192880721489 0
0.6481665669630049 0.2344044804955872 0
0.756183237791223 0.8283418364286274 0
0.7291199439243213 0.812716836430986 0
0.7564303551878719 0.7968750000038931 0
0.8917468245283123 0.6562500000023708 0
0.7834936490620478 0.5312500000141309 0
0.8105569429246263 0.5156250000042839 0
0.8105569429313636 0.5468750000159535 0
0.6752404735823864 0.8437500000026903 0
0.6485010225593877 0.8588140877374115 0
0.6485010225609413 0.8275640877401023 0
0.296354359451046 0.2500000000448616 0
0.2693037743355728 0.2656470122503957 0
0.2693037743614751 0.2343970122952594 0
0.8646882527568532 0.3906331789139524 0
0.5128587677527371 0.2500034727598925 0
0.4857954739443031 0.2656284728635206 0
0.4857974165894101 0.234375000149683 0
0.7835007988436524 0.4062623837991322 0
0.8105593301485415 0.4218791347973931 0
0.7564303552285655 0.6718750000743752 0
0.7293670613552419 0.6875000000656111 0
0.7564303552315156 0.6406250000794845 0
0.3227983380252689 0.7952491525162982 0
0.3227983380226416 0.826499152511748 0
0.2963543594277682 0.8125000000045479 0
0.6210974689167881 0.250034241891181 0
0.5940357138079156 0.2656550696267636 0
0.5940254203687125 0.2344202886574202 0
0.594047688784763 0.2968847860519006 0
0.5669756402366875 0.2812708328181398 0
0.5128607109731594 0.6875000010425341 0
0.4857974167596775 0.7031250004445986 0
0.4857974171469362 0.67187500111535 0
0.404607535072265 0.6250000003014931 0
0.4316708292503075 0.6093750008380457 0
0.4316708292598967 0.640625000854655 0
0.783493842008432 0.4687503342070709 0
0.8105571358763507 0.4531253342064732 0
0.8105569429232292 0.4843750000018637 0
0.2692870229558171 0.3593983336426625 0
0.2963110498343463 0.3750233337984644 0
0.269330332773896 0.3906250002378598 0
0.3233708998797131 0.5156331688583188 0
0.2963076060208381 0.5000081688745802 0
0.3234176533986374 0.484375000182263 0
0.5669962941106439 0.7187344197416112 0
0.5399330000598001 0.7343594194253733 0
0.5399240046367445 0.7031250006880204 0
0.837620236792545 0.5000000000036863 0
0.864683530659476 0.4843750000013773 0
0.8646835306608731 0.5156250000037976 0
0.4857954758649817 0.2968784761902337 0
0.4587341247016546 0.2812500035800242 0
0.8387100326374096 0.8753178398570556 0
0.8104272081131145 0.860163996060745 0
0.8376224310633388 0.4375038005921859 0
0.8646857249312718 0.421878800591613 0
0.864683530659081 0.4531250000006931 0
0.8944087617052645 0.1584407342052463 0
0.921345262576671 0.1425961222926457 0
0.9192318297619928 0.1726054255133991 0
0.4587341246179505 0.5937500034350468 0
0.4857974199996685 0.5781250060564266 0
0.4857974188196573 0.6093750040125875 0
0.6211138868380562 0.6250000017212242 0
0.594050593113563 0.640625001970242 0
0.5940505939371489 0.6093750033967342 0
0.5669872994501219 0.6562500023250053 0
0.5399240050240033 0.671875001358772 0
0.5399240057865369 0.6406250026795188 0
0.3504809479852543 0.3437500014264865 0
0.3775442431819885 0.3281250037274649 0
0.3775442432616625 0.3593750038654646 0
0.6752404737882433 0.6562500003592431 0
0.6481771798394366 0.6718750002197384 0
0.6481771799632772 0.6406250004342364 0
0.6211138860003548 0.6875000002702831 0
0.5940505923369137 0.7031250006250463 0
0.5940505923510294 0.6718750006494951 0
0.7023046010325154 0.45312644380883 0
0.7023054327257217 0.4218778843437193 0
0.1882733641178653 0.4377674174064288 0
0.2153366580074888 0.4221424174434251 0
0.2151644778559758 0.4531250000616998 0
0.2689486295852138 0.3282883335470895 0
0.2419679125247635 0.343889999986485 0
0.7018056941508513 0.2039895380374803 0
0.702306509882894 0.2343797500346683 0
0.4596829507658869 0.779260876764355 0
0.4327337169316787 0.7946883188431774 0
0.4318305129328932 0.7653484191160405 0
0.7834936490551838 0.7812500000022444 0
0.7564303551882821 0.7656250000046031 0
0.2700902063555443 0.7985328966493229 0
0.4046075368941048 0.5625000034570117 0
0.4316708322617478 0.5468750060540127 0
0.4316708304303187 0.5781250028818848 0
0.3775083243950465 0.5781375714245247 0
0.3775083262264755 0.5468875745966525 0
0.1329087157313532 0.4689425467960708 0
0.160999431448166 0.4533496313961209 0
0.1600104682495395 0.4843429154246534 0
0.8648887751698635 0.7968734586801913 0
0.8646835306589611 0.7656250000004883 0
0.5124631213531928 0.8109674315573346 0
0.5400131480396358 0.7965736150797278 0
0.5395452190374453 0.8267068457242825 0
0.243575370099844 0.1522384661777229 0
0.2710199271734786 0.1372738334204819 0
0.2698248340547605 0.1727995141578056 0
0.7564306812150453 0.4843755646995193 0
0.8647628068266475 0.2970123103507468 0
0.8376913279983716 0.3126231335841478 0
0.6481780545100519 0.4218765151936824 0
0.6481777671257445 0.4531260174294607 0
0.6211143329455457 0.4375007744020602 0
0.5399241436687875 0.4218752414985806 0
0.5399242394330916 0.3906254073672207 0
0.5669875790749149 0.4062504866493517 0
0.5940507644359245 0.453125298709275 0
0.5940506911411135 0.4843751717589387 0
0.5669874100157998 0.4687501938303753 0
0.4857974514188786 0.4531250604760938 0
0.4857974750085227 0.4218751013345556 0
0.5128607804373202 0.4375001213579878 0
0.4857974251754096 0.5468750150210729 0
0.5128607193771164 0.5625000155986136 0
0.5940505972842786 0.5781250091941328 0
0.5669873035597854 0.5937500094431506 0
0.6481771807868629 0.6093750018607287 0
0.7023037676492908 0.6406250003467443 0
0.7023037675254502 0.6718750001322463 0
0.5399222201605824 0.2968787473585035 0
0.5399102451837352 0.2656490309333665 0
0.4316936408728478 0.7343354885882348 0
0.4047444070386397 0.7497629306670571 0
0.7293670613224781 0.7500000000088631 0
0.6481771797156346 0.7968750000053082 0
0.6481771797215974 0.7656250000156358 0
0.6752404735899029 0.7812500000157085 0
0.7023037676682068 0.5781250003795073 0
0.7023037676416436 0.5468750003334985 0
0.7293670613575294 0.5625000000695723 0
0.5399681699445414 0.765401519695872 0
0.5670502676287938 0.7811409338628199 0
0.9458810303796342 0.25001319496425 0
0.9188634452083406 0.26571736474975 0
0.5940506450482037 0.5156250919236774 0
0.594050630141167 0.5468750661039326 0
0.5669873218139519 0.5312500410602941 0
0.2692443121095649 0.5156331688000856 0
0.268963791206047 0.5469321812201972 0
0.2419472508136981 0.5312990124696467 0
0.9188105396995312 0.4218757297204924 0
0.8917493523525954 0.4062543783224596 0
0.8650322418197767 0.2349789854481832 0
0.865260785304627 0.204124834375683 0
0.3233743440405978 0.3593983343838766 0
0.3234176538586767 0.3906250009790739 0
0.4316708311189414 0.2968750040746122 0
0.4316708291982629 0.2656250007478992 0
0.8648887751697572 0.8281234586800075 0
0.8376202367907408 0.8125000000005648 0
0.8657675385392426 0.8596211588788133 0
0.9458738335678377 0.4375007297205664 0
0.2686603921269418 0.6409618204998329 0
0.2692365198317398 0.6093845302033642 0
0.2956691402700669 0.6253463507031995 0
0.9729443242478979 0.26563819496425 0
0.9729367061317363 0.234375 0
0.9729954900810687 0.7655821753132553 0
0.9729367061317358 0.7343750000000001 0
0.609375 0.9729367061317363 0
0.6293469667784422 0.9435270190907219 0
0.6449719667784422 0.9705903129589856 0
0.5470442562813462 0.9729840421586711 0
0.578125 0.9729367061317363 0
0.421875 0.9730344335428536 0
0.4375 0.9465575041412937 0
0.453125 0.9735230705984401 0
0.3593617536978875 0.9733602941421864 0
0.3749867536978875 0.94639472768504 0
0.390625 0.9730344335428536 0
0.2337799143708635 0.97304182252555 0
0.2494049143708635 0.9465260170245534 0
0.265625 0.9734841944990034 0
0.1068339530314464 0.9747214473770053 0
0.1370544862251808 0.9690977170505833 0
0.8647873578825007 0.2658048340268638 0
0.8379813577813919 0.250625479904047 0
0.9188388941524874 0.2969248410736329 0
0.891813690865032 0.2813658158948829 0
0.8106347790087828 0.2970098160567035 0
0.7835735534454991 0.2813883984660141 0
0.8106752482808323 0.2658299108920383 0
0.756455578571803 0.3281686881863965 0
0.7293858845423611 0.3125326027820591 0
0.7564633901440077 0.2969322182263419 0
0.7835203234496005 0.3437962014086315 0
0.8105896331630384 0.3281816211581237 0
0.7293803787159644 0.250023066411002 0
0.7023198272814953 0.2656528164456706 0
0.7023107137805896 0.3593870313990677 0
0.6752450512900955 0.3437579288250205 0
0.7023124104796623 0.3281399701680665 0
0.6481789874604381 0.3906281311111519 0
0.621115016038624 0.3750019575539775 0
0.6481793831692088 0.3593788164988474 0
0.6752424216406367 0.4062533741385523 0
0.7023063656761077 0.3906295002611888 0
0.6211115870516929 0.3125108329010987 0
0.5940515134804647 0.3281265960924749 0
0.594051051820232 0.4218757964734968 0
0.5940511475845361 0.3906259623421369 0
0.5399241200791435 0.4531252006401188 0
0.5399240306369232 0.5156250457216495 0
0.5128607407002669 0.500000052531393 0
0.5399240467843325 0.4843750736897825 0
0.5399240105541452 0.5781250109372582 0
0.5399240157298864 0.5468750199019046 0
0.4316708425917209 0.4531250239460503 0
0.4046075379754528 0.4375000053299603 0
0.431670841373813 0.4218750218365714 0
0.6211139205185304 0.5625000600575162 0
0.5128607127808967 0.6250000041736266 0
0.5399240072070155 0.6093750051398596 0
0.431670832540365 0.3281250065365902 0
0.4587341343794517 0.3437500203424607 0
0.4316708402974834 0.3593750199723136 0
0.6481771808069815 0.5781250018955749 0
0.6752404739322024 0.5937500006085873 0
0.377544241760565 0.296875001265487 0
0.4046075370369733 0.3125000037044652 0
0.6481771798253209 0.7031250001952898 0
0.3234176535809334 0.4531250004980089 0
0.2963543595960937 0.4375000002960931 0
0.3234176536372648 0.4218750005955775 0
0.7023037676480882 0.6093750003446612 0
0.7293670613852952 0.6250000001176643 0
0.4316708289560243 0.703125000328333 0
0.4046075350302243 0.687500000228677 0
0.4316708290076542 0.6718750004177585 0
0.702303767459926 0.7343750000187554 0
0.6752404736301343 0.7187500000853906 0
0.7023037674941943 0.70312500007811 0
0.7564384697434721 0.3906390548264698 0
0.5399239066022884 0.3281259704663358 0
0.512858511549336 0.3125041685815626 0
0.5128958804706421 0.7497921006422812 0
0.3775442410804988 0.7343750000875814 0
0.3504809471940409 0.7187500000560678 0
0.3775442410921364 0.7031250001077379 0
0.3775442412317813 0.2343750003496062 0
0.4046075353369488 0.2500000007599359 0
0.3775442415103822 0.2656250008321575 0
0.2134813524850465 0.5159190746692794 0
0.1864180586096147 0.5002940746568636 0
0.2151644778417841 0.4843750000371194 0
0.3234176533063994 0.7656250000225047 0
0.2963543594331638 0.7500000000138929 0
0.3234176533091677 0.7343750000272995 0
0.2649308972450611 0.674223213248019 0
0.2957236860006005 0.6878368205091778 0
0.2655615706803928 0.7051363927575288 0
0.3234176534151792 0.2656250002109127 0
0.3234176534410814 0.2343750002557765 0
0.702303767452455 0.7968750000058162 0
0.7023037674584179 0.765625000016144 0
0.648176860402208 0.2656392614649306 0
0.7564303552264388 0.5781250000706908 0
0.7834936490726592 0.593750000032511 0
0.756430355230313 0.6093750000774014 0
0.8376202367953076 0.5625000000084719 0
0.8105569429327291 0.5781250000183189 0
0.7564303551931384 0.5156250000130124 0
0.7564303551998757 0.5468750000246819 0
0.3767570867678636 0.1731353147488414 0
0.4038203806825607 0.1887603148292667 0
0.3775442411436507 0.2031250001969593 0
0.8105569429231831 0.734375000001786 0
0.8376202367908098 0.750000000000683 0
0.8105569429232207 0.7656250000018516 0
0.323303392912456 0.1425875015771602 0
0.3499091709627353 0.1574200609351449 0
0.3238751691786744 0.1726674407585493 0
0.7833639142451841 0.8445389960613217 0
0.810556942922704 0.8281250000009577 0
0.6214377286926358 0.8119390877400295 0
0.8646835306612584 0.5468750000044653 0
0.8646835306588985 0.7031250000003793 0
0.8646835306589236 0.7343750000004228 0
0.8376202367944344 0.6875000000069604 0
0.8105569429307027 0.7031250000148102 0
0.5399121878288421 0.2343955582195288 0
0.5386977048701537 0.1369397709113862 0
0.5661162843016853 0.1519493982626919 0
0.5394266044562603 0.1727365217173821 0
0.5931463234570483 0.8633669648955662 0
0.5658131605500212 0.8482093917814922 0
0.5944284086309154 0.8274706023607497 0
0.4867586025600279 0.794717488702136 0
0.4862906735578373 0.8248507193466907 0
0.6498991121150449 0.1388254321230694 0
0.6764643326850603 0.1553149701605503 0
0.647679106414324 0.1727395380374801 0
0.3504450304924648 0.5312625713650836 0
0.3775442429915231 0.5156250033975706 0
0.268991939289652 0.2970149999454549 0
0.2419413542000811 0.2814120121958527 0
0.110816992483633 0.4179605335635178 0
0.1062921037363468 0.4493192132167049 0
0.8646835306638483 0.640625000008952 0
0.8646835306625607 0.6718750000067222 0
0.8917468245290872 0.5937500000037124 0
0.6481773114124132 0.5156252281108178 0
0.6211139994683285 0.5000001968025772 0
0.6481773575053229 0.484375307946079 0
0.390406912882019 0.9219516528283898 0
0.4060319128820186 0.8974340684065283 0
0.4218749999999996 0.9215512826638459 0
0.6481772136638699 0.5468750588053748 0
0.4587341231856967 0.6562500009543111 0
0.3775442411437663 0.6718750001971634 0
0.3234176533208052 0.7031250000474559 0
0.2701997961774222 0.7671989676051745 0
0.2701997961801906 0.7359489676099691 0
0.2171569944686298 0.8006455082839834 0
0.2172665842905077 0.769311579239835 0
0.243935643102571 0.7844818642453991 0
0.238498276806734 0.6582613927481837 0
0.5940595876905143 0.7656094192420998 0
0.5941045657856087 0.7967815146259556 0
0.6752405717008643 0.5312501699488765 0
0.7023038653901869 0.5156251696389414 0
0.6752410790698291 0.4687510487377012 0
0.4858553985612424 0.765377588974999 0
0.734375 0.02706329386826373 0
0.703125 0.02706329386826373 0
0.7564905420174557 0.2344792466506743 0
0.7565038594160571 0.2657523130616767 0
0.7564428178479539 0.3593965859643488 0
0.6752463532187964 0.2812601838316781 0
0.7023202220518669 0.2969035002080119 0
0.7293737248656745 0.3750115416042347 0
0.5669876450263769 0.3437506008806342 0
0.5940515432933068 0.3593766477298324 0
0.5128605010090032 0.3750007769529223 0
0.5399239364151305 0.3593760221036933 0
0.3504809476553975 0.2812500008551573 0
0.242267038820483 0.406250000090377 0
0.2692910656990122 0.421875000246179 0
0.2422277717314076 0.4687500000741157 0
0.2132008315815286 0.547218087089391 0
0.4308836744773964 0.1731353147020857 0
0.4316708288531835 0.2031250001502037 0
0.186117445873268 0.1884499585407988 0
0.214925290836806 0.1726372764086769 0
0.2135724320175879 0.2035768290471685 0
0.158094627560031 0.1723268915978404 0
0.1337045111406652 0.1568844858449701 0
0.1630801882731203 0.1420680001494368 0
0.3591436665799065 0.9222775134277225 0
0.6711452662845736 0.02759749602395184 0
0.9729443242478979 0.29688819496425 0
0.9729954900810687 0.7968321753132553 0
0.3281117536978875 0.9733602941421864 0
0.2025299143708635 0.97304182252555 0
0.4531249999999996 0.9220399197194323 0
0.9460208714484359 0.1877554068003993 0
0.2692910656284891 0.4843750001240298 0
0.1629299291615267 0.8284771019398655 0
0.1641233050137669 0.7993397135790765 0
0.1892945598043262 0.8146126116392082 0
0.1122036202945191 0.8032279195750157 0
0.1367156215352976 0.7807700200109853 0
0.1686339153339864 0.03064584052732572 0
0.1373839153339864 0.03064584052732572 0
0.2340543222895169 0.02727455844567717 0
0.2028043222895169 0.02727455844567717 0
0.1839382376235034 0.05792039897300288 0
0.2953393601011817 0.02804270530584896 0
0.2640893601011817 0.02804270530584896 0
0.3604416149873167 0.03184867009792081 0
0.3291916149873167 0.03184867009792081 0
0.3120309750884984 0.05989137540376976 0
0.4241285152635883 0.02534603932741597 0
0.3928785152635883 0.02534603932741597 0
0.4850594004316184 0.02473212144727238 0
0.4538094004316183 0.02473212144727238 0
0.4404379156952067 0.0500781607746883 0
0.547875065319253 0.02686290368459598 0
0.516625065319253 0.02686290368459598 0
0.5016844657508713 0.05159502513186837 0
0.609375 0.02706329386826367 0
0.578125 0.02706329386826367 0
0.6398952662845736 0.02759749602395184 0
0.6242702662845736 0.05466078989221557 0
0.7647302622354821 0.02894504190044606 0
0.9188935507529514 0.03101497809257969 0
0.9458810303796342 0.3125131949642501 0
0.9729367061317362 0.3281250000000001 0
0.3124867536978875 0.9468444886411896 0
0.296875 0.9734841944990034 0
0.02706329386826367 0.828125 0
0.02706329386826367 0.859375 0
0.02917948514287216 0.7083598857999096 0
0.02917948514287216 0.7396098857999096 0
0.0280242192251301 0.5128269406005949 0
0.0280242192251301 0.5440769406005949 0
0.02255457740492217 0.3651023324262601 0
0.0299327821278631 0.1989127782614217 0
0.02536144806577834 0.08091139841425521 0
0.02536144806577834 0.1121613984142552 0
0.2321435876136955 0.9154900893079273 0
0.263988673242832 0.9159324612813806 0
0.6481810798682813 0.3281317552678461 0
0.4316708394470574 0.3906250184993328 0
0.4587341440633256 0.4062500371154228 0
0.3504809478435164 0.4062500011809896 0
0.2692910656426808 0.4531250001486102 0
0.1611716115996791 0.4223670487778461 0
0.2130613470958465 0.5783854200024146 0
0.269367318229037 0.203257073502386 0
0.2968118753026717 0.188292440745145 0
0.4857974165229316 0.2031250000345388 0
0.4587341227144976 0.2187500001381669 0
0.539852947142818 0.2032480745573714 0
0.5124343677112864 0.1882384472060656 0
0.2962530602383894 0.5625176989786835 0
0.2689559989425225 0.5781835426482447 0
0.5932506352799436 0.1362013237283476 0
0.5939795348660503 0.1719980745343435 0
0.2161203839555241 0.1371115956713531 0
0.2130948506354897 0.26646499963171 0
0.2135088881500259 0.234716767840042 0
0.48579743121644 0.5156250254844442 0
0.4857974473638493 0.4843750534525772 0
0.4587341318389921 0.5312500159422572 0
0.4587341419350518 0.468750033429145 0
0.4316708385366917 0.4843750169225338 0
0.4857974173991788 0.6406250015522468 0
0.4587569348502778 0.7187104887773164 0
0.3774300379619281 0.6406827253328519 0
0.3774300379523389 0.6094327253162426 0
0.6481771797910525 0.7343750001359353 0
0.485820228676501 0.7343354887045003 0
0.3776811131405442 0.765387930615387 0
0.3227869798854736 0.6722118205379461 0
0.3504809473170841 0.2187500002691808 0
0.3234176533529509 0.2031250001031297 0
0.8105569429228104 0.7968750000011415 0
0.1630802521780972 0.766905529710328 0
0.3761853105016453 0.1430553755674522 0
0.8646835306626237 0.5781250000068306 0
0.455961597419706 0.1600065957911018 0
0.4825985486080608 0.1451200429626286 0
0.485371073836374 0.1726134471945495 0
0.1118985100962629 0.1363808513525206 0
0.7023041914120938 0.4843757343254484 0
0.4316708383027782 0.5156250165173839 0
0.3775442434077327 0.4531250041184662 0
0.3775442421898246 0.4218750020089873 0
0.2423167331135639 0.2189040857079201 0
0.431670828919662 0.2343750002653479 0
0.7020566500558063 0.8283418364305506 0
0.5940595877599693 0.7343594193623992 0
0.6211138859167842 0.7500000001255349 0
0.7293673873528732 0.5000005647100703 0
0.2127830155895688 0.2978329873267691 0
0.2963110497207056 0.3125233336016325 0
0.485797170063806 0.3593757127337895 0
0.4857974730817672 0.3906250979973169 0
0.4857971623066876 0.3281256992980661 0
0.3775442424112365 0.3906250023924838 0
0.4046075376079707 0.3750000046934623 0
0.3233743439609238 0.328148334245877 0
0.3775442432254367 0.4843750038027204 0
0.3504809474398085 0.4687500004817475 0
0.3226727767036354 0.6410195456736347 0
0.3503667440238402 0.6563077252119127 0
0.2153759250823726 0.390892417435106 0
0.3770617978594136 0.7950120831091805 0
0.3498616319012728 0.7796241525297047 0
0.2419472507993974 0.593799012444878 0
0.1657108225941589 0.8585017376801752 0
0.1405395678035995 0.8432288396200436 0
0.6481772551725797 0.2968899452272719 0
0.2394070074246512 0.7223353603488103 0
0.566904424573816 0.2188936327308453 0
0.5939661796826884 0.2032728049952627 0
0.9730841653166997 0.1721304068003993 0
0.9730841653166997 0.1408804068003993 0
0.9729367061317363 0.203125 0
0.9729371274360241 0.4218757297204323 0
0.9729367061318135 0.4843750000001341 0
0.9729367061318135 0.4531250000001341 0
0.9729367061317362 0.5156250000000001 0
0.9730841653166992 0.859119593199601 0
0.9730841653166992 0.827869593199601 0
0.8877554494044558 0.9716969610174753 0
0.9190054494044558 0.9716969610174753 0
0.7659684156715133 0.972229612721651 0
0.7972184156715133 0.972229612721651 0
0.6762219667784422 0.9705903129589856 0
0.5157942562813462 0.9729840421586711 0
0.484375 0.9735230705984401 0
0.5001692562813462 0.9465071127571112 0
0.1683044862251808 0.9690977170505833 0
0.1833344005960443 0.9421395395761334 0
0.07558395303144638 0.9747214473770053 0
0.8109201322181082 0.2350040623133576 0
0.7823068845315758 0.2142777320811082 0
0.8096129940321356 0.199073301093117 0
0.7551834038314832 0.1985484854304336 0
0.323417653665362 0.2968750006442423 0
0.6211005306609467 0.1875247304609183 0
0.3503308272847096 0.5938202964558834 0
0.4281111492490832 0.1456419104701648 0
0.2133418679850638 0.6095864075575342 0
0.4046075389594473 0.5000000070342893 0
0.3233349831146655 0.5468957400574007 0
0.323327190851141 0.5781471014854482 0
0.8646835306631365 0.6093750000077189 0
0.3232489044084335 0.6094422553771661 0
0.05367918969704011 0.6970873507406208 0
0.7005041519253102 0.1430083631738678 0
0.1889110354304692 0.6208034055069791 0
0.2147255880788002 0.3285735229433365 0
0.1881336006364093 0.3755759403919576 0
0.2150639814494034 0.3596835230389096 0
0.09494951098603455 0.07412073170278261 0
0.1204157578922924 0.05619190982533118 0
0.07588373715414143 0.8696234085406641 0
0.07264009996999848 0.9028292177724723 0
0.05088295055238445 0.8769558092318082 0
0.4474978275390874 0.109593866107645 0
0.47425467112575 0.1158819040639671 0
0.1007346933357548 0.8701973391417769 0
0.07897754391814077 0.8443239306011128 0
0.163220168987691 0.391025487615457 0
0.1629082253547219 0.3598165932192606 0
0.112865549871645 0.3866189724011287 0
0.1359462363179917 0.4066077016051491 0
0.134357351219982 0.3449060230366227 0
0.4052037278570852 0.8120454989920348 0
0.3773842466178139 0.8262817209063525 0
0.9474403503295793 0.8737931964654845 0
0.9478528695822155 0.1267533548206914 0
0.108031842558306 0.02554606929800546 0
0.076781842558306 0.02554606929800546 0
0.02381965668412073 0.8925808092318082 0
0.02381965668412073 0.9238308092318082 0
0.9747687042655159 0.1108729480202921 0
0.9747687042655159 0.07962294802029213 0
0.9743561850128801 0.9209236032658836 0
0.9743561850128801 0.8896736032658836 0
0.04780846578532255 0.1828152732198703 0
0.06042915782684521 0.150720549112686 0
0.04550292155609104 0.8136465003505162 0
0.06176391079686278 0.788397317985665 0
0.07038757697729914 0.8185008176351488 0
0.04492865447940919 0.4972019406005948 0
0.09523853315891251 0.8190747482362617 0
0.04323713172323773 0.1273138933727038 0
0.06791492223516404 0.1227294525684927 0
0.04198803866200213 0.3841568343832773 0
0.06642273042356533 0.3765882346060088 0
0.04761911283069942 0.7563813861504257 0
0.8409158581707383 0.1885522285720442 0
0.8679504017566975 0.1728774316223608 0
0.8700638345713757 0.1428681284016075 0
0.2970648513131432 0.9224056270353289 0
0.3283016050110307 0.9222817266785119 0
0.3437217641951622 0.8978386518218617 0
0.4680320909987175 0.8970669151502925 0
0.4836570909987179 0.9220731366277404 0
0.376619726412852 0.8508566429402461 0
0.3484777964151805 0.8338232270573918 0
0.6233807857689699 0.8710736141565756 0
0.6219295570736358 0.1284375091487261 0
0.2025299143708634 0.9228374338657914 0
0.3900450011897618 0.8705747876801395 0
0.4215130883077423 0.8701744175155957 0
0.4330561656900789 0.8259579566403494 0
0.2177969391340201 0.6362169979494425 0
0.024499704554168 0.6762274649407112 0
0.7503434156715133 0.9517862072429319 0
0.503664147542418 0.1284887554674148 0
0.3001786154862447 0.1310844946405083 0
0.07477911649350688 0.09823606081903236 0
0.09197114259711436 0.1216427165590145 0
0.6982841462245893 0.1769224690882785 0
0.7258455133911011 0.1916829310507978 0
0.8584747558636123 0.9794738827191982 0
0.8272247558636123 0.9794738827191982 0
0.4005525858523817 0.1319203012264616 0
0.4256305087946913 0.1187915823154778 0
0.3611385509871283 0.8781162938311787 0
0.734375 0.979556594521281 0
0.703125 0.979556594521281 0
0.1658216283317137 0.7418153713828392 0
0.09051398164006474 0.3724876942835637 0
0.9771234122634725 0.05412658773652745 0
0.9771234122634725 0.02287658773652745 0
0.9771234122634725 0.9771234122634725 0
0.9771234122634725 0.9458734122634725 0
0.9458734122634725 0.9771234122634725 0
0.02287658773652745 0.9771234122634725 0
0.05412658773652745 0.9771234122634725 0
0.9458734122634725 0.02287658773652745 0
0.02287658773652745 0.9458734122634725 0
0.05412658773652745 0.02287658773652745 0
0.02287658773652745 0.02287658773652745 0
0.02287658773652745 0.05412658773652745 0
0.1875191828286413 0.1293408311227732 0
0.2200079604441243 0.744221420912346 0
0.193229311810183 0.7603850649509303 0
0.02192266938376086 0.5692211772102084 0
0.01843962768782731 0.7980215003505162 0
0.01690443525427909 0.484375 0
0.01787568365745945 0.1714024949584486 0
0.01787568365745945 0.1401524949584486 0
0.01943346125707995 0.3940545019570172 0
0.01843962768782731 0.7667715003505162 0
0.1207935872353607 0.8290510325409797 0
0.4350253530026421 0.8504043104535393 0
0.4510122646948989 0.8772635911799281 0
0.4625553420772355 0.8330471303046818 0
0.1156432254744235 0.361134862325195 0
0.8486258758512024 0.1310700055134338 0
0.9514795972763527 0.9292970155293562 0
0.04669624442064813 0.9322042214952808 0
0.0684084302948334 0.04842265703453286 0
0.9518921165289884 0.07124953575681958 0
0.4815443556936173 0.8772968080882361 0
0.4199392641423859 0.09587225686394185 0
0.04823803580230573 0.07253798615078266 0
0.9273788616679284 0.9488203732809479 0
0.9272669630164241 0.05389156582910709 0
0.06721054076797384 0.9518448596404778 0
0.3302964894182525 0.8781205070819682 0
0.3220338178176798 0.8510740745456414 0
0.8311431931931909 0.1093097895305977 0
0.4882598608704005 0.8492970731598806 0
0.01943346125707995 0.4253045019570172 0
0.01690443525427909 0.453125 0
0.1235744806679929 0.8590756682812895 0
0.4262818067069792 0.06868330965547054 0
0.06815360971556711 0.9298022566088135 0
0.07089329062408428 0.07520746771226072 0
$EndNodes
$Elements
5 674 1 674
1 1 8 16
1 1 5 20 
2 5 6 21 
3 6 7 22 
4 7 8 23 
5 8 9 24 
6 9 10 25 
7 10 11 26 
8 11 12 27 
9 12 13 28 
10 13 14 29 
11 14 15 30 
12 15 16 31 
13 16 17 32 
14 17 18 33 
15 18 19 34 
16 19 2 35 
1 2 8 16
17 2 36 51 
18 36 37 52 
19 37 38 53 
20 38 39 54 
21 39 40 55 
22 40 41 56 
23 41 42 57 
24 42 43 58 
25 43 44 59 
26 44 45 60 
27 45 46 61 
28 46 47 62 
29 47 48 63 
30 48 49 64 
31 49 50 65 
32 50 3 66 
1 3 8 16
33 3 67 82 
34 67 68 83 
35 68 69 84 
36 69 70 85 
37 70 71 86 
38 71 72 87 
39 72 73 88 
40 73 74 89 
41 74 75 90 
42 75 76 91 
43 76 77 92 
44 77 78 93 
45 78 79 94 
46 79 80 95 
47 80 81 96 
48 81 4 97 
1 4 8 16
49 4 98 113 
50 98 99 114 
51 99 100 115 
52 100 101 116 
53 101 102 117 
54 102 103 118 
55 103 104 119 
56 104 105 120 
57 105 106 121 
58 106 107 122 
59 107 108 123 
60 108 109 124 
61 109 110 125 
62 110 111 126 
63 111 112 127 
64 112 1 128 
2 1 9 610
65 258 275 144 403 404 405 
66 259 271 132 406 407 408 
67 272 280 273 409 410 411 
68 255 275 254 412 413 414 
69 238 271 220 415 416 417 
70 280 378 273 418 419 410 
71 325 326 225 420 421 422 
72 144 274 258 423 424 405 
73 132 270 259 425 426 408 
74 262 277 137 427 428 429 
75 137 280 262 430 431 429 
76 136 324 307 432 433 434 
77 324 325 307 435 436 433 
78 218 319 250 437 438 439 
79 265 279 134 440 441 442 
80 310 331 139 443 444 445 
81 276 397 282 446 447 448 
82 312 313 244 449 450 451 
83 334 335 246 452 453 454 
84 276 282 275 448 455 456 
85 254 275 258 413 403 457 
86 220 271 259 416 406 458 
87 269 283 150 459 460 461 
88 255 276 275 462 456 412 
89 238 272 271 463 464 415 
90 272 281 280 465 466 409 
91 248 319 218 467 437 468 
92 279 384 134 469 470 441 
93 313 372 244 471 472 450 
94 272 377 281 473 474 465 
95 139 380 310 475 476 445 
96 282 397 135 447 477 478 
97 225 381 325 479 480 422 
98 246 379 334 481 482 454 
99 143 326 325 483 420 484 
100 143 325 324 484 435 485 
101 150 382 269 486 487 461 
102 319 375 250 488 489 438 
103 326 370 225 490 491 421 
104 268 269 142 492 493 494 
105 332 383 256 495 496 497 
106 148 398 263 498 499 500 
107 270 392 278 501 502 503 
108 270 393 392 504 505 501 
109 18 327 17 506 507 33 
110 244 374 312 508 509 451 
111 335 373 246 510 511 453 
112 266 401 149 512 513 514 
113 264 400 146 515 516 517 
114 142 279 268 518 519 494 
115 283 367 150 520 521 460 
116 149 366 266 522 523 514 
117 310 376 331 524 525 443 
118 333 383 332 526 495 527 
119 263 375 148 528 529 500 
120 146 376 264 530 531 517 
121 149 327 18 532 506 533 
122 17 327 143 507 534 535 
123 275 282 144 455 536 404 
124 272 273 271 411 537 464 
125 109 282 108 538 539 124 
126 149 401 327 513 540 532 
127 273 378 103 419 541 542 
128 320 398 148 543 498 544 
129 244 372 245 472 545 546 
130 256 380 332 547 548 497 
131 134 374 265 549 550 442 
132 307 373 136 551 552 434 
133 271 396 132 553 554 407 
134 255 363 276 555 556 462 
135 281 377 215 474 557 558 
136 143 327 326 534 559 483 
137 279 361 268 560 561 519 
138 265 361 279 562 560 440 
139 103 396 273 563 564 542 
140 144 282 109 536 538 565 
141 108 282 135 539 478 566 
142 280 281 262 466 567 431 
143 215 399 281 568 569 558 
144 269 382 142 487 570 493 
145 379 402 129 571 572 573 
146 248 371 319 574 575 467 
147 283 295 147 576 577 578 
148 284 311 295 579 580 581 
149 295 311 147 580 582 577 
150 138 311 284 583 579 584 
151 46 286 45 585 586 61 
152 284 285 138 587 588 584 
153 286 350 45 589 590 586 
154 138 286 46 591 585 592 
155 285 286 138 593 591 588 
156 45 350 44 590 594 60 
157 287 288 130 595 596 597 
158 288 349 130 598 599 596 
159 230 303 297 600 601 602 
160 130 350 287 603 604 597 
161 208 353 300 605 606 607 
162 228 353 208 608 605 609 
163 297 303 133 601 610 611 
164 293 298 230 612 613 614 
165 290 349 288 615 598 616 
166 286 362 350 617 618 589 
167 41 359 133 619 620 621 
168 44 350 130 594 603 622 
169 133 359 297 620 623 611 
170 141 154 153 624 625 626 
171 292 355 188 627 628 629 
172 198 300 216 630 631 632 
173 305 306 206 633 634 635 
174 224 361 212 636 637 638 
175 285 362 286 639 617 593 
176 209 291 229 640 641 642 
177 226 265 242 643 644 645 
178 223 357 253 646 647 648 
179 230 297 293 602 649 614 
180 234 330 232 650 651 652 
181 292 298 293 653 612 654 
182 197 300 198 655 630 656 
183 208 300 197 607 655 657 
184 213 323 248 658 659 660 
185 305 328 301 661 662 663 
186 301 328 189 662 664 665 
187 180 191 185 666 667 668 
188 186 217 181 669 670 671 
189 291 292 289 672 673 674 
190 200 329 194 675 676 677 
191 249 321 195 678 679 680 
192 296 338 191 681 682 683 
193 229 289 288 684 685 686 
194 232 330 304 651 687 688 
195 241 269 268 689 492 690 
196 289 293 290 691 692 693 
197 153 266 152 694 695 696 
198 181 309 173 697 698 699 
199 177 179 176 700 701 702 
200 176 296 180 703 704 705 
201 182 190 178 706 707 708 
202 184 187 179 709 710 711 
203 179 337 296 712 713 714 
204 188 355 308 628 715 716 
205 219 345 199 717 718 719 
206 294 329 200 720 675 721 
207 306 339 206 722 723 634 
208 340 341 210 724 725 726 
209 216 224 212 727 638 728 
210 213 248 218 660 468 729 
211 217 356 309 730 731 732 
212 217 358 356 733 734 730 
213 259 260 219 735 736 737 
214 284 295 227 581 738 739 
215 245 352 243 740 741 742 
216 252 310 251 743 744 745 
217 291 355 292 746 627 672 
218 156 303 230 747 600 748 
219 164 308 299 749 750 751 
220 166 167 165 752 753 754 
221 166 299 169 755 756 757 
222 168 171 167 758 759 760 
223 173 309 170 698 761 762 
224 172 177 176 763 702 764 
225 177 184 179 765 711 700 
226 180 296 191 704 683 666 
227 184 197 187 766 767 709 
228 189 330 301 768 769 665 
229 192 340 210 770 726 771 
230 198 216 212 632 728 772 
231 226 235 205 773 774 775 
232 207 336 236 776 777 778 
233 229 291 289 641 674 684 
234 243 352 338 741 779 780 
235 141 302 154 781 782 624 
236 169 344 172 783 784 785 
237 201 321 237 786 787 788 
238 297 359 290 623 789 790 
239 154 155 153 791 792 625 
240 194 329 182 676 793 794 
241 232 304 196 688 795 796 
242 227 295 241 738 797 798 
243 241 283 269 799 459 689 
244 289 290 288 693 616 685 
245 290 359 349 789 800 615 
246 348 360 322 801 802 803 
247 39 302 141 804 781 805 
248 47 311 138 806 583 807 
249 72 312 134 808 809 810 
250 73 313 312 811 449 812 
251 75 314 131 813 814 815 
252 76 317 314 816 817 818 
253 78 318 140 819 820 821 
254 80 320 148 822 544 823 
255 154 156 155 824 825 791 
256 302 303 154 826 827 782 
257 156 158 157 828 829 830 
258 158 160 159 831 832 833 
259 230 298 158 613 834 835 
260 206 339 159 723 836 837 
261 160 162 161 838 839 840 
262 162 164 163 841 842 843 
263 188 308 162 716 844 845 
264 189 328 163 664 846 847 
265 164 166 165 848 754 849 
266 166 168 167 850 760 752 
267 169 170 168 851 852 853 
268 172 173 170 854 762 855 
269 171 346 175 856 857 858 
270 172 344 177 784 859 763 
271 176 180 173 705 860 861 
272 178 304 174 862 863 864 
273 179 296 176 714 703 701 
274 177 336 184 865 866 765 
275 190 196 178 867 868 707 
276 187 337 179 869 712 710 
277 217 309 181 732 697 670 
278 183 195 194 870 871 872 
279 184 207 197 873 874 766 
280 185 192 186 875 876 877 
281 198 205 187 878 879 880 
282 188 298 292 881 653 629 
283 189 342 330 882 883 768 
284 338 352 191 779 884 682 
285 192 202 193 885 886 887 
286 204 211 196 888 889 890 
287 201 220 219 891 892 893 
288 202 213 203 894 895 896 
289 215 348 203 897 898 899 
290 204 357 223 900 646 901 
291 212 226 205 902 775 903 
292 206 328 305 904 661 635 
293 207 209 208 905 906 907 
294 209 229 228 642 908 909 
295 236 291 209 910 640 911 
296 222 354 211 912 913 914 
297 216 231 227 915 916 917 
298 251 256 222 918 919 920 
299 241 268 224 690 921 922 
300 226 242 235 645 923 773 
301 229 288 287 686 595 924 
302 231 285 284 925 587 926 
303 300 353 231 606 927 928 
304 301 330 234 769 650 929 
305 239 246 240 930 931 932 
306 241 295 283 797 576 799 
307 242 244 243 933 934 935 
308 341 352 245 936 740 937 
309 247 307 306 938 939 940 
310 356 358 249 734 941 942 
311 253 357 294 647 943 944 
312 270 278 260 503 945 946 
313 353 362 285 947 639 948 
314 350 362 287 618 949 604 
315 292 293 289 654 691 673 
316 293 297 290 649 790 692 
317 343 344 299 950 951 952 
318 314 316 315 953 954 955 
319 172 176 173 764 861 854 
320 177 344 336 859 956 865 
321 185 186 181 877 671 957 
322 192 193 186 887 958 876 
323 202 203 193 896 959 886 
324 213 214 203 960 961 895 
325 218 221 214 962 963 964 
326 215 360 348 965 801 897 
327 243 338 235 780 966 967 
328 336 343 236 968 969 777 
329 259 270 260 426 946 735 
330 308 343 299 970 952 750 
331 340 352 341 971 936 724 
332 16 324 15 972 973 31 
333 156 230 158 748 835 828 
334 159 339 157 836 974 975 
335 158 298 160 834 976 831 
336 161 206 159 977 837 978 
337 160 188 162 979 845 838 
338 162 308 164 844 749 841 
339 165 189 163 980 847 981 
340 164 299 166 751 755 848 
341 167 342 165 982 983 753 
342 166 169 168 757 853 850 
343 169 172 170 785 855 851 
344 190 204 196 984 890 867 
345 199 200 194 985 677 986 
346 201 219 199 893 719 987 
347 201 237 220 788 988 891 
348 211 354 233 913 989 990 
349 254 257 252 991 992 993 
350 254 258 257 457 994 991 
351 258 264 257 995 996 994 
352 314 317 316 817 997 953 
353 15 324 136 973 432 998 
354 40 302 39 999 804 55 
355 48 311 47 1000 806 63 
356 77 317 76 1001 816 92 
357 79 318 78 1002 819 94 
358 314 315 131 955 1003 814 
359 141 153 152 626 696 1004 
360 195 321 201 679 786 1005 
361 250 261 221 1006 1007 1008 
362 261 277 262 1009 427 1010 
363 7 146 6 1011 1012 22 
364 8 331 7 1013 1014 23 
365 7 331 146 1014 1015 1011 
366 9 139 8 1016 1017 24 
367 139 331 8 444 1013 1017 
368 10 332 9 1018 1019 25 
369 9 332 139 1019 1020 1016 
370 11 333 10 1021 1022 26 
371 10 333 332 1022 527 1018 
372 12 129 11 1023 1024 27 
373 129 333 11 1025 1021 1024 
374 13 334 12 1026 1027 28 
375 12 334 129 1027 1028 1023 
376 14 335 13 1029 1030 29 
377 13 335 334 1030 452 1026 
378 15 136 14 998 1031 30 
379 136 335 14 1032 1029 1031 
380 17 143 16 535 1033 32 
381 19 149 18 1034 533 34 
382 133 302 40 1035 999 1036 
383 140 317 77 1037 1001 1038 
384 100 145 99 1039 1040 115 
385 102 137 101 1041 1042 117 
386 105 132 104 1043 1044 120 
387 108 135 107 566 1045 123 
388 110 144 109 1046 565 125 
389 112 151 111 1047 1048 127 
390 318 319 140 1049 1050 820 
391 158 159 157 833 975 829 
392 160 298 188 976 881 979 
393 162 163 161 843 1051 839 
394 165 342 189 983 882 980 
395 171 175 174 858 1052 1053 
396 196 304 178 795 862 868 
397 183 194 182 872 794 1054 
398 195 199 194 1055 986 871 
399 218 250 221 439 1008 962 
400 260 345 219 1056 717 736 
401 237 238 220 1057 417 988 
402 223 252 251 1058 745 1059 
403 233 234 232 1060 652 1061 
404 239 240 234 932 1062 1063 
405 321 322 237 1064 1065 787 
406 246 247 240 1066 1067 931 
407 257 310 252 1068 743 992 
408 253 255 254 1069 414 1070 
409 143 324 16 485 972 1033 
410 170 347 168 1071 1072 852 
411 309 347 170 1073 1071 761 
412 171 347 346 1074 1075 856 
413 180 181 173 1076 699 860 
414 185 340 192 1077 770 875 
415 186 351 217 1078 1079 669 
416 205 337 187 1080 869 879 
417 191 352 340 884 971 1081 
418 192 210 202 771 1082 885 
419 203 348 193 898 1083 959 
420 207 208 197 907 657 874 
421 204 222 211 1084 914 888 
422 204 223 222 901 1085 1084 
423 209 228 208 909 609 906 
424 216 227 224 917 1086 727 
425 261 262 221 1010 1087 1007 
426 223 251 222 1059 920 1085 
427 256 354 222 1088 912 919 
428 229 287 228 924 1089 908 
429 233 267 239 1090 1091 1092 
430 242 243 235 935 967 923 
431 244 245 243 546 742 934 
432 258 274 264 424 1093 995 
433 308 355 343 715 1094 970 
434 309 356 347 731 1095 1073 
435 336 344 343 956 950 968 
436 175 346 183 857 1096 1097 
437 216 300 231 631 928 915 
438 220 259 219 458 737 892 
439 253 254 252 1070 993 1098 
440 211 232 196 1099 796 889 
441 226 361 265 1100 562 643 
442 235 338 337 966 1101 1102 
443 236 355 291 1103 746 910 
444 253 294 255 944 1104 1069 
445 294 357 329 943 1105 720 
446 174 342 167 1106 982 1107 
447 168 347 171 1072 1074 758 
448 304 342 174 1108 1106 863 
449 175 182 178 1109 708 1110 
450 175 183 182 1097 1054 1109 
451 180 185 181 668 957 1076 
452 182 329 190 793 1111 706 
453 183 346 249 1096 1112 1113 
454 191 340 185 1081 1077 667 
455 348 351 193 1114 1115 1083 
456 195 201 199 1005 987 1055 
457 199 345 200 718 1116 985 
458 210 323 202 1117 1118 1082 
459 211 233 232 990 1061 1099 
460 213 218 214 729 964 960 
461 223 253 252 648 1098 1058 
462 233 239 234 1092 1063 1060 
463 322 360 237 802 1119 1065 
464 250 263 261 1120 1121 1006 
465 133 303 302 610 826 1035 
466 163 328 161 846 1122 1051 
467 171 174 167 1053 1107 759 
468 299 344 169 951 783 756 
469 175 178 174 1110 864 1052 
470 183 249 195 1113 680 870 
471 184 336 207 866 776 873 
472 197 198 187 656 880 767 
473 198 212 205 772 903 878 
474 202 323 213 1118 658 894 
475 214 215 203 1123 899 961 
476 235 337 205 1102 1080 774 
477 207 236 209 778 911 905 
478 212 361 226 637 1100 902 
479 231 353 285 927 948 925 
480 240 301 234 1124 929 1062 
481 240 305 301 1125 663 1124 
482 38 152 37 1126 1127 53 
483 39 141 38 805 1128 54 
484 141 152 38 1004 1126 1128 
485 41 133 40 621 1036 56 
486 42 359 41 1129 619 57 
487 43 349 42 1130 1131 58 
488 44 130 43 622 1132 59 
489 47 138 46 807 592 62 
490 49 147 48 1133 1134 64 
491 147 311 48 582 1000 1134 
492 68 150 67 1135 1136 83 
493 70 142 69 1137 1138 85 
494 72 134 71 810 1139 87 
495 73 312 72 812 808 88 
496 74 313 73 1140 811 89 
497 75 131 74 815 1141 90 
498 131 313 74 1142 1140 1141 
499 76 314 75 818 813 91 
500 78 140 77 821 1038 93 
501 80 148 79 823 1143 95 
502 148 318 79 1144 1002 1143 
503 81 320 80 1145 822 96 
504 154 303 156 827 747 824 
505 156 157 155 830 1146 825 
506 157 225 155 1147 1148 1146 
507 157 339 225 974 1149 1147 
508 329 357 190 1105 1150 1111 
509 160 161 159 840 978 832 
510 161 328 206 1122 904 977 
511 164 165 163 849 981 842 
512 190 357 204 1150 900 984 
513 247 305 240 1151 1125 1067 
514 247 306 305 940 633 1151 
515 330 342 304 883 1108 687 
516 351 358 217 1152 733 1079 
517 231 284 227 926 739 916 
518 233 354 267 989 1153 1090 
519 227 241 224 798 922 1086 
520 237 360 238 1119 1154 1057 
521 130 349 43 599 1130 1132 
522 343 355 236 1094 1103 969 
523 346 356 249 1155 942 1112 
524 337 338 296 1101 681 713 
525 347 356 346 1095 1155 1075 
526 249 358 321 941 1156 678 
527 321 358 322 1156 1157 1064 
528 268 361 224 561 636 921 
529 228 362 353 1158 947 608 
530 322 351 348 1159 1114 803 
531 349 359 42 800 1129 1131 
532 322 358 351 1157 1152 1159 
533 193 351 186 1115 1078 958 
534 287 362 228 949 1158 1089 
535 137 378 280 1160 418 430 
536 273 396 271 564 553 537 
537 325 381 307 480 1161 436 
538 238 377 272 1162 473 463 
539 294 363 255 1163 555 1104 
540 345 363 200 1164 1165 1116 
541 146 400 368 516 1166 1167 
542 145 398 369 1168 1169 1170 
543 267 402 379 1171 571 1172 
544 200 363 294 1165 1163 721 
545 395 398 145 1173 1168 1174 
546 345 364 363 1175 1176 1164 
547 278 364 260 1177 1178 945 
548 363 364 276 1176 1179 556 
549 210 365 323 1180 1181 1117 
550 147 367 283 1182 520 578 
551 266 366 152 523 1183 695 
552 6 368 5 1184 1185 21 
553 99 369 98 1186 1187 114 
554 37 366 36 1188 1189 52 
555 50 367 49 1190 1191 65 
556 144 391 274 1192 1193 423 
557 145 394 277 1194 1195 1196 
558 132 393 270 1197 504 425 
559 277 395 145 1198 1174 1196 
560 274 391 151 1193 1199 1200 
561 278 392 135 502 1201 1202 
562 277 394 137 1195 1203 428 
563 225 370 155 491 1204 1148 
564 153 370 266 1205 1206 694 
565 319 371 140 575 1207 1050 
566 317 371 316 1208 1209 997 
567 315 372 131 1210 1211 1003 
568 260 364 345 1178 1175 1056 
569 365 389 323 1212 1213 1181 
570 242 374 244 1214 508 933 
571 246 373 247 511 1215 1066 
572 318 375 319 1216 488 1049 
573 316 365 315 1217 1218 954 
574 341 365 210 1219 1180 725 
575 332 380 139 548 475 1020 
576 215 377 360 557 1220 965 
577 146 368 6 1167 1184 1012 
578 152 366 37 1183 1188 1127 
579 145 369 99 1170 1186 1040 
580 49 367 147 1191 1182 1133 
581 103 378 102 541 1221 118 
582 142 384 279 1222 469 518 
583 239 379 246 1223 481 930 
584 310 380 251 476 1224 744 
585 151 400 274 1225 1226 1200 
586 307 381 306 1161 1227 939 
587 339 381 225 1228 479 1149 
588 68 382 150 1229 486 1135 
589 142 382 69 570 1230 1138 
590 354 383 267 1231 1232 1153 
591 316 389 365 1233 1212 1217 
592 70 384 142 1234 1222 1137 
593 134 384 71 470 1235 1139 
594 334 379 129 482 573 1028 
595 281 399 262 569 1236 567 
596 135 397 278 477 1237 1202 
597 36 388 2 1238 1239 51 
598 3 387 50 1240 1241 66 
599 67 387 3 1242 1240 82 
600 4 385 81 1243 1244 97 
601 2 388 19 1239 1245 35 
602 98 385 4 1246 1243 113 
603 5 386 1 1247 1248 20 
604 1 386 112 1248 1249 128 
605 257 376 310 1250 524 1068 
606 214 399 215 1251 568 1123 
607 262 399 221 1236 1252 1087 
608 104 396 103 1253 563 119 
609 100 394 145 1254 1194 1039 
610 105 393 132 1255 1197 1043 
611 110 391 144 1256 1192 1046 
612 151 391 111 1199 1257 1048 
613 135 392 107 1201 1258 1045 
614 137 394 101 1203 1259 1042 
615 261 395 277 1260 1198 1009 
616 250 375 263 489 528 1120 
617 264 376 257 531 1250 996 
618 155 370 153 1204 1205 792 
619 140 371 317 1207 1208 1037 
620 131 372 313 1211 471 1142 
621 312 374 134 509 549 809 
622 265 374 242 550 1214 644 
623 247 373 307 1215 551 938 
624 136 373 335 552 510 1032 
625 148 375 318 529 1216 1144 
626 331 376 146 525 530 1015 
627 365 390 315 1261 1262 1218 
628 341 390 365 1263 1261 1219 
629 360 377 238 1220 1162 1154 
630 102 378 137 1221 1160 1041 
631 274 400 264 1226 515 1093 
632 267 379 239 1172 1223 1091 
633 278 397 364 1237 1264 1177 
634 251 380 256 1224 547 918 
635 306 381 339 1227 1228 722 
636 69 382 68 1230 1229 84 
637 370 401 266 1265 512 1206 
638 256 383 354 496 1231 1088 
639 71 384 70 1235 1234 86 
640 50 387 367 1241 1266 1190 
641 369 385 98 1267 1246 1187 
642 368 386 5 1268 1247 1185 
643 366 388 36 1269 1238 1189 
644 315 390 372 1262 1270 1210 
645 383 402 267 1271 1171 1232 
646 112 386 151 1249 1272 1047 
647 150 387 67 1273 1242 1136 
648 19 388 149 1245 1274 1034 
649 81 385 320 1244 1275 1145 
650 371 389 316 1276 1233 1209 
651 323 389 248 1213 1277 659 
652 327 401 326 540 1278 559 
653 245 390 341 1279 1263 937 
654 111 391 110 1257 1256 126 
655 107 392 106 1258 1280 122 
656 392 393 106 505 1281 1280 
657 106 393 105 1281 1255 121 
658 101 394 100 1259 1254 116 
659 263 395 261 1282 1260 1121 
660 132 396 104 554 1253 1044 
661 221 399 214 1252 1251 963 
662 129 402 333 572 1283 1025 
663 326 401 370 1278 1265 490 
664 367 387 150 1266 1273 521 
665 320 385 369 1275 1267 1284 
666 149 388 366 1274 1269 522 
667 151 386 368 1272 1268 1285 
668 364 397 276 1264 446 1179 
669 372 390 245 1270 1279 545 
670 369 398 320 1169 543 1284 
671 368 400 151 1166 1225 1285 
672 248 389 371 1277 1276 574 
673 263 398 395 499 1173 1282 
674 333 402 383 1283 1271 526 
$EndElements
