$MeshFormat
4.1 0 8
$EndMeshFormat
$PhysicalNames
3
1 1 "Boundary 1"
1 2 "Boundary 2"
2 3 "Surface Rect"
$EndPhysicalNames
$Entities
4 4 1 0
1 0 0 0 0 
2 1 0 0 0 
3 1 1 0 0 
4 0 1 0 0 
7 0 0 0 1 0 0 1 1 2 1 -2 
8 1 0 0 1 1 0 1 1 2 2 -3 
9 0 1 0 1 1 0 1 2 2 3 -4 
10 0 0 0 0 1 0 1 2 2 4 -1 
16 0 0 0 1 1 0 1 3 4 7 8 9 10 
$EndEntities
$Nodes
9 25 1 25
0 1 0 1
1
0 0 0
0 2 0 1
2
1 0 0
0 3 0 1
3
1 1 0
0 4 0 1
4
0 1 0
1 7 0 3
5
6
7
0.2499999999994109 0 0
0.4999999999986921 0 0
0.7499999999993406 0 0
1 8 0 3
8
9
10
1 0.2499999999994109 0
1 0.4999999999986921 0
1 0.7499999999993406 0
1 9 0 3
11
12
13
0.7500000000003471 1 0
0.5000000000020595 1 0
0.2500000000010405 1 0
1 10 0 3
14
15
16
0 0.7500000000003471 0
0 0.5000000000020595 0
0 0.2500000000010405 0
2 16 0 9
17
18
19
20
21
22
23
24
25
0.2499999999998184 0.2500000000006332 0
0.2500000000002257 0.5000000000012177 0
0.2500000000006332 0.7500000000000954 0
0.4999999999995339 0.2500000000002257 0
0.5000000000003757 0.5000000000003757 0
0.5000000000012177 0.749999999999844 0
0.7499999999995922 0.2499999999998184 0
0.749999999999844 0.4999999999995339 0
0.7500000000000953 0.7499999999995921 0
$EndNodes
$Elements
5 32 1 32
1 7 1 4
1 1 5 
2 5 6 
3 6 7 
4 7 2 
1 8 1 4
5 2 8 
6 8 9 
7 9 10 
8 10 3 
1 9 1 4
9 3 11 
10 11 12 
11 12 13 
12 13 4 
1 10 1 4
13 4 14 
14 14 15 
15 15 16 
16 16 1 
2 16 3 16
17 1 5 17 16 
18 16 17 18 15 
19 15 18 19 14 
20 14 19 13 4 
21 5 6 20 17 
22 17 20 21 18 
23 18 21 22 19 
24 19 22 12 13 
25 6 7 23 20 
26 20 23 24 21 
27 21 24 25 22 
28 22 25 11 12 
29 7 2 8 23 
30 23 8 9 24 
31 24 9 10 25 
32 25 10 3 11 
$EndElements
