$MeshFormat
4.1 0 8
$EndMeshFormat
$Entities
4 4 1 0
1 0 0 0 0 
2 1 0 0 0 
3 1 1 0 0 
4 0 1 0 0 
1 -9.999999994736442e-08 -1e-07 -1e-07 1.0000001 1e-07 1e-07 1 1 2 1 -2 
2 0.9999999000000001 -9.999999994736442e-08 -1e-07 1.0000001 1.0000001 1e-07 1 2 2 2 -3 
3 -9.999999994736442e-08 0.9999999000000001 -1e-07 1.0000001 1.0000001 1e-07 1 2 2 3 -4 
4 -1e-07 -9.999999994736442e-08 -1e-07 1e-07 1.0000001 1e-07 1 2 2 4 -1 
1 -9.999999994736442e-08 -9.999999994736442e-08 -1e-07 1.0000001 1.0000001 1e-07 1 10 4 1 2 3 4 
$EndEntities
$Nodes
9 338 1 338
0 1 0 1
1
0 0 0
0 2 0 1
2
1 0 0
0 3 0 1
3
1 1 0
0 4 0 1
4
0 1 0
1 1 0 15
5
6
7
8
9
10
11
12
13
14
15
16
17
18
19
0.0625 0 0
0.125 0 0
0.1875 0 0
0.25 0 0
0.3125 0 0
0.375 0 0
0.4375 0 0
0.5 0 0
0.5625 0 0
0.625 0 0
0.6875 0 0
0.75 0 0
0.8125 0 0
0.875 0 0
0.9375 0 0
1 2 0 15
20
21
22
23
24
25
26
27
28
29
30
31
32
33
34
1 0.0625 0
1 0.125 0
1 0.1875 0
1 0.25 0
1 0.3125 0
1 0.375 0
1 0.4375 0
1 0.5 0
1 0.5625 0
1 0.625 0
1 0.6875 0
1 0.75 0
1 0.8125 0
1 0.875 0
1 0.9375 0
1 3 0 15
35
36
37
38
39
40
41
42
43
44
45
46
47
48
49
0.9375 1 0
0.875 1 0
0.8125 1 0
0.75 1 0
0.6875 1 0
0.625 1 0
0.5625 1 0
0.5 1 0
0.4375 1 0
0.375 1 0
0.3125 1 0
0.25 1 0
0.1875 1 0
0.125 1 0
0.0625 1 0
1 4 0 15
50
51
52
53
54
55
56
57
58
59
60
61
62
63
64
0 0.9375 0
0 0.875 0
0 0.8125 0
0 0.75 0
0 0.6875 0
0 0.625 0
0 0.5625 0
0 0.5 0
0 0.4375 0
0 0.375 0
0 0.3125 0
0 0.25 0
0 0.1875 0
0 0.125 0
0 0.0625 0
2 1 0 274
65
66
67
68
69
70
71
72
73
74
75
76
77
78
79
80
81
82
83
84
85
86
87
88
89
90
91
92
93
94
95
96
97
98
99
100
101
102
103
104
105
106
107
108
109
110
111
112
113
114
115
116
117
118
119
120
121
122
123
124
125
126
127
128
129
130
131
132
133
134
135
136
137
138
139
140
141
142
143
144
145
146
147
148
149
150
151
152
153
154
155
156
157
158
159
160
161
162
163
164
165
166
167
168
169
170
171
172
173
174
175
176
177
178
179
180
181
182
183
184
185
186
187
188
189
190
191
192
193
194
195
196
197
198
199
200
201
202
203
204
205
206
207
208
209
210
211
212
213
214
215
216
217
218
219
220
221
222
223
224
225
226
227
228
229
230
231
232
233
234
235
236
237
238
239
240
241
242
243
244
245
246
247
248
249
250
251
252
253
254
255
256
257
258
259
260
261
262
263
264
265
266
267
268
269
270
271
272
273
274
275
276
277
278
279
280
281
282
283
284
285
286
287
288
289
290
291
292
293
294
295
296
297
298
299
300
301
302
303
304
305
306
307
308
309
310
311
312
313
314
315
316
317
318
319
320
321
322
323
324
325
326
327
328
329
330
331
332
333
334
335
336
337
338
0.4701188008632367 0.04946424289454476 0
0.9458734122634723 0.5312500000000001 0
0.46875 0.9470461411968802 0
0.05604843845026014 0.5256538812011896 0
0.9458734122634725 0.3437500000000002 0
0.6649439335568842 0.9411806259179711 0
0.04510915480984434 0.3552046648525202 0
0.6547905325691472 0.05519499204790368 0
0.05835897028574427 0.7292197715998191 0
0.9458734122634715 0.7187500000000002 0
0.2781787202023634 0.05608541061169792 0
0.2812500000000001 0.9469683889980066 0
0.9458734122634727 0.21875 0
0.7819368313430266 0.9444592254433019 0
0.7794605244709644 0.05789008380089211 0
0.0598655642557262 0.2103255565228435 0
0.0541265877365274 0.84375 0
0.1497678306679729 0.06129168105465144 0
0.9461683306333983 0.8432391863992018 0
0.1491089724503616 0.9381954341011667 0
0.900287101505903 0.06202995618515933 0
0.9005108988089117 0.9433939220349506 0
0.05072289613155662 0.09932279682851047 0
0.9461683306333993 0.1567608136007985 0
0.8922953288905862 0.1884500374259996 0
0.8918382419208852 0.250158339571 0
0.8382262417186679 0.2197996313253664 0
0.837736473844116 0.2814513284827277 0
0.7836140227175484 0.2502084933013489 0
0.7835330841734496 0.3125683036306793 0
0.7293936961145657 0.2812961328220044 0
0.7293780729701563 0.3437690727421137 0
0.6752467479891682 0.3125108675940193 0
0.6752433545910228 0.3750049900560218 0
0.6211154117473946 0.343752642941673 0
0.6211146203298533 0.4062512721662819 0
0.5669876748392191 0.3750006525179918 0
0.5669874833106108 0.4375003207807116 0
0.5128608040269643 0.4062501622164497 0
0.5128607568476762 0.468750080499526 0
0.5669873367209888 0.500000066880039 0
0.5128607245528576 0.53125002456326 0
0.4587341459900811 0.4375000404526616 0
0.5669873069069151 0.5625000152405492 0
0.5128607142013754 0.5937500066339674 0
0.45873414213657 0.3750000337781842 0
0.4046075367575448 0.4062500032204814 0
0.5669873002126556 0.6250000036457521 0
0.621113887661642 0.5937500031477164 0
0.4046075384583968 0.3437500061664431 0
0.6211138860144705 0.6562500002947318 0
0.5128607113604182 0.6562500017132857 0
0.4587341234379393 0.6250000013912077 0
0.3504809480649282 0.3750000015644861 0
0.3504809476221045 0.4375000007974932 0
0.6752404739120839 0.6250000005737411 0
0.4587341229334542 0.6875000005174146 0
0.4046075350818542 0.6562500003181024 0
0.6752404736644027 0.6875000001447451 0
0.7293693767611926 0.4062540104663558 0
0.5669876152135348 0.3125005492432767 0
0.3504809479055803 0.3125000012884869 0
0.5128607105859008 0.7187500003717825 0
0.4046075349785943 0.7187500001392515 0
0.3504809472056784 0.6875000000762242 0
0.2963543596524251 0.4062500003936618 0
0.2963543595397623 0.4687500001985244 0
0.4046075356155497 0.2812500012424872 0
0.7293670613864978 0.6562500001197475 0
0.729367061323986 0.7187500000114746 0
0.2422277717455993 0.4375000000986961 0
0.2423063058953667 0.375000000082058 0
0.2422277717172159 0.5000000000495353 0
0.3504809471824034 0.7500000000359113 0
0.2963543594359321 0.7187500000186876 0
0.3504809474052146 0.2500000004218277 0
0.6752404735958657 0.7500000000260362 0
0.6752459584484248 0.2500095000693369 0
0.7293670613840926 0.5937500001155812 0
0.7834936490765334 0.6250000000392215 0
0.7834936490687849 0.5625000000258005 0
0.404881279098685 0.7807758611948628 0
0.4046075350583478 0.2187500002773847 0
0.7293670613209702 0.7812500000062517 0
0.2963543594303955 0.7812500000090983 0
0.244045232924449 0.7531479352012507 0
0.2347687819248533 0.6915227854963699 0
0.783493649055594 0.7500000000029545 0
0.4046075350626758 0.5937500002848838 0
0.2438260532806931 0.8158157932895476 0
0.1881011839663522 0.4687500000247035 0
0.1847349332528771 0.5318381492890236 0
0.1904879356565665 0.7854752232784192 0
0.3504809472289536 0.187500000116534 0
0.2963543594769482 0.2187500000897253 0
0.7834936490547736 0.8125000000015344 0
0.7809997463456033 0.1783469708608676 0
0.67524047358394 0.8125000000053809 0
0.8376202367908473 0.7812500000007486 0
0.8376202367966731 0.5937500000108372 0
0.8376202367939422 0.5312500000061066 0
0.8376461821526272 0.343794938685568 0
0.8376202367907721 0.7187500000006175 0
0.4587341227809761 0.2500000002533111 0
0.4587341226480192 0.1875000000230227 0
0.512860710397844 0.2187500000460549 0
0.6211138858473291 0.7812500000052355 0
0.7293670613309662 0.5312500000235634 0
0.2416667299101801 0.5625980248897583 0
0.1844559642815129 0.5941728151150708 0
0.5120080250247288 0.1577268943660763 0
0.5668451838877919 0.1877461490686879 0
0.8376202367906345 0.8437500000003809 0
0.6217615715379425 0.8426281754748235 0
0.5670952457238883 0.8123130292466757 0
0.5645310753761541 0.8841057543163088 0
0.5119951923510023 0.8411006622018894 0
0.5653873847155785 0.1161526474566961 0
0.6211138858443086 0.1562499999999991 0
0.2963543594251409 0.8437499999999977 0
0.3504809472575124 0.5000000001660017 0
0.188101183952086 0.8437499999999971 0
0.2972693911283952 0.1578348814005647 0
0.2423802769811259 0.1877641469150466 0
0.242253189246002 0.2500440245007936 0
0.1847645870540499 0.2193895111792904 0
0.1839365120249774 0.2828859747626264 0
0.3493373946965169 0.1273401217537558 0
0.1874703046924861 0.1575104059023071 0
0.128718950427576 0.1871433772933737 0
0.1319197525327267 0.4999358308246034 0
0.1338976789299797 0.4379492627675382 0
0.1377586743709673 0.8132042038797338 0
0.1356725686996278 0.7483358361422369 0
0.1433204612362317 0.8732534753603534 0
0.1386900718537544 0.1266255943965664 0
0.6752404735808327 0.8749999999999996 0
0.8965221945199426 0.1284314309844929 0
0.4531890721913929 0.132513191559181 0
0.7832341794355947 0.876577992121109 0
0.8397998284841848 0.9068856797137301 0
0.07868652854271391 0.4606891636658715 0
0.1137770919774307 0.5660288956599107 0
0.136569621163151 0.633167034996639 0
0.07212341870086048 0.6163521076804419 0
0.08510694833877153 0.1461361083084748 0
0.1192445654283392 0.2516517241492336 0
0.1307199087339604 0.3145459056304854 0
0.08664856621807093 0.7932516352702976 0
0.08773630603728633 0.3979718043594975 0
0.726661122189924 0.9072740450000465 0
0.1042557701701507 0.6819767009129737 0
0.1688083938389955 0.6933073438863602 0
0.06489812292712116 0.2920294057528867 0
0.8939148402878507 0.8754923177572456 0
0.891746824527075 0.750000000000228 0
0.8917468245270248 0.687500000000141 0
0.9458734122634851 0.6562500000000235 0
0.8917468245285745 0.5625000000028241 0
0.891746824527804 0.5000000000014887 0
0.8376202367911479 0.468750000001266 0
0.8917468245270139 0.4375000000001201 0
0.7834936490553105 0.5000000000024614 0
0.7834940349615535 0.4375006684116805 0
0.8376246253355296 0.4062576011831058 0
0.2416295191541602 0.3127799998909119 0
0.8921573135488797 0.8124969173596341 0
0.5669872986875883 0.6875000010042583 0
0.8917518801781767 0.3750087566447991 0
0.7835075627257515 0.3750240991865839 0
0.6211140455612383 0.4687502766378385 0
0.7834936490706332 0.6875000000290027 0
0.5669636652598401 0.2500411163930028 0
0.9458886484957959 0.2812763899285 0
0.8917891398091788 0.3125732922187658 0
0.4587341266223331 0.3125000069067372 0
0.6210871754775849 0.2187994609218376 0
0.6742443269843394 0.189229076074961 0
0.6786843383857812 0.1214008642461397 0
0.6752414886902506 0.4375017582210829 0
0.4587341257979617 0.5625000054788859 0
0.2447704632185621 0.1167127854403991 0
0.9459909801621373 0.7811643506265107 0
0.59375 0.9458734122634727 0
0.5315885125626924 0.945968084317342 0
0.40625 0.9460688670857071 0
0.4374999999999991 0.8970336982419844 0
0.374563825764038 0.8978344385710721 0
0.343723507395775 0.9467205882843727 0
0.217559828741727 0.9460836450511001 0
0.2467273464856639 0.8848965335647545 0
0.08866790606289277 0.9494428947540106 0
0.2962608525019139 0.5312663375506359 0
0.2962452679748649 0.5937690604067309 0
0.3492423166201423 0.8092483050234982 0
0.71875 0.05412658773652745 0
0.748324354291109 0.1153523993260117 0
0.8086401093067856 0.1137843938530497 0
0.8408172512149702 0.05895537963041547 0
0.6211077623559912 0.2812690228605244 0
0.2962677400162674 0.3437966672032671 0
0.5128568251076302 0.2812569454737303 0
0.2181086445790338 0.05454911689135433 0
0.3458832299746334 0.06369734019584161 0
0.4107570305271767 0.05069207865483188 0
0.5332501306385059 0.05372580736919197 0
0.59375 0.0541265877365274 0
0.675240473952321 0.5625000006434334 0
0.6211138859862392 0.7187500002458342 0
0.5670052895336994 0.7499688384789641 0
0.7293670613173631 0.2187499999999997 0
0.4587797467671014 0.7499209770372181 0
0.4605861547646724 0.808600776491492 0
0.512860197991042 0.3437513916893949 0
0.6752406694494075 0.5000003392543195 0
0.6211139533754187 0.5312501169673161 0
0.1884455442693784 0.406784834788154 0
0.4046075391933609 0.4687500074394391 0
0.4587341378800225 0.5000000264056285 0
0.2950930125652689 0.656923640999668 0
0.9458734122636271 0.4687500000002682 0
0.9458734122637458 0.5937500000004746 0
0.350252540842002 0.6251154503476013 0
0.5129310503553834 0.7808342009127799 0
0.8376202367980966 0.6562500000133034 0
0.4030332263067736 0.1587706293811487 0
0.7293677133747801 0.4687511293965773 0
0.4046075387255339 0.5312500066291395 0
0.2963543594251438 0.2812499999999979 0
0.3504091137274172 0.5625251425641655 0
0.9458742548720483 0.4062514594408646 0
0.2422277716886147 0.6249999999999976 0
0.7288728265276725 0.8441836728557203 0
0.8917468245295999 0.6250000000046007 0
0.1878216570034401 0.3443670459957612 0
0.1379947937060037 0.37526614044276 0
0.4055261766154855 0.8433151367892069 0
0.9495374085310317 0.09674589604058426 0
0.9487123700257603 0.9043472065317673 0
0.09106368511661195 0.05109213859601092 0
0.04763931336824145 0.9101616184636164 0
0.8436054746228087 0.157304825818722 0
0.3128797026262864 0.8978428650726513 0
0.4985641819974359 0.8971001320586005 0
0.6227452283029631 0.1006250182974532 0
0.6249999999999972 0.8995190528383277 0
0.1874999999999998 0.8995912226804826 0
0.1875680609647964 0.1011712563432391 0
0.1933661065794255 0.6474339958988875 0
0.048999409108336 0.6649549298814224 0
0.4953202700601071 0.09925061656875339 0
0.3030878398440942 0.1043341078804518 0
0.7223239654648392 0.1646158621015959 0
0.8419495117272247 0.9589477654383965 0
0.3980719453979898 0.1050699730717746 0
0.71875 0.959113189042562 0
0.04575317547305485 0.9542468245269451 0
0.04575317547305485 0.04575317547305485 0
0.9542468245269451 0.9542468245269451 0
0.9542468245269451 0.04575317547305485 0
0.3477132762102186 0.8583981490912853 0
0.4645245293897986 0.8574934841178717 0
0.0357513673149189 0.1553049899168972 0
0.03886692251415991 0.4131090039140344 0
0.03380887050855819 0.46875 0
0.03687925537565462 0.7835430007010323 0
0.1038285000997541 0.8448978612022257 0
0.04384533876752167 0.5759423544204169 0
0.09329165724284322 0.3470035842076299 0
0.09764088657175551 0.8954968170813282 0
0.1959706879637995 0.7352949066234413 0
0.09883533685545715 0.09714932480955429 0
0.8536462770795961 0.1048351852081457 0
0.4418065828867819 0.08667454065610913 0
$EndNodes
$Elements
5 674 1 674
1 1 1 16
1 1 5 
2 5 6 
3 6 7 
4 7 8 
5 8 9 
6 9 10 
7 10 11 
8 11 12 
9 12 13 
10 13 14 
11 14 15 
12 15 16 
13 16 17 
14 17 18 
15 18 19 
16 19 2 
1 2 1 16
17 2 20 
18 20 21 
19 21 22 
20 22 23 
21 23 24 
22 24 25 
23 25 26 
24 26 27 
25 27 28 
26 28 29 
27 29 30 
28 30 31 
29 31 32 
30 32 33 
31 33 34 
32 34 3 
1 3 1 16
33 3 35 
34 35 36 
35 36 37 
36 37 38 
37 38 39 
38 39 40 
39 40 41 
40 41 42 
41 42 43 
42 43 44 
43 44 45 
44 45 46 
45 46 47 
46 47 48 
47 48 49 
48 49 4 
1 4 1 16
49 4 50 
50 50 51 
51 51 52 
52 52 53 
53 53 54 
54 54 55 
55 55 56 
56 56 57 
57 57 58 
58 58 59 
59 59 60 
60 60 61 
61 61 62 
62 62 63 
63 63 64 
64 64 1 
2 1 2 610
65 194 211 80 
66 195 207 68 
67 208 216 209 
68 191 211 190 
69 174 207 156 
70 216 314 209 
71 261 262 161 
72 80 210 194 
73 68 206 195 
74 198 213 73 
75 73 216 198 
76 72 260 243 
77 260 261 243 
78 154 255 186 
79 201 215 70 
80 246 267 75 
81 212 333 218 
82 248 249 180 
83 270 271 182 
84 212 218 211 
85 190 211 194 
86 156 207 195 
87 205 219 86 
88 191 212 211 
89 174 208 207 
90 208 217 216 
91 184 255 154 
92 215 320 70 
93 249 308 180 
94 208 313 217 
95 75 316 246 
96 218 333 71 
97 161 317 261 
98 182 315 270 
99 79 262 261 
100 79 261 260 
101 86 318 205 
102 255 311 186 
103 262 306 161 
104 204 205 78 
105 268 319 192 
106 84 334 199 
107 206 328 214 
108 206 329 328 
109 18 263 17 
110 180 310 248 
111 271 309 182 
112 202 337 85 
113 200 336 82 
114 78 215 204 
115 219 303 86 
116 85 302 202 
117 246 312 267 
118 269 319 268 
119 199 311 84 
120 82 312 200 
121 85 263 18 
122 17 263 79 
123 211 218 80 
124 208 209 207 
125 61 218 60 
126 85 337 263 
127 209 314 55 
128 256 334 84 
129 180 308 181 
130 192 316 268 
131 70 310 201 
132 243 309 72 
133 207 332 68 
134 191 299 212 
135 217 313 151 
136 79 263 262 
137 215 297 204 
138 201 297 215 
139 55 332 209 
140 80 218 61 
141 60 218 71 
142 216 217 198 
143 151 335 217 
144 205 318 78 
145 315 338 65 
146 184 307 255 
147 219 231 83 
148 220 247 231 
149 231 247 83 
150 74 247 220 
151 30 222 29 
152 220 221 74 
153 222 286 29 
154 74 222 30 
155 221 222 74 
156 29 286 28 
157 223 224 66 
158 224 285 66 
159 166 239 233 
160 66 286 223 
161 144 289 236 
162 164 289 144 
163 233 239 69 
164 229 234 166 
165 226 285 224 
166 222 298 286 
167 25 295 69 
168 28 286 66 
169 69 295 233 
170 77 90 89 
171 228 291 124 
172 134 236 152 
173 241 242 142 
174 160 297 148 
175 221 298 222 
176 145 227 165 
177 162 201 178 
178 159 293 189 
179 166 233 229 
180 170 266 168 
181 228 234 229 
182 133 236 134 
183 144 236 133 
184 149 259 184 
185 241 264 237 
186 237 264 125 
187 116 127 121 
188 122 153 117 
189 227 228 225 
190 136 265 130 
191 185 257 131 
192 232 274 127 
193 165 225 224 
194 168 266 240 
195 177 205 204 
196 225 229 226 
197 89 202 88 
198 117 245 109 
199 113 115 112 
200 112 232 116 
201 118 126 114 
202 120 123 115 
203 115 273 232 
204 124 291 244 
205 155 281 135 
206 230 265 136 
207 242 275 142 
208 276 277 146 
209 152 160 148 
210 149 184 154 
211 153 292 245 
212 153 294 292 
213 195 196 155 
214 220 231 163 
215 181 288 179 
216 188 246 187 
217 227 291 228 
218 92 239 166 
219 100 244 235 
220 102 103 101 
221 102 235 105 
222 104 107 103 
223 109 245 106 
224 108 113 112 
225 113 120 115 
226 116 232 127 
227 120 133 123 
228 125 266 237 
229 128 276 146 
230 134 152 148 
231 162 171 141 
232 143 272 172 
233 165 227 225 
234 179 288 274 
235 77 238 90 
236 105 280 108 
237 137 257 173 
238 233 295 226 
239 90 91 89 
240 130 265 118 
241 168 240 132 
242 163 231 177 
243 177 219 205 
244 225 226 224 
245 226 295 285 
246 284 296 258 
247 23 238 77 
248 31 247 74 
249 40 248 70 
250 41 249 248 
251 43 250 67 
252 44 253 250 
253 46 254 76 
254 48 256 84 
255 90 92 91 
256 238 239 90 
257 92 94 93 
258 94 96 95 
259 166 234 94 
260 142 275 95 
261 96 98 97 
262 98 100 99 
263 124 244 98 
264 125 264 99 
265 100 102 101 
266 102 104 103 
267 105 106 104 
268 108 109 106 
269 107 282 111 
270 108 280 113 
271 112 116 109 
272 114 240 110 
273 115 232 112 
274 113 272 120 
275 126 132 114 
276 123 273 115 
277 153 245 117 
278 119 131 130 
279 120 143 133 
280 121 128 122 
281 134 141 123 
282 124 234 228 
283 125 278 266 
284 274 288 127 
285 128 138 129 
286 140 147 132 
287 137 156 155 
288 138 149 139 
289 151 284 139 
290 140 293 159 
291 148 162 141 
292 142 264 241 
293 143 145 144 
294 145 165 164 
295 172 227 145 
296 158 290 147 
297 152 167 163 
298 187 192 158 
299 177 204 160 
300 162 178 171 
301 165 224 223 
302 167 221 220 
303 236 289 167 
304 237 266 170 
305 175 182 176 
306 177 231 219 
307 178 180 179 
308 277 288 181 
309 183 243 242 
310 292 294 185 
311 189 293 230 
312 206 214 196 
313 289 298 221 
314 286 298 223 
315 228 229 225 
316 229 233 226 
317 279 280 235 
318 250 252 251 
319 108 112 109 
320 113 280 272 
321 121 122 117 
322 128 129 122 
323 138 139 129 
324 149 150 139 
325 154 157 150 
326 151 296 284 
327 179 274 171 
328 272 279 172 
329 195 206 196 
330 244 279 235 
331 276 288 277 
332 16 260 15 
333 92 166 94 
334 95 275 93 
335 94 234 96 
336 97 142 95 
337 96 124 98 
338 98 244 100 
339 101 125 99 
340 100 235 102 
341 103 278 101 
342 102 105 104 
343 105 108 106 
344 126 140 132 
345 135 136 130 
346 137 155 135 
347 137 173 156 
348 147 290 169 
349 190 193 188 
350 190 194 193 
351 194 200 193 
352 250 253 252 
353 15 260 72 
354 24 238 23 
355 32 247 31 
356 45 253 44 
357 47 254 46 
358 250 251 67 
359 77 89 88 
360 131 257 137 
361 186 197 157 
362 197 213 198 
363 7 82 6 
364 8 267 7 
365 7 267 82 
366 9 75 8 
367 75 267 8 
368 10 268 9 
369 9 268 75 
370 11 269 10 
371 10 269 268 
372 12 65 11 
373 65 269 11 
374 13 270 12 
375 12 270 65 
376 14 271 13 
377 13 271 270 
378 15 72 14 
379 72 271 14 
380 17 79 16 
381 19 85 18 
382 69 238 24 
383 76 253 45 
384 52 81 51 
385 54 73 53 
386 57 68 56 
387 60 71 59 
388 62 80 61 
389 64 87 63 
390 254 255 76 
391 94 95 93 
392 96 234 124 
393 98 99 97 
394 101 278 125 
395 107 111 110 
396 132 240 114 
397 119 130 118 
398 131 135 130 
399 154 186 157 
400 196 281 155 
401 173 174 156 
402 159 188 187 
403 169 170 168 
404 175 176 170 
405 257 258 173 
406 182 183 176 
407 193 246 188 
408 189 191 190 
409 79 260 16 
410 106 283 104 
411 245 283 106 
412 107 283 282 
413 116 117 109 
414 121 276 128 
415 122 287 153 
416 141 273 123 
417 127 288 276 
418 128 146 138 
419 139 284 129 
420 143 144 133 
421 140 158 147 
422 140 159 158 
423 145 164 144 
424 152 163 160 
425 197 198 157 
426 159 187 158 
427 192 290 158 
428 165 223 164 
429 169 203 175 
430 178 179 171 
431 180 181 179 
432 194 210 200 
433 244 291 279 
434 245 292 283 
435 272 280 279 
436 111 282 119 
437 152 236 167 
438 156 195 155 
439 189 190 188 
440 147 168 132 
441 162 297 201 
442 171 274 273 
443 172 291 227 
444 189 230 191 
445 230 293 265 
446 110 278 103 
447 104 283 107 
448 240 278 110 
449 111 118 114 
450 111 119 118 
451 116 121 117 
452 118 265 126 
453 119 282 185 
454 127 276 121 
455 284 287 129 
456 131 137 135 
457 135 281 136 
458 146 259 138 
459 147 169 168 
460 149 154 150 
461 159 189 188 
462 169 175 170 
463 258 296 173 
464 186 199 197 
465 69 239 238 
466 99 264 97 
467 107 110 103 
468 235 280 105 
469 111 114 110 
470 119 185 131 
471 120 272 143 
472 133 134 123 
473 134 148 141 
474 138 259 149 
475 150 151 139 
476 171 273 141 
477 143 172 145 
478 148 297 162 
479 167 289 221 
480 176 237 170 
481 176 241 237 
482 22 88 21 
483 23 77 22 
484 77 88 22 
485 25 69 24 
486 26 295 25 
487 27 285 26 
488 28 66 27 
489 31 74 30 
490 33 83 32 
491 83 247 32 
492 36 86 35 
493 38 78 37 
494 40 70 39 
495 41 248 40 
496 42 249 41 
497 43 67 42 
498 67 249 42 
499 44 250 43 
500 46 76 45 
501 48 84 47 
502 84 254 47 
503 49 256 48 
504 90 239 92 
505 92 93 91 
506 93 161 91 
507 93 275 161 
508 265 293 126 
509 96 97 95 
510 97 264 142 
511 100 101 99 
512 126 293 140 
513 183 241 176 
514 183 242 241 
515 266 278 240 
516 287 294 153 
517 167 220 163 
518 169 290 203 
519 163 177 160 
520 173 296 174 
521 66 285 27 
522 279 291 172 
523 282 292 185 
524 273 274 232 
525 283 292 282 
526 185 294 257 
527 257 294 258 
528 204 297 160 
529 164 298 289 
530 258 287 284 
531 285 295 26 
532 258 294 287 
533 129 287 122 
534 223 298 164 
535 73 314 216 
536 209 332 207 
537 261 317 243 
538 174 313 208 
539 230 299 191 
540 281 299 136 
541 82 336 304 
542 81 334 305 
543 203 338 315 
544 136 299 230 
545 331 334 81 
546 281 300 299 
547 214 300 196 
548 299 300 212 
549 146 301 259 
550 83 303 219 
551 202 302 88 
552 6 304 5 
553 51 305 50 
554 21 302 20 
555 34 303 33 
556 80 327 210 
557 81 330 213 
558 68 329 206 
559 213 331 81 
560 210 327 87 
561 214 328 71 
562 213 330 73 
563 161 306 91 
564 89 306 202 
565 255 307 76 
566 253 307 252 
567 251 308 67 
568 196 300 281 
569 301 325 259 
570 178 310 180 
571 182 309 183 
572 254 311 255 
573 252 301 251 
574 277 301 146 
575 268 316 75 
576 151 313 296 
577 82 304 6 
578 88 302 21 
579 81 305 51 
580 33 303 83 
581 55 314 54 
582 78 320 215 
583 175 315 182 
584 246 316 187 
585 87 336 210 
586 243 317 242 
587 275 317 161 
588 36 318 86 
589 78 318 37 
590 290 319 203 
591 252 325 301 
592 38 320 78 
593 70 320 39 
594 270 315 65 
595 217 335 198 
596 71 333 214 
597 20 324 2 
598 3 323 34 
599 35 323 3 
600 4 321 49 
601 2 324 19 
602 50 321 4 
603 5 322 1 
604 1 322 64 
605 193 312 246 
606 150 335 151 
607 198 335 157 
608 56 332 55 
609 52 330 81 
610 57 329 68 
611 62 327 80 
612 87 327 63 
613 71 328 59 
614 73 330 53 
615 197 331 213 
616 186 311 199 
617 200 312 193 
618 91 306 89 
619 76 307 253 
620 67 308 249 
621 248 310 70 
622 201 310 178 
623 183 309 243 
624 72 309 271 
625 84 311 254 
626 267 312 82 
627 301 326 251 
628 277 326 301 
629 296 313 174 
630 54 314 73 
631 210 336 200 
632 203 315 175 
633 214 333 300 
634 187 316 192 
635 242 317 275 
636 37 318 36 
637 306 337 202 
638 192 319 290 
639 39 320 38 
640 34 323 303 
641 305 321 50 
642 304 322 5 
643 302 324 20 
644 251 326 308 
645 319 338 203 
646 64 322 87 
647 86 323 35 
648 19 324 85 
649 49 321 256 
650 307 325 252 
651 259 325 184 
652 263 337 262 
653 181 326 277 
654 63 327 62 
655 59 328 58 
656 328 329 58 
657 58 329 57 
658 53 330 52 
659 199 331 197 
660 68 332 56 
661 157 335 150 
662 65 338 269 
663 262 337 306 
664 303 323 86 
665 256 321 305 
666 85 324 302 
667 87 322 304 
668 300 333 212 
669 308 326 181 
670 305 334 256 
671 304 336 87 
672 184 325 307 
673 199 334 331 
674 269 338 319 
$EndElements
