$MeshFormat
4.1 0 8
$EndMeshFormat
$Entities
4 4 1 0
1 0 0 0 0 
2 1 0 0 0 
3 1 1 0 0 
4 0 1 0 0 
1 -9.999999994736442e-08 -1e-07 -1e-07 1.0000001 1e-07 1e-07 1 1 2 1 -2 
2 0.9999999000000001 -9.999999994736442e-08 -1e-07 1.0000001 1.0000001 1e-07 1 2 2 2 -3 
3 -9.999999994736442e-08 0.9999999000000001 -1e-07 1.0000001 1.0000001 1e-07 1 2 2 3 -4 
4 -1e-07 -9.999999994736442e-08 -1e-07 1e-07 1.0000001 1e-07 1 2 2 4 -1 
1 -9.999999994736442e-08 -9.999999994736442e-08 -1e-07 1.0000001 1.0000001 1e-07 1 10 4 1 2 3 4 
$EndEntities
$Nodes
9 349 1 349
0 1 0 1
1
0 0 0
0 2 0 1
2
1 0 0
0 3 0 1
3
1 1 0
0 4 0 1
4
0 1 0
1 1 0 15
5
6
7
8
9
10
11
12
13
14
15
16
17
18
19
0.125 0 0
0.25 0 0
0.375 0 0
0.5 0 0
0.625 0 0
0.75 0 0
0.875 0 0
0.06249999999999999 0 0
0.1875 0 0
0.3125 0 0
0.4375 0 0
0.5625 0 0
0.6875 0 0
0.8125 0 0
0.9375 0 0
1 2 0 15
20
21
22
23
24
25
26
27
28
29
30
31
32
33
34
1 0.125 0
1 0.25 0
1 0.375 0
1 0.5 0
1 0.625 0
1 0.75 0
1 0.875 0
1 0.06249999999999999 0
1 0.1875 0
1 0.3125 0
1 0.4375 0
1 0.5625 0
1 0.6875 0
1 0.8125 0
1 0.9375 0
1 3 0 15
35
36
37
38
39
40
41
42
43
44
45
46
47
48
49
0.875 1 0
0.75 1 0
0.625 1 0
0.5 1 0
0.375 1 0
0.25 1 0
0.125 1 0
0.9375 1 0
0.8125 1 0
0.6875 1 0
0.5625 1 0
0.4375 1 0
0.3125 1 0
0.1875 1 0
0.0625 1 0
1 4 0 15
50
51
52
53
54
55
56
57
58
59
60
61
62
63
64
0 0.875 0
0 0.75 0
0 0.625 0
0 0.5 0
0 0.375 0
0 0.25 0
0 0.125 0
0 0.9375 0
0 0.8125 0
0 0.6875 0
0 0.5625 0
0 0.4375 0
0 0.3125 0
0 0.1875 0
0 0.0625 0
2 1 0 285
65
66
67
68
69
70
71
72
73
74
75
76
77
78
79
80
81
82
83
84
85
86
87
88
89
90
91
92
93
94
95
96
97
98
99
100
101
102
103
104
105
106
107
108
109
110
111
112
113
114
115
116
117
118
119
120
121
122
123
124
125
126
127
128
129
130
131
132
133
134
135
136
137
138
139
140
141
142
143
144
145
146
147
148
149
150
151
152
153
154
155
156
157
158
159
160
161
162
163
164
165
166
167
168
169
170
171
172
173
174
175
176
177
178
179
180
181
182
183
184
185
186
187
188
189
190
191
192
193
194
195
196
197
198
199
200
201
202
203
204
205
206
207
208
209
210
211
212
213
214
215
216
217
218
219
220
221
222
223
224
225
226
227
228
229
230
231
232
233
234
235
236
237
238
239
240
241
242
243
244
245
246
247
248
249
250
251
252
253
254
255
256
257
258
259
260
261
262
263
264
265
266
267
268
269
270
271
272
273
274
275
276
277
278
279
280
281
282
283
284
285
286
287
288
289
290
291
292
293
294
295
296
297
298
299
300
301
302
303
304
305
306
307
308
309
310
311
312
313
314
315
316
317
318
319
320
321
322
323
324
325
326
327
328
329
330
331
332
333
334
335
336
337
338
339
340
341
342
343
344
345
346
347
348
349
0.1047296370420417 0.5622516884663737 0
0.564094863106229 0.1107249391757809 0
0.8917468245269452 0.5625 0
0.5636502498770715 0.8889321224102376 0
0.3265915722014295 0.1181536766262294 0
0.8929849573903605 0.3098918535636488 0
0.3285707062518295 0.8822316074696649 0
0.1189276714966017 0.3090423074066714 0
0.8945379619481026 0.8076656081756484 0
0.1059571575098877 0.8184712825426809 0
0.7966579344023306 0.1094851921887082 0
0.892212014097138 0.6866942680292747 0
0.7835711806489225 0.6248657113382124 0
0.7835065709863958 0.4999776185563687 0
0.6752555491687584 0.5624738883157635 0
0.6763912305712481 0.435655920195629 0
0.5671816035375034 0.4996883014185654 0
0.5665578667085684 0.6257479383843062 0
0.4582306067376578 0.5633769467290634 0
0.4586825875568351 0.4375942080246047 0
0.3506175052380172 0.4997651041842927 0
0.3488235554012156 0.6246961477130281 0
0.3513582602921421 0.3764715589254162 0
0.458871752310156 0.3127609611583367 0
0.246069810373835 0.4378395362524899 0
0.3449813784208416 0.2539168015492269 0
0.4523796141035452 0.188106199969891 0
0.2269259356136096 0.2071445712417791 0
0.5667907384271359 0.2484284947709638 0
0.6767692376892552 0.1777395879750965 0
0.6821170180028825 0.3014840143016424 0
0.78687533202949 0.2375568309538426 0
0.7840492921516208 0.7490375979238559 0
0.7964030538192071 0.8848518189312384 0
0.6752404735808356 0.8125000000000002 0
0.6752769433944144 0.6874375226603564 0
0.5655363939815634 0.7540651945034191 0
0.4528800758063548 0.8158498921506999 0
0.4561658911085535 0.6889409186643947 0
0.3449668480159612 0.7499093925058519 0
0.2407687071648419 0.6800759981764014 0
0.8919553336595986 0.4370615786866696 0
0.1049159278238996 0.4373392161197177 0
0.7850256190915847 0.3716223590783096 0
0.1197821680086142 0.6912881315200115 0
0.5683391550676269 0.3726019833116237 0
0.1057063823570024 0.1874999999999999 0
0.2436021711216516 0.5601194703520888 0
0.1905646450230677 0.9006241233837274 0
0.8971730864405809 0.1911333561284893 0
0.1874985737204353 0.09927172251166189 0
0.2447772774473437 0.3251122469762171 0
0.2217683719957004 0.7871000892663896 0
0.4375 0.08453570123751081 0
0.6860835994000998 0.91652381960367 0
0.4375 0.9184296705855016 0
0.6875 0.07733755452579499 0
0.9084936490538903 0.0915063509461097 0
0.9084936490538903 0.9084936490538903 0
0.0915063509461097 0.9084936490538903 0
0.09075933678027726 0.09075933678027726 0
0.1748493524602256 0.5000000000000001 0
0.1750839833710574 0.3819936123883327 0
0.176947198012515 0.619276518474527 0
0.1707752700021573 0.7391941103932005 0
0.163862764752794 0.8027856859045353 0
0.1128696627592509 0.7548797070313462 0
0.3894855931524874 0.1531299382980602 0
0.3986804962621934 0.2210115007595589 0
0.3357864753111356 0.1860352390877282 0
0.2312685395802712 0.7335880437213955 0
0.180275437586728 0.6856820648482065 0
0.3367687771338954 0.8160704999877584 0
0.398923461911158 0.7828796423282759 0
0.3907253910290922 0.8490407498101824 0
0.3820457861007148 0.1013446889318701 0
0.4449398070517726 0.1363209506037009 0
0.2358516065304767 0.2661284091089981 0
0.1818524744719727 0.3170772771914442 0
0.1729268035551057 0.2580934393242252 0
0.4451900379031774 0.8671397813681008 0
0.3830353531259147 0.9003306390275833 0
0.112317026926802 0.2482711537033356 0
0.166316158985306 0.1973222856208895 0
0.7732015269096035 0.9424259094656192 0
0.8357015269096035 0.9424259094656192 0
0.7917666332159103 0.1735210115712754 0
0.7318222848593726 0.2076482094644696 0
0.736713586045793 0.1436123900819024 0
0.2859536570172256 0.230530686395503 0
0.2767587539075196 0.1626491239340043 0
0.5645933219293174 0.8214986584568283 0
0.6203884337811996 0.7832825972517097 0
0.6194453617289535 0.8507160612051189 0
0.8390052882409726 0.3407571063209792 0
0.7859504755605374 0.3045895950160761 0
0.8399301447099252 0.2737243422587457 0
0.6821346188446276 0.1275385712504458 0
0.7420789672011653 0.09341137335725158 0
0.8524483514365487 0.8966727339925643 0
0.8917468245269451 0.9542468245269451 0
0.5082651628417132 0.8523910072804688 0
0.5092082348939592 0.7849575433270595 0
0.6204320503977422 0.1442322635754387 0
0.6217799880581956 0.2130840413730302 0
0.5654428007666825 0.1795767169733724 0
0.5095851762653405 0.2182673473704274 0
0.5082372386048871 0.1494155695728359 0
0.6223651928194375 0.4041289517536264 0
0.6252280865352546 0.337042998806633 0
0.6792541242870653 0.3685699672486357 0
0.7335713185472337 0.336553186689976 0
0.7344961750161862 0.2695204226277425 0
0.5675649467473813 0.3105152390412937 0
0.6244538782150092 0.2749562545363031 0
0.7307084248314164 0.4036391396369694 0
0.275169539123765 0.8346658483680273 0
0.2833676100058308 0.7685047408861208 0
0.511361878908561 0.6573444285243505 0
0.4571982489231057 0.6261589326967291 0
0.5123942367231131 0.5945624425566848 0
0.6794431278460689 0.2396118011383694 0
0.4005663695622574 0.7194251555851233 0
0.4545229834574542 0.7523954054075473 0
0.4024947232548846 0.6568185331887113 0
0.4035270810694367 0.5940365472210457 0
0.5108511425450585 0.7215030565839069 0
0.5660471303450659 0.6899065664438626 0
0.6806620364904676 0.864511909801835 0
0.6248669246385856 0.9027279710069538 0
0.8420242092350354 0.2143450935411659 0
0.8950790219154707 0.2505126048460691 0
0.3468952017085884 0.68730277010944 0
0.2928677775904016 0.7149926953411266 0
0.2947961312830287 0.6523860729447147 0
0.7296631177730175 0.7182375602921062 0
0.7294240620216684 0.6561516169992844 0
0.7838102364002716 0.6869516546310341 0
0.6204066686879889 0.7207513585818878 0
0.6752587084876249 0.7499687613301782 0
0.9459776668297992 0.4060307893433348 0
0.8924701455249795 0.3734767161251592 0
0.9464924786951803 0.3424459267818244 0
0.946106007048569 0.6558471340146373 0
0.8919794193120416 0.6245971340146373 0
0.9458734122634727 0.59375 0
0.8454705078836549 0.8462587135534434 0
0.790226172985414 0.8169447084275472 0
0.8392936270498618 0.7783516030497521 0
0.8381306531243794 0.7178659329765653 0
0.8378915973730302 0.6557799896837435 0
0.7842660950389903 0.4357999888173392 0
0.7299489007788219 0.4678167693759989 0
0.6209067079386634 0.5941109133500349 0
0.5668697351230358 0.5627181199014358 0
0.6212185763531309 0.5310810948671644 0
0.5135108713122309 0.4050980956681142 0
0.5677603793025651 0.4361451423650945 0
0.5129320955471692 0.468641254721585 0
0.7296448828662282 0.7807687989619281 0
0.4584565971472465 0.500485577376834 0
0.5127061051375805 0.5315326240738143 0
0.3509878827650796 0.4381183315548545 0
0.4050204239244886 0.4070328834750104 0
0.4046500463974262 0.4686796561044487 0
0.5136054536888914 0.3426814722349802 0
0.4587771699334955 0.3751775845914707 0
0.3481698193564918 0.3151941802373215 0
0.4019265653654988 0.2833388813537818 0
0.405115006301149 0.3446162600418765 0
0.9464924786951803 0.2799459267818244 0
0.9459776668297992 0.4685307893433348 0
0.9458734122634727 0.53125 0
0.8918510790932719 0.4997807893433348 0
0.946106007048569 0.7183471340146373 0
0.9472689809740513 0.8413328040878242 0
0.9472689809740513 0.7788328040878242 0
0.8933749880226204 0.7471799381024615 0
0.5318251249385357 0.9444660612051188 0
0.5943251249385357 0.9444660612051188 0
0.2892853531259147 0.9411158037348324 0
0.3517853531259147 0.9411158037348324 0
0.05245796391194979 0.4061696080598589 0
0.05245796391194979 0.4686696080598589 0
0.1048227824329707 0.4997954522930457 0
0.05236481852102087 0.5311258442331869 0
0.7294133649088405 0.593669799826988 0
0.7293810600775771 0.5312257534360662 0
0.7835388758176591 0.5624216649472906 0
0.6758233898700032 0.4990649042556963 0
0.6752662462815864 0.6249557054880599 0
0.6209174050514914 0.6565927305223314 0
0.6217864170543758 0.4676721108070972 0
0.4044240559878375 0.531571025456678 0
0.512831245368646 0.2805947279646503 0
0.4556256832068506 0.2504335805641139 0
0.7358217637000213 0.8486759094656193 0
0.3507957861007148 0.05907683831311472 0
0.2882957861007148 0.05907683831311472 0
0.5945474315531145 0.05536246958789043 0
0.5320474315531145 0.05536246958789043 0
0.8358289672011653 0.05474259609435411 0
0.7733289672011653 0.05474259609435411 0
0.05297857875494383 0.7842356412713405 0
0.05297857875494383 0.8467356412713405 0
0.05989108400430709 0.6581440657600057 0
0.05989108400430709 0.7206440657600057 0
0.05236481852102087 0.5936258442331869 0
0.112255902525328 0.6267699099931926 0
0.05946383574830083 0.2795211537033357 0
0.05946383574830083 0.3420211537033357 0
0.1119217996602506 0.3731907617631945 0
0.8384904763755917 0.4043419688824896 0
0.8377309523229971 0.4685195986215192 0
0.8376590025879338 0.5936828556691063 0
0.2983436578059261 0.4688023202183914 0
0.2987140353329886 0.4071555475889531 0
0.8376266977566704 0.5312388092781843 0
0.3497205303196164 0.5622306259486604 0
0.2072122546670224 0.1532081468767205 0
0.2570450729609324 0.1087126995689457 0
0.2948793279340927 0.289514524262722 0
0.05285319117850118 0.21875 0
0.2421854391432468 0.6200977342642451 0
0.2962128632614336 0.5924078090325584 0
0.2971098381798344 0.5299422872681907 0
0.05285319117850118 0.15625 0
0.2448359907477433 0.4989795033022894 0
0.2061665085093841 0.8438621063250585 0
0.1482609012664777 0.8595477029632042 0
0.1577823225115338 0.9503120616918637 0
0.2202823225115338 0.9503120616918637 0
0.2099306304092006 0.3535529296822749 0
0.1470058274338296 0.3455179598975021 0
0.2187492868602177 0.04963586125583097 0
0.2980677688697429 0.3507919029508166 0
0.5007974315531145 0.09763032020664586 0
0.9485865432202905 0.2205666780642447 0
0.9485865432202905 0.1580666780642447 0
0.5005751249385357 0.9036808964978695 0
0.6257974315531145 0.0940312468507879 0
0.2595676756374486 0.8914278654266962 0
0.8469155104214557 0.1503092741585987 0
0.1466024780387188 0.1433858612558309 0
0.40625 0.04226785061875538 0
0.46875 0.04226785061875538 0
0.6555417997000499 0.958261909801835 0
0.46875 0.9592148352927508 0
0.40625 0.9592148352927508 0
0.71875 0.03866877726289752 0
0.65625 0.03866877726289752 0
0.9542468245269451 0.04575317547305485 0
0.8917468245269451 0.04575317547305485 0
0.9542468245269451 0.1082531754730549 0
0.9542468245269451 0.9542468245269451 0
0.9542468245269451 0.8917468245269451 0
0.04575317547305485 0.9542468245269451 0
0.1082531754730549 0.9542468245269451 0
0.04575317547305485 0.8917468245269451 0
0.9015158055009965 0.8580796286147694 0
0.1562492868602177 0.04963586125583097 0
0.2454235439105894 0.3814758916143536 0
0.1078796683901386 0.04537966839013863 0
0.04537966839013863 0.04537966839013863 0
0.04537966839013863 0.1078796683901386 0
0.7180417997000499 0.958261909801835 0
0.7412433266096534 0.9006878192674541 0
0.1483646830105646 0.6552823249972692 0
0.2088579525886785 0.6496762583254643 0
0.1410354979845887 0.9045588862188089 0
0.09873175422799868 0.8634824657982856 0
0.8525757917281105 0.100495771567409 0
0.9028333677472355 0.1413198535372995 0
0.1408384175272783 0.5907641034704504 0
0.09823285956863981 0.1391296683901386 0
0.1749666679156415 0.4409968061941664 0
0.2105768968724462 0.4099165743204113 0
0.2104595814170304 0.468919768126245 0
0.1398826401420626 0.4686696080598589 0
0.1397894947511337 0.5311258442331869 0
0.1399999555974785 0.4096664142540252 0
0.1391289552503563 0.0950155296459696 0
0.2092257617909386 0.5300597351760444 0
0.2102746845670833 0.5896979944133078 0
0.1758982752363703 0.5596382592372635 0
$EndNodes
$Elements
5 190 1 190
1 1 8 8
1 1 5 12 
2 5 6 13 
3 6 7 14 
4 7 8 15 
5 8 9 16 
6 9 10 17 
7 10 11 18 
8 11 2 19 
1 2 8 8
9 2 20 27 
10 20 21 28 
11 21 22 29 
12 22 23 30 
13 23 24 31 
14 24 25 32 
15 25 26 33 
16 26 3 34 
1 3 8 8
17 3 35 42 
18 35 36 43 
19 36 37 44 
20 37 38 45 
21 38 39 46 
22 39 40 47 
23 40 41 48 
24 41 4 49 
1 4 8 8
25 4 50 57 
26 50 51 58 
27 51 52 59 
28 52 53 60 
29 53 54 61 
30 54 55 62 
31 55 56 63 
32 56 1 64 
2 1 9 158
33 109 117 74 129 130 131 
34 69 91 90 132 133 134 
35 105 117 109 135 129 136 
36 71 104 102 137 138 139 
37 69 118 91 140 141 132 
38 92 116 72 142 143 144 
39 102 120 71 145 146 139 
40 72 111 92 147 148 144 
41 36 98 35 149 150 43 
42 75 96 94 151 152 153 
43 90 92 69 154 155 134 
44 68 101 99 156 157 158 
45 70 108 96 159 160 161 
46 94 121 75 162 163 153 
47 98 123 35 164 165 150 
48 68 102 101 166 167 156 
49 66 94 93 168 169 170 
50 66 93 91 170 171 172 
51 80 110 95 173 174 175 
52 96 108 95 160 176 177 
53 95 110 93 174 178 179 
54 95 108 80 176 180 175 
55 71 117 104 181 182 137 
56 82 103 83 183 184 185 
57 94 95 93 186 179 169 
58 102 104 103 138 187 188 
59 83 103 86 184 189 190 
60 101 103 82 191 183 192 
61 102 103 101 188 191 167 
62 94 96 95 152 177 186 
63 99 119 68 193 194 158 
64 96 114 70 195 196 161 
65 103 104 86 187 197 189 
66 104 105 86 198 199 197 
67 97 100 77 200 201 202 
68 99 101 100 157 203 204 
69 22 106 70 205 206 207 
70 24 76 67 208 209 210 
71 73 98 97 211 212 213 
72 76 97 77 214 202 215 
73 80 108 78 180 216 217 
74 79 82 81 218 219 220 
75 84 110 81 221 222 223 
76 99 100 97 204 200 224 
77 83 84 81 225 223 226 
78 85 87 84 227 228 229 
79 88 110 84 230 221 231 
80 87 90 88 232 233 234 
81 22 70 21 207 235 29 
82 23 106 22 236 205 30 
83 24 67 23 210 237 31 
84 67 106 23 238 236 237 
85 25 76 24 239 208 32 
86 26 73 25 240 241 33 
87 73 76 25 242 239 241 
88 38 68 37 243 244 45 
89 40 71 39 245 246 47 
90 54 107 53 247 248 61 
91 53 107 65 248 249 250 
92 73 97 76 213 214 242 
93 77 79 78 251 252 253 
94 79 80 78 254 217 252 
95 79 100 82 255 256 218 
96 81 110 80 222 173 257 
97 82 83 81 185 226 219 
98 83 85 84 258 229 225 
99 91 93 88 171 259 260 
100 93 110 88 178 230 259 
101 98 99 97 261 224 212 
102 7 69 6 262 263 14 
103 9 66 8 264 265 16 
104 11 75 10 266 267 18 
105 51 74 50 268 269 58 
106 52 109 51 270 271 59 
107 51 109 74 271 131 268 
108 53 65 52 250 272 60 
109 65 109 52 273 270 272 
110 55 72 54 274 275 62 
111 87 88 84 234 231 228 
112 90 91 88 133 260 233 
113 72 107 54 276 247 275 
114 106 108 70 277 159 206 
115 78 108 106 216 277 278 
116 76 77 67 215 279 209 
117 79 81 80 220 257 254 
118 85 89 87 280 281 227 
119 78 106 67 278 238 282 
120 77 100 79 201 255 251 
121 100 101 82 203 192 256 
122 83 86 85 190 283 258 
123 77 78 67 253 282 279 
124 92 115 69 284 285 155 
125 90 116 92 286 142 154 
126 55 111 72 287 147 274 
127 105 112 86 288 289 199 
128 86 112 85 289 290 283 
129 56 111 55 291 287 63 
130 85 112 89 290 292 280 
131 74 117 113 130 293 294 
132 41 113 40 295 296 48 
133 116 127 72 297 298 143 
134 69 115 6 285 299 263 
135 87 116 90 300 286 232 
136 91 118 66 141 301 172 
137 21 114 20 302 303 28 
138 70 114 21 196 302 235 
139 68 120 102 304 145 166 
140 66 121 94 305 162 168 
141 40 113 71 296 306 245 
142 75 114 96 307 195 151 
143 111 115 92 308 284 148 
144 7 118 69 309 140 262 
145 66 118 8 301 310 265 
146 68 119 37 194 311 244 
147 38 120 68 312 304 243 
148 71 120 39 146 313 246 
149 75 121 10 163 314 267 
150 9 121 66 315 305 264 
151 2 122 11 316 317 19 
152 20 122 2 318 316 27 
153 3 123 26 319 320 34 
154 35 123 3 165 319 42 
155 4 124 41 321 322 49 
156 50 124 4 323 321 57 
157 73 123 98 324 164 211 
158 6 115 5 299 325 13 
159 89 116 87 326 300 281 
160 5 125 1 327 328 12 
161 1 125 56 328 329 64 
162 113 117 71 293 181 306 
163 104 117 105 182 135 198 
164 36 119 98 330 331 149 
165 109 128 105 332 333 136 
166 8 118 7 310 309 15 
167 37 119 36 311 330 44 
168 98 119 99 331 193 261 
169 39 120 38 313 312 46 
170 41 124 113 322 334 295 
171 10 121 9 314 315 17 
172 74 124 50 335 323 269 
173 11 122 75 317 336 266 
174 26 123 73 320 324 240 
175 114 122 20 337 318 303 
176 65 128 109 338 332 273 
177 56 125 111 329 339 291 
178 126 127 89 340 341 342 
179 107 126 65 343 344 249 
180 107 127 126 345 340 343 
181 72 127 107 298 345 276 
182 113 124 74 334 335 294 
183 111 125 115 339 346 308 
184 75 122 114 336 337 307 
185 112 126 89 347 342 292 
186 105 128 112 333 348 288 
187 115 125 5 346 327 325 
188 126 128 65 349 338 344 
189 112 128 126 348 349 347 
190 89 127 116 341 297 326 
$EndElements
