$MeshFormat
4.1 0 8
$EndMeshFormat
$Entities
4 4 1 0
1 0 0 0 0 
2 1 0 0 0 
3 1 1 0 0 
4 0 1 0 0 
1 -9.999999994736442e-08 -1e-07 -1e-07 1.0000001 1e-07 1e-07 1 1 2 1 -2 
2 0.9999999000000001 -9.999999994736442e-08 -1e-07 1.0000001 1.0000001 1e-07 1 2 2 2 -3 
3 -9.999999994736442e-08 0.9999999000000001 -1e-07 1.0000001 1.0000001 1e-07 1 2 2 3 -4 
4 -1e-07 -9.999999994736442e-08 -1e-07 1e-07 1.0000001 1e-07 1 2 2 4 -1 
1 -9.999999994736442e-08 -9.999999994736442e-08 -1e-07 1.0000001 1.0000001 1e-07 1 10 4 1 2 3 4 
$EndEntities
$Nodes
9 31 1 31
0 1 0 1
1
0 0 0
0 2 0 1
2
1 0 0
0 3 0 1
3
1 1 0
0 4 0 1
4
0 1 0
1 1 0 3
5
6
7
0.25 0 0
0.5 0 0
0.75 0 0
1 2 0 3
8
9
10
1 0.25 0
1 0.5 0
1 0.75 0
1 3 0 3
11
12
13
0.75 1 0
0.5 1 0
0.25 1 0
1 4 0 3
14
15
16
0 0.75 0
0 0.5 0
0 0.25 0
2 1 0 15
17
18
19
20
21
22
23
24
25
26
27
28
29
30
31
0.2046118127312862 0.3640358958115698 0
0.7834936490538904 0.375 0
0.6239406576797809 0.788306988736042 0
0.3759949993707403 0.7885993441589132 0
0.5 0.5669872981077807 0
0.7874036008069086 0.6328802641586005 0
0.5203442540690987 0.2917273223602594 0
0.2365667220822626 0.6010369744916511 0
0.6896861734925069 0.1768489190752347 0
0.375 0.155290190286839 0
0.8169872981077807 0.8169872981077806 0
0.1830127018922193 0.8169872981077806 0
0.1780977805306465 0.1749592066742909 0
0.3832210891220217 0.4115988944960767 0
0.8540734935786138 0.1484804596480833 0
$EndNodes
$Elements
5 60 1 60
1 1 1 4
1 1 5 
2 5 6 
3 6 7 
4 7 2 
1 2 1 4
5 2 8 
6 8 9 
7 9 10 
8 10 3 
1 3 1 4
9 3 11 
10 11 12 
11 12 13 
12 13 4 
1 4 1 4
13 4 14 
14 14 15 
15 15 16 
16 16 1 
2 1 2 44
17 21 23 18 
18 18 22 21 
19 21 22 19 
20 20 24 21 
21 6 25 23 
22 24 30 21 
23 23 26 6 
24 20 21 19 
25 12 20 19 
26 16 17 15 
27 9 18 8 
28 12 19 11 
29 13 20 12 
30 7 25 6 
31 26 30 17 
32 10 22 9 
33 15 24 14 
34 17 24 15 
35 9 22 18 
36 21 30 23 
37 23 25 18 
38 11 27 3 
39 4 28 13 
40 14 28 4 
41 3 27 10 
42 5 29 1 
43 1 29 16 
44 17 30 24 
45 17 29 26 
46 18 31 8 
47 23 30 26 
48 10 27 22 
49 24 28 14 
50 6 26 5 
51 16 29 17 
52 19 27 11 
53 13 28 20 
54 25 31 18 
55 2 31 7 
56 8 31 2 
57 22 27 19 
58 20 28 24 
59 26 29 5 
60 7 31 25 
$EndElements
