$MeshFormat
4.1 0 8
$EndMeshFormat
$Entities
4 4 1 0
1 0 0 0 0 
2 1 0 0 0 
3 1 1 0 0 
4 0 1 0 0 
1 -9.999999994736442e-08 -1e-07 -1e-07 1.0000001 1e-07 1e-07 1 1 2 1 -2 
2 0.9999999000000001 -9.999999994736442e-08 -1e-07 1.0000001 1.0000001 1e-07 1 2 2 2 -3 
3 -9.999999994736442e-08 0.9999999000000001 -1e-07 1.0000001 1.0000001 1e-07 1 2 2 3 -4 
4 -1e-07 -9.999999994736442e-08 -1e-07 1e-07 1.0000001 1e-07 1 2 2 4 -1 
1 -9.999999994736442e-08 -9.999999994736442e-08 -1e-07 1.0000001 1.0000001 1e-07 1 10 4 1 2 3 4 
$EndEntities
$Nodes
9 1262 1 1262
0 1 0 1
1
0 0 0
0 2 0 1
2
1 0 0
0 3 0 1
3
1 1 0
0 4 0 1
4
0 1 0
1 1 0 31
5
6
7
8
9
10
11
12
13
14
15
16
17
18
19
20
21
22
23
24
25
26
27
28
29
30
31
32
33
34
35
0.03125 0 0
0.0625 0 0
0.09375 0 0
0.125 0 0
0.15625 0 0
0.1875 0 0
0.21875 0 0
0.25 0 0
0.28125 0 0
0.3125 0 0
0.34375 0 0
0.375 0 0
0.40625 0 0
0.4375 0 0
0.46875 0 0
0.5 0 0
0.53125 0 0
0.5625 0 0
0.59375 0 0
0.625 0 0
0.65625 0 0
0.6875 0 0
0.71875 0 0
0.75 0 0
0.78125 0 0
0.8125 0 0
0.84375 0 0
0.875 0 0
0.90625 0 0
0.9375 0 0
0.96875 0 0
1 2 0 31
36
37
38
39
40
41
42
43
44
45
46
47
48
49
50
51
52
53
54
55
56
57
58
59
60
61
62
63
64
65
66
1 0.03125 0
1 0.0625 0
1 0.09375 0
1 0.125 0
1 0.15625 0
1 0.1875 0
1 0.21875 0
1 0.25 0
1 0.28125 0
1 0.3125 0
1 0.34375 0
1 0.375 0
1 0.40625 0
1 0.4375 0
1 0.46875 0
1 0.5 0
1 0.53125 0
1 0.5625 0
1 0.59375 0
1 0.625 0
1 0.65625 0
1 0.6875 0
1 0.71875 0
1 0.75 0
1 0.78125 0
1 0.8125 0
1 0.84375 0
1 0.875 0
1 0.90625 0
1 0.9375 0
1 0.96875 0
1 3 0 31
67
68
69
70
71
72
73
74
75
76
77
78
79
80
81
82
83
84
85
86
87
88
89
90
91
92
93
94
95
96
97
0.96875 1 0
0.9375 1 0
0.90625 1 0
0.875 1 0
0.84375 1 0
0.8125 1 0
0.78125 1 0
0.75 1 0
0.71875 1 0
0.6875 1 0
0.65625 1 0
0.625 1 0
0.59375 1 0
0.5625 1 0
0.53125 1 0
0.5 1 0
0.46875 1 0
0.4375 1 0
0.40625 1 0
0.375 1 0
0.34375 1 0
0.3125 1 0
0.28125 1 0
0.25 1 0
0.21875 1 0
0.1875 1 0
0.15625 1 0
0.125 1 0
0.09375 1 0
0.0625 1 0
0.03125 1 0
1 4 0 31
98
99
100
101
102
103
104
105
106
107
108
109
110
111
112
113
114
115
116
117
118
119
120
121
122
123
124
125
126
127
128
0 0.96875 0
0 0.9375 0
0 0.90625 0
0 0.875 0
0 0.84375 0
0 0.8125 0
0 0.78125 0
0 0.75 0
0 0.71875 0
0 0.6875 0
0 0.65625 0
0 0.625 0
0 0.59375 0
0 0.5625 0
0 0.53125 0
0 0.5 0
0 0.46875 0
0 0.4375 0
0 0.40625 0
0 0.375 0
0 0.34375 0
0 0.3125 0
0 0.28125 0
0 0.25 0
0 0.21875 0
0 0.1875 0
0 0.15625 0
0 0.125 0
0 0.09375 0
0 0.0625 0
0 0.03125 0
2 1 0 1134
129
130
131
132
133
134
135
136
137
138
139
140
141
142
143
144
145
146
147
148
149
150
151
152
153
154
155
156
157
158
159
160
161
162
163
164
165
166
167
168
169
170
171
172
173
174
175
176
177
178
179
180
181
182
183
184
185
186
187
188
189
190
191
192
193
194
195
196
197
198
199
200
201
202
203
204
205
206
207
208
209
210
211
212
213
214
215
216
217
218
219
220
221
222
223
224
225
226
227
228
229
230
231
232
233
234
235
236
237
238
239
240
241
242
243
244
245
246
247
248
249
250
251
252
253
254
255
256
257
258
259
260
261
262
263
264
265
266
267
268
269
270
271
272
273
274
275
276
277
278
279
280
281
282
283
284
285
286
287
288
289
290
291
292
293
294
295
296
297
298
299
300
301
302
303
304
305
306
307
308
309
310
311
312
313
314
315
316
317
318
319
320
321
322
323
324
325
326
327
328
329
330
331
332
333
334
335
336
337
338
339
340
341
342
343
344
345
346
347
348
349
350
351
352
353
354
355
356
357
358
359
360
361
362
363
364
365
366
367
368
369
370
371
372
373
374
375
376
377
378
379
380
381
382
383
384
385
386
387
388
389
390
391
392
393
394
395
396
397
398
399
400
401
402
403
404
405
406
407
408
409
410
411
412
413
414
415
416
417
418
419
420
421
422
423
424
425
426
427
428
429
430
431
432
433
434
435
436
437
438
439
440
441
442
443
444
445
446
447
448
449
450
451
452
453
454
455
456
457
458
459
460
461
462
463
464
465
466
467
468
469
470
471
472
473
474
475
476
477
478
479
480
481
482
483
484
485
486
487
488
489
490
491
492
493
494
495
496
497
498
499
500
501
502
503
504
505
506
507
508
509
510
511
512
513
514
515
516
517
518
519
520
521
522
523
524
525
526
527
528
529
530
531
532
533
534
535
536
537
538
539
540
541
542
543
544
545
546
547
548
549
550
551
552
553
554
555
556
557
558
559
560
561
562
563
564
565
566
567
568
569
570
571
572
573
574
575
576
577
578
579
580
581
582
583
584
585
586
587
588
589
590
591
592
593
594
595
596
597
598
599
600
601
602
603
604
605
606
607
608
609
610
611
612
613
614
615
616
617
618
619
620
621
622
623
624
625
626
627
628
629
630
631
632
633
634
635
636
637
638
639
640
641
642
643
644
645
646
647
648
649
650
651
652
653
654
655
656
657
658
659
660
661
662
663
664
665
666
667
668
669
670
671
672
673
674
675
676
677
678
679
680
681
682
683
684
685
686
687
688
689
690
691
692
693
694
695
696
697
698
699
700
701
702
703
704
705
706
707
708
709
710
711
712
713
714
715
716
717
718
719
720
721
722
723
724
725
726
727
728
729
730
731
732
733
734
735
736
737
738
739
740
741
742
743
744
745
746
747
748
749
750
751
752
753
754
755
756
757
758
759
760
761
762
763
764
765
766
767
768
769
770
771
772
773
774
775
776
777
778
779
780
781
782
783
784
785
786
787
788
789
790
791
792
793
794
795
796
797
798
799
800
801
802
803
804
805
806
807
808
809
810
811
812
813
814
815
816
817
818
819
820
821
822
823
824
825
826
827
828
829
830
831
832
833
834
835
836
837
838
839
840
841
842
843
844
845
846
847
848
849
850
851
852
853
854
855
856
857
858
859
860
861
862
863
864
865
866
867
868
869
870
871
872
873
874
875
876
877
878
879
880
881
882
883
884
885
886
887
888
889
890
891
892
893
894
895
896
897
898
899
900
901
902
903
904
905
906
907
908
909
910
911
912
913
914
915
916
917
918
919
920
921
922
923
924
925
926
927
928
929
930
931
932
933
934
935
936
937
938
939
940
941
942
943
944
945
946
947
948
949
950
951
952
953
954
955
956
957
958
959
960
961
962
963
964
965
966
967
968
969
970
971
972
973
974
975
976
977
978
979
980
981
982
983
984
985
986
987
988
989
990
991
992
993
994
995
996
997
998
999
1000
1001
1002
1003
1004
1005
1006
1007
1008
1009
1010
1011
1012
1013
1014
1015
1016
1017
1018
1019
1020
1021
1022
1023
1024
1025
1026
1027
1028
1029
1030
1031
1032
1033
1034
1035
1036
1037
1038
1039
1040
1041
1042
1043
1044
1045
1046
1047
1048
1049
1050
1051
1052
1053
1054
1055
1056
1057
1058
1059
1060
1061
1062
1063
1064
1065
1066
1067
1068
1069
1070
1071
1072
1073
1074
1075
1076
1077
1078
1079
1080
1081
1082
1083
1084
1085
1086
1087
1088
1089
1090
1091
1092
1093
1094
1095
1096
1097
1098
1099
1100
1101
1102
1103
1104
1105
1106
1107
1108
1109
1110
1111
1112
1113
1114
1115
1116
1117
1118
1119
1120
1121
1122
1123
1124
1125
1126
1127
1128
1129
1130
1131
1132
1133
1134
1135
1136
1137
1138
1139
1140
1141
1142
1143
1144
1145
1146
1147
1148
1149
1150
1151
1152
1153
1154
1155
1156
1157
1158
1159
1160
1161
1162
1163
1164
1165
1166
1167
1168
1169
1170
1171
1172
1173
1174
1175
1176
1177
1178
1179
1180
1181
1182
1183
1184
1185
1186
1187
1188
1189
1190
1191
1192
1193
1194
1195
1196
1197
1198
1199
1200
1201
1202
1203
1204
1205
1206
1207
1208
1209
1210
1211
1212
1213
1214
1215
1216
1217
1218
1219
1220
1221
1222
1223
1224
1225
1226
1227
1228
1229
1230
1231
1232
1233
1234
1235
1236
1237
1238
1239
1240
1241
1242
1243
1244
1245
1246
1247
1248
1249
1250
1251
1252
1253
1254
1255
1256
1257
1258
1259
1260
1261
1262
0.4843749999999994 0.02706329386826345 0
0.9751061557285488 0.5174523591723216 0
0.4877391803304245 0.9692265520165801 0
0.0283505175021268 0.4855596955551777 0
0.640625 0.0270632938682635 0
0.640625 0.9729367061317362 0
0.02846283010651907 0.6437522858687967 0
0.9709556844555223 0.360360697119922 0
0.3281249999999999 0.02706329386826384 0
0.9720798077828755 0.6697839777705463 0
0.328125 0.9729367061317362 0
0.03154160262442646 0.3267573255653412 0
0.7656249999999987 0.02706329386826239 0
0.765625 0.9729367061317362 0
0.02972494112259777 0.7619473778503021 0
0.973406856910542 0.2337296168123144 0
0.02706329386826373 0.203125 0
0.9766516069170754 0.7975253528923908 0
0.203125 0.9729367061317362 0
0.2031249999999997 0.02706329386826389 0
0.8593749999999992 0.02706329386826334 0
0.02792866067741262 0.8574729244282093 0
0.859375 0.9729367061317362 0
0.9735067870868258 0.1416124091786426 0
0.1093750000000001 0.02706329386826378 0
0.109375 0.9729367061317362 0
0.9719596310343923 0.8876865671649768 0
0.02774059618858504 0.1087065635194223 0
0.265625 0.02706329386826373 0
0.390625 0.02706329386826373 0
0.5468749999999999 0.02706329386826367 0
0.7031249999999991 0.02706329386826306 0
0.02706329386826373 0.703125 0
0.02583975113366499 0.5780946422910569 0
0.02971305573952682 0.4266912425218148 0
0.02473212144727277 0.2649405995683815 0
0.9737544147963526 0.298291312952905 0
0.9727435915793492 0.4216803199141076 0
0.9723888399622812 0.5783391663301092 0
0.971855544426784 0.7371472657397935 0
0.703125 0.9729367061317362 0
0.578125 0.9729367061317362 0
0.4185529309652232 0.9696770855259127 0
0.265625 0.9729367061317362 0
0.9218749999999999 0.02706329386826356 0
0.9215381170439462 0.9716261821039807 0
0.03140774963062459 0.92097127773787 0
0.9719907460951427 0.0754148232904186 0
0.02814910668388027 0.05097443699732346 0
0.9739757396168468 0.9535089738733256 0
0.04918736927975575 0.9714781533723537 0
0.07838040680039926 0.02691583468330028 0
0.09379256780006651 0.05410201120570018 0
0.1250070946333445 0.05412249164805644 0
0.1093832770722351 0.08118510283490815 0
0.14062756195093 0.08118840246173237 0
0.1250018065038609 0.1082521324875647 0
0.1562507280757985 0.1082527551182967 0
0.1406254224299434 0.1353162254512772 0
0.171875191750957 0.1353163586338519 0
0.1562501023634835 0.1623797041099976 0
0.1875000490190735 0.162379734908407 0
0.1718750252304263 0.1894430425110527 0
0.2031250123749168 0.1894430499331845 0
0.1875000062675574 0.2165063473275339 0
0.2187500031070792 0.2165063491522367 0
0.2031250015624397 0.2435696439122985 0
0.2343750007782532 0.2435696443650487 0
0.2187500003901158 0.2706329384574038 0
0.2500000001947282 0.270632938570211 0
0.2343750000974743 0.2976962324946242 0
0.2656250000487007 0.2976962325227838 0
0.2500000000243627 0.3247595264050989 0
0.2812500000121775 0.324759526412134 0
0.2656250000060902 0.3518228202839121 0
0.2968750000030448 0.3518228202856704 0
0.2812500000015228 0.3788861141548128 0
0.3125000000007622 0.3788861141552526 0
0.2968750000003812 0.4059494080237358 0
0.3281250000001915 0.4059494080238463 0
0.3125000000000958 0.4330127018921643 0
0.3437500000000482 0.433012701892192 0
0.3281250000000244 0.4600759957604691 0
0.3593750000000125 0.4600759957604759 0
0.3750000000000104 0.4330127018922139 0
0.3906250000000043 0.4600759957604806 0
0.4062500000000028 0.4330127018922179 0
0.4218750000000016 0.4600759957604819 0
0.4375000000000007 0.4330127018922186 0
0.4531250000000008 0.4600759957604822 0
0.4687500000000006 0.4330127018922188 0
0.4843750000000007 0.4600759957604822 0
0.5000000000000006 0.4330127018922185 0
0.3750000000000033 0.4871392896287449 0
0.5156250000000006 0.4600759957604821 0
0.5000000000000007 0.4871392896287459 0
0.5312500000000006 0.4330127018922184 0
0.5312500000000007 0.4871392896287458 0
0.5156250000000008 0.5142025834970095 0
0.5468750000000008 0.5142025834970093 0
0.5312500000000009 0.5412658773652731 0
0.5625000000000009 0.541265877365273 0
0.5468750000000011 0.5683291712335368 0
0.5781250000000011 0.5683291712335365 0
0.5937500000000009 0.5412658773652728 0
0.6093750000000011 0.5683291712335363 0
0.5156250000000004 0.4059494080239547 0
0.5468750000000004 0.4059494080239546 0
0.5937500000000013 0.5953924651018001 0
0.6250000000000009 0.5412658773652725 0
0.6250000000000013 0.5953924651018 0
0.2968750000101469 0.2976962325450431 0
0.6093750000000014 0.6224557589700638 0
0.6406250000000014 0.6224557589700636 0
0.5312500000000003 0.378886114155691 0
0.5625000000000003 0.3788861141556908 0
0.5468750000000002 0.3518228202874272 0
0.5781250000000002 0.3518228202874271 0
0.6250000000000016 0.6495190528383273 0
0.6562500000000016 0.6495190528383271 0
0.6718750000000014 0.6224557589700633 0
0.5937500000000016 0.6495190528383276 0
0.6875000000000017 0.6495190528383269 0
0.6718750000000016 0.6765823467065908 0
0.5625000000000001 0.3247595264191634 0
0.5937500000000001 0.3247595264191633 0
0.2968750000000205 0.4600759957604715 0
0.7031250000000013 0.622455758970063 0
0.6093750000000002 0.351822820287427 0
0.6250000000000001 0.3247595264191632 0
0.6406250000000002 0.3518228202874268 0
0.6562500000000001 0.324759526419163 0
0.6718750000000002 0.3518228202874266 0
0.6875 0.3247595264191628 0
0.7031250000000018 0.6765823467065906 0
0.7031250000000002 0.3518228202874264 0
0.6093750000000001 0.2976962325508996 0
0.71875 0.3247595264191625 0
0.7031249999999998 0.2976962325508989 0
0.6875000000000018 0.7036456405748543 0
0.718750000000002 0.7036456405748541 0
0.5156250000000011 0.568329171233537 0
0.7343750000000002 0.3518228202874261 0
0.7343749999999998 0.2976962325508987 0
0.5312500000000001 0.3247595264191635 0
0.2500000006475559 0.2165063505722443 0
0.7187499999999996 0.2706329386826351 0
0.7031250000000021 0.7307089344431179 0
0.7343750000000022 0.7307089344431181 0
0.6718750000000016 0.7307089344431186 0
0.750000000000002 0.703645640574854 0
0.7499999999999996 0.2706329386826347 0
0.2500000000012691 0.3788861141549594 0
0.7656250000000022 0.7307089344431179 0
0.7343749999999993 0.2435696448143713 0
0.7656249999999993 0.2435696448143708 0
0.718750000000002 0.7577722283113824 0
0.7187500000000004 0.3788861141556899 0
0.7500000000000004 0.3788861141556897 0
0.7343750000000007 0.4059494080239535 0
0.7656250000000006 0.4059494080239534 0
0.7812500000000004 0.3788861141556895 0
0.781250000000002 0.7036456405748537 0
0.7500000000000009 0.4330127018922171 0
0.7812500000000008 0.433012701892217 0
0.4218750000000021 0.4059494080239556 0
0.749999999999999 0.2165063509461073 0
0.7187499999999989 0.2165063509461078 0
0.781249999999999 0.216506350946107 0
0.7968750000000022 0.7307089344431172 0
0.7968749999999993 0.2435696448143705 0
0.2031250000812653 0.2976962325039826 0
0.7656250000000011 0.4600759957604807 0
0.796875000000001 0.4600759957604805 0
0.812499999999999 0.2165063509461067 0
0.7812500000000012 0.4871392896287443 0
0.8125000000000013 0.487139289628744 0
0.7968750000000014 0.5142025834970079 0
0.812500000000002 0.7036456405748535 0
0.7343749999999986 0.1894430570778438 0
0.7031249999999986 0.1894430570778443 0
0.7968750000000018 0.6765823467065898 0
0.8281250000000016 0.5142025834970076 0
0.8281250000000022 0.730708934443117 0
0.8125000000000022 0.7577722283113809 0
0.8281250000000018 0.6765823467065896 0
0.8281249999999993 0.2435696448143702 0
0.828125000000001 0.46007599576048 0
0.843749999999999 0.2165063509461063 0
0.8281249999999988 0.1894430570778428 0
0.7187500000000008 0.4330127018922173 0
0.1562500052496643 0.2165063479152149 0
0.8437500000000024 0.7577722283113806 0
0.8281250000000026 0.7848355221796445 0
0.7500000000000011 0.4871392896287445 0
0.2187500102323314 0.1623797573019429 0
0.5781250000000004 0.4059494080239545 0
0.3125000000000026 0.4871392896287454 0
0.2812500000000044 0.4871392896287445 0
0.2968750000000017 0.5142025834970098 0
0.2656250000000016 0.51420258349701 0
0.281250000000001 0.541265877365274 0
0.2500000000000011 0.5412658773652741 0
0.2656250000000009 0.5683291712335378 0
0.2968750000000009 0.5683291712335377 0
0.281250000000001 0.5953924651018014 0
0.312500000000001 0.5953924651018014 0
0.2968750000000011 0.6224557589700651 0
0.3281250000000011 0.622455758970065 0
0.3125000000000013 0.6495190528383288 0
0.3437500000000012 0.6495190528383287 0
0.3281250000000013 0.6765823467065925 0
0.2968750000000015 0.6765823467065925 0
0.3593750000000013 0.6765823467065923 0
0.3437500000000014 0.703645640574856 0
0.3750000000000014 0.7036456405748559 0
0.3593750000000016 0.7307089344431197 0
0.3906250000000016 0.7307089344431196 0
0.2500000000000011 0.5953924651018015 0
0.3750000000000016 0.7577722283113835 0
0.4062500000000016 0.7577722283113834 0
0.3437500000000017 0.7577722283113835 0
0.2343750000000009 0.5142025834970104 0
0.3593750000000019 0.7848355221796471 0
0.3281250000000018 0.7848355221796472 0
0.4218750000000016 0.7307089344431196 0
0.4375000000000016 0.7577722283113832 0
0.3593750000000011 0.622455758970065 0
0.4531250000000016 0.7307089344431197 0
0.4687500000000016 0.7577722283113834 0
0.4531250000000016 0.784835522179647 0
0.4843750000000016 0.7848355221796471 0
0.3437500000000019 0.8118988160479109 0
0.3125000000000019 0.811898816047911 0
0.4687500000000016 0.8118988160479108 0
0.5000000000000014 0.8118988160479108 0
0.5156250000000016 0.7848355221796471 0
0.5312500000000014 0.8118988160479109 0
0.2968750000000018 0.7848355221796475 0
0.2812500000000019 0.8118988160479111 0
0.2656250000000018 0.7848355221796476 0
0.2500000000000018 0.8118988160479111 0
0.2343750000000019 0.7848355221796476 0
0.2187500000000018 0.8118988160479111 0
0.2031250000000018 0.7848355221796475 0
0.1875000000000019 0.811898816047911 0
0.1718750000000018 0.7848355221796475 0
0.1875000000000019 0.7577722283113838 0
0.1562500000000019 0.7577722283113837 0
0.1718750000000019 0.73070893444312 0
0.5156250000000014 0.8389621099161746 0
0.5468750000000014 0.8389621099161746 0
0.2343750000000018 0.8389621099161748 0
0.1562500000000019 0.8118988160479111 0
0.2968750000000019 0.8389621099161748 0
0.5625000000000014 0.8118988160479109 0
0.5781250000000014 0.8389621099161746 0
0.4375000000000016 0.7036456405748559 0
0.4843750000000016 0.7307089344431197 0
0.4843750000000008 0.5142025834970098 0
0.2187500000000009 0.5412658773652742 0
0.2031250000000008 0.5142025834970106 0
0.1875000000000009 0.5412658773652743 0
0.1718750000000008 0.5142025834970108 0
0.1562500000000009 0.5412658773652745 0
0.546875 0.2976962325508997 0
0.515625 0.2976962325508998 0
0.53125 0.2706329386826361 0
0.4999999999999999 0.2706329386826362 0
0.5156249999999999 0.2435696448143724 0
0.4843750000000001 0.2435696448143725 0
0.4999999999999998 0.2165063509461088 0
0.4687500000000001 0.216506350946109 0
0.5312499999999998 0.2165063509461087 0
0.4687500000000006 0.2706329386826365 0
0.5156249999999999 0.189443057077845 0
0.5468749999999998 0.1894430570778449 0
0.1718750000000019 0.8389621099161748 0
0.1875000000000008 0.4871392896287469 0
0.1562500000000008 0.4871392896287471 0
0.1718750000000007 0.4600759957604833 0
0.8125000000000016 0.5412658773652715 0
0.8437500000000017 0.5412658773652712 0
0.3281250000006358 0.3518228202870625 0
0.1718750000000012 0.5683291712335381 0
0.5312499999999998 0.1623797632095813 0
0.5624999999999998 0.1623797632095811 0
0.4999999999999998 0.1623797632095813 0
0.5781249999999998 0.1894430570778448 0
0.5937499999999998 0.1623797632095811 0
0.718749999999998 0.1623797632095804 0
0.8593749999999993 0.2435696448143698 0
0.8437499999999997 0.2706329386826337 0
0.859375000000002 0.7307089344431167 0
0.8593750000000016 0.5142025834970075 0
0.8593749999999989 0.1894430570778425 0
0.8437499999999987 0.1623797632095789 0
0.5312500000000013 0.8660254037844384 0
0.5000000000000013 0.8660254037844382 0
0.1406250000000008 0.4600759957604834 0
0.1562500000000007 0.4330127018922197 0
0.1406250000000011 0.5683291712335383 0
0.1562500000000014 0.595392465101802 0
0.8593750000000022 0.7848355221796443 0
0.8437500000000027 0.811898816047908 0
0.8125000000000028 0.8118988160479086 0
0.8281250000000032 0.8389621099161719 0
0.7968750000000033 0.8389621099161724 0
0.8593750000000029 0.8389621099161715 0
0.8125000000000037 0.8660254037844358 0
0.7812500000000034 0.8660254037844363 0
0.140625000000002 0.73070893444312 0
0.1406250000000019 0.8389621099161749 0
0.156250000000002 0.8660254037844386 0
0.5937500000000014 0.8118988160479108 0
0.6093750000000014 0.8389621099161745 0
0.5781250000000014 0.7848355221796471 0
0.7812500000000016 0.5412658773652717 0
0.5000000000000007 0.3247595264191641 0
0.6093750000000008 0.514202583497009 0
0.6406250000000008 0.5142025834970088 0
0.6874999999999991 0.2165063509461081 0
0.5156249999999997 0.1353164693413175 0
0.4843749999999997 0.1353164693413177 0
0.5781249999999997 0.1353164693413174 0
0.6093749999999996 0.1353164693413173 0
0.125000000000001 0.5412658773652748 0
0.5937500000000017 0.8660254037844383 0
0.6250000000000016 0.8660254037844379 0
0.6406250000000014 0.8389621099161744 0
0.6562500000000016 0.8660254037844379 0
0.1250000000000021 0.8660254037844385 0
0.1250000000000021 0.8118988160479113 0
0.8125000000000016 0.649519052838326 0
0.8437500000000017 0.6495190528383258 0
0.2031250000000019 0.7307089344431201 0
0.1875000000000019 0.7036456405748563 0
0.1250000000000013 0.5953924651018022 0
0.1250000874655712 0.1623797127113112 0
0.8750000000000017 0.5412658773652712 0
0.8749999999999996 0.2706329386826335 0
0.859375 0.2976962325508972 0
0.1250000000000006 0.4330127018922198 0
0.1406250000000006 0.4059494080239561 0
0.8737681511736478 0.1616685549580842 0
0.8591696918622734 0.1351979346327326 0
0.8280907819770444 0.1352967135565516 0
0.6718750000000016 0.8389621099161744 0
0.6875000000000016 0.866025403784438 0
0.7656250000000027 0.838962109916173 0
0.8281249999999999 0.2976962325508976 0
0.8437500000000002 0.3247595264191611 0
0.8750000000000002 0.3247595264191608 0
0.8593750000000007 0.3518228202874246 0
0.6093750000000017 0.6765823467065911 0
0.5781250000000018 0.6765823467065915 0
0.3281250000000009 0.5683291712335378 0
0.6562500000000003 0.3788861141556903 0
0.5312500000000013 0.5953924651018005 0
0.5000000000000013 0.5953924651018008 0
0.2031250000000007 0.4600759957604831 0
0.5156250000000014 0.6224557589700643 0
0.4843750000000015 0.6224557589700647 0
0.4687500000000013 0.595392465101801 0
0.1875001533044592 0.1082530869626844 0
0.6875000000000011 0.5953924651017994 0
0.3750000000000018 0.8118988160479109 0
0.3593750000000019 0.8389621099161746 0
0.3906250000000018 0.8389621099161745 0
0.3750000000000019 0.8660254037844383 0
0.6250000000000007 0.4871392896287451 0
0.4062500000000018 0.8660254037844383 0
0.4531250000000015 0.6224557589700649 0
0.4375000000000013 0.5953924651018013 0
0.1406250000000016 0.6224557589700658 0
0.1718750000000016 0.6224557589700656 0
0.5937499999999996 0.1082531754730537 0
0.6249999999999994 0.1082531754730535 0
0.1093750000000006 0.4059494080239561 0
0.1250000000000004 0.3788861141556923 0
0.1562500000000006 0.3788861141556923 0
0.1406250000000005 0.3518228202874286 0
0.8920950707044855 0.1886886179032289 0
0.8891536250129684 0.1344669705964742 0
0.7968750000000042 0.8930886976526997 0
0.7656250000000028 0.8930886976527007 0
0.8281250000000041 0.8930886976526993 0
0.1406250000000021 0.8930886976527022 0
0.1718750000000021 0.8930886976527022 0
0.515625000000001 0.8930886976527019 0
0.4843750000000009 0.8925914403543382 0
0.6718750000000014 0.8930886976527017 0
0.3906250000000019 0.893088697652702 0
0.3593750000000019 0.8930886976527019 0
0.6093750000000017 0.8930886976527019 0
0.8906250000000016 0.5142025834970074 0
0.1093750000000021 0.8930886976527023 0
0.1093750000000007 0.4600759957604836 0
0.1093750000000005 0.3518228202874285 0
0.1250000000000007 0.3247595264191649 0
0.8898397972996186 0.3522761572778584 0
0.8748691328832704 0.3789616703207604 0
0.1096219732127014 0.6225983490209008 0
0.6093750000000013 0.784835522179647 0
0.5937500000000013 0.7577722283113835 0
0.749999999999998 0.1623797632095798 0
0.7343749999999974 0.1353164693413163 0
0.7187500000000012 0.5953924651017992 0
0.7031250000000011 0.5683291712335357 0
0.5000000000000017 0.6495190528383282 0
0.6562500000000007 0.4871392896287449 0
0.7812500000000016 0.6495190528383263 0
0.2812500000000018 0.7577722283113837 0
0.6406250000000004 0.4600759957604813 0
0.8593750000000018 0.5683291712335349 0
0.890625000000002 0.5683291712335347 0
0.2187500000000018 0.7036456405748563 0
0.7968750000000018 0.5683291712335351 0
0.1251754093880473 0.6494653101978678 0
0.6093749999999998 0.1894430570778446 0
0.5937499999999999 0.2165063509461085 0
0.4999999999999994 0.1082531754730539 0
0.4687499999999993 0.1082531754730544 0
0.4531249999999998 0.1353164693413182 0
0.4374999999999993 0.1082531754730548 0
0.4218749999999998 0.1353164693413189 0
0.4062499999999993 0.1082531754730553 0
0.3906249999999998 0.1353164693413195 0
0.3749999999999993 0.108253175473056 0
0.3593749999999998 0.1353164693413201 0
0.3750000000000004 0.1623797632095836 0
0.3437500000000004 0.1623797632095841 0
0.3593750000000009 0.1894430570778475 0
0.3281249999999994 0.1353164693413204 0
0.3281250000000009 0.1894430570778481 0
0.3437500000000014 0.2165063509461116 0
0.3750000000000014 0.216506350946111 0
0.3593750000000019 0.243569644814375 0
0.6406249999999992 0.1353164693413173 0
0.6562499999999987 0.1082531754730537 0
0.3906250000000019 0.2435696448143744 0
0.3750000000000024 0.2706329386826384 0
0.8437100789732184 0.1082301270574937 0
0.8124967834995066 0.1082513184256271 0
0.3750000000000019 0.9201519915209658 0
0.1562500000000021 0.9201519915209659 0
0.8125000000000044 0.9201519915209633 0
0.9053121189967666 0.3794276000053729 0
0.8904468753133399 0.4060522483597446 0
0.09375000000000178 0.64951905283833 0
0.9036491077445887 0.3256122334491586 0
0.09375000000000061 0.3247595264191647 0
0.1093750000000008 0.2976962325509011 0
0.09375168059601585 0.1082522051804927 0
0.09446409854674859 0.5953128902322247 0
0.093750000000002 0.8660254037844386 0
0.07891744068309525 0.3513653044457268 0
0.7031250000000014 0.8930886976527018 0
0.3125000000000013 0.216506350946112 0
0.7031250000000016 0.8389621099161743 0
0.6875000000000016 0.8118988160479106 0
0.8593487251867872 0.4059645777944333 0
0.5468750000000012 0.8930886976527022 0
0.5312500000000007 0.9201519915209658 0
0.4531249999999988 0.08118988160479068 0
0.8750000000000016 0.4871392896287437 0
0.9062500000000012 0.4871392896287435 0
0.8125000000000003 0.3247595264191614 0
0.3906250000000013 0.6765823467065922 0
0.1718750000000004 0.3518228202874286 0
0.875000000000002 0.5953924651017984 0
0.9062500000000021 0.5953924651017982 0
0.8906250000000021 0.622455758970062 0
0.921875000000002 0.622455758970062 0
0.906250000000002 0.6495190528383258 0
0.4531250000000011 0.5683291712335374 0
0.4218750000000011 0.5683291712335378 0
0.4375000000000008 0.5412658773652739 0
0.4062500000000008 0.5412658773652742 0
0.125000000000002 0.7577722283113838 0
0.1093675447319816 0.7303884954699824 0
0.09374875745533212 0.7577188218158611 0
0.5312499999999996 0.1082531754730538 0
0.5937500000000007 0.4871392896287453 0
0.5000000000000009 0.3788861141556912 0
0.2656250000000046 0.4600759957604807 0
0.3281250000000013 0.5142025834970099 0
0.6718750000000008 0.5142025834970085 0
0.6875000000000007 0.4871392896287447 0
0.2031250000000019 0.6765823467065927 0
0.8593750000000018 0.6765823467065893 0
0.1875000000000006 0.3788861141556921 0
0.5625000000000014 0.7577722283113834 0
0.5625 0.270632938682636 0
0.7187500000000013 0.8118988160479105 0
0.7031250000000008 0.5142025834970083 0
0.6874999999999997 0.2706329386826354 0
0.4218750000000014 0.622455758970065 0
0.6093749999999993 0.08118988160479002 0
0.2343750000000018 0.6765823467065926 0
0.2187500000000017 0.649519052838329 0
0.3906250000000011 0.568329171233538 0
0.8281250000000017 0.6224557589700622 0
0.1406250000000008 0.2976962325509013 0
0.1250000000000009 0.2706329386826376 0
0.093750000000001 0.2706329386826373 0
0.8895905333209064 0.2441668944300116 0
0.9058405194696526 0.2705956081934235 0
0.2500000000000018 0.7036456405748563 0
0.4218750000000017 0.893088697652702 0
0.4687500000000013 0.8659425275680442 0
0.8281178104121192 0.08118573069429136 0
0.6249999999999999 0.2165063509461083 0
0.5781249999999993 0.08118988160479018 0
0.5156249999999994 0.08118988160479035 0
0.6406249999999994 0.1894430570778445 0
0.4375000000000004 0.1623797632095823 0
0.4062500000000013 0.2165063509461105 0
0.1093750000000011 0.2435696448143737 0
0.4062500000000021 0.270632938682638 0
0.3906250000000028 0.2976962325509019 0
0.3593750000000028 0.2976962325509024 0
0.3750000000000027 0.3247595264191655 0
0.4062500000000032 0.3247595264191653 0
0.2968750000000008 0.1894430570778486 0
0.7968732656519361 0.08118888027846827 0
0.3906250000000035 0.351822820287429 0
0.4218750000000036 0.3518228202874285 0
0.4375000000000027 0.3247595264191649 0
0.8593671482308881 0.08118534838377922 0
0.07886344717728305 0.2439959874909596 0
0.09387307452954796 0.2165774080588742 0
0.8437500000000043 0.9196547342225995 0
0.8593750000000039 0.8930058214363049 0
0.8750000000000044 0.9195580453034728 0
0.8906250000000038 0.8929758939137177 0
0.9062500000000044 0.9195369425631867 0
0.3437500000000019 0.9196547342226021 0
0.3281250000000019 0.8930058214363081 0
0.3125000000000021 0.9195580453034762 0
0.2968750000000019 0.8929758939137218 0
0.1875000000000021 0.9196547342226022 0
0.2031250000000021 0.8930058214363084 0
0.218750000000002 0.9195580453034763 0
0.2343750000000019 0.8929758939137217 0
0.2812500000000022 0.9195369425631907 0
0.5625000000000009 0.9196547342226024 0
0.07904272039017335 0.8936185437670086 0
0.07811609509653306 0.7303261878918728 0
0.9211578462738468 0.5679151223366885 0
0.6875000000000013 0.919654734222602 0
0.7187500000000013 0.9195718580062081 0
0.6562500000000016 0.919571858006208 0
0.09390295339836374 0.9197430419083201 0
0.6250000000000013 0.7577722283113832 0
0.5781250000000014 0.7307089344431196 0
0.5468750000000014 0.7307089344431195 0
0.8749659334166879 0.433032370243261 0
0.9062146347883384 0.4330331200066887 0
0.7656249999999976 0.1353164693413157 0
0.749999999999997 0.1082531754730525 0
0.718749999999997 0.1082531754730529 0
0.7343749999999962 0.08118988160478913 0
0.7031249999999964 0.08118988160478979 0
0.3906249999999989 0.0811898816047919 0
0.3593749999999989 0.08118988160479257 0
0.7812499999999984 0.1623797632095795 0
0.7656250000000018 0.5683291712335354 0
0.7500000000000013 0.5412658773652718 0
0.3750000000000008 0.5412658773652743 0
0.4375000000000008 0.487139289628746 0
0.1562516094307124 0.05412565853127255 0
0.5625000000000016 0.6495190528383277 0
0.5468750000000017 0.6765823467065916 0
0.7343750000000016 0.6224557589700628 0
0.6406250000000014 0.7848355221796469 0
0.7968749999999999 0.2976962325508979 0
0.7812500000000002 0.3247595264191619 0
0.2031250000000003 0.3518228202874283 0
0.609375 0.243569644814372 0
0.6718750000000011 0.5683291712335359 0
0.4062500000000018 0.8118988160479108 0
0.1718750000000019 0.6765823467065927 0
0.1562500000000008 0.2706329386826374 0
0.4375000000000016 0.6495190528383286 0
0.7812500000000019 0.595392465101799 0
0.640625 0.2435696448143718 0
0.2500000000000016 0.6495190528383289 0
0.1251255493732405 0.7031942874572619 0
0.5937499999999996 0.05412658773652684 0
0.6874999999999982 0.1623797632095808 0
0.8124985126773417 0.0541257290303897 0
0.4531250000000033 0.3518228202874283 0
0.9209401462275472 0.5136628454198277 0
0.9362964940411526 0.4865168963185425 0
0.9209074429015698 0.2390697129742732 0
0.9209572796098316 0.8934972349842114 0
0.9060970466016409 0.8660746927165228 0
0.9421907196172119 0.8688788162719254 0
0.9226312943698097 0.8394458934860999 0
0.9375000000000047 0.9201519915209608 0
0.9522761586731403 0.8373418976382605 0
0.9366018721979079 0.2680068166265016 0
0.359375000000002 0.9472152853892295 0
0.546875 0.9472152853892299 0
0.6718750000000014 0.9472152853892293 0
0.1770833333333347 0.9466851181309166 0
0.8906124723717819 0.9478673429953499 0
0.2968750000000027 0.9472152853892299 0
0.8333333333333364 0.9466851181309147 0
0.9353485744268735 0.8118623744510423 0
0.9060174781327814 0.8119733730434178 0
0.9208469087156994 0.7844777014157446 0
0.9424638497640569 0.6518723870057912 0
0.921875000000002 0.6765823467065896 0
0.9502108707118074 0.6236209186933117 0
0.7968750000000047 0.9472152853892269 0
0.140625000000002 0.9472152853892295 0
0.515625 0.9472152853892291 0
0.3906250000000019 0.9472152853892295 0
0.05807632372684129 0.2173063076430816 0
0.07812500000000111 0.1894430570778462 0
0.06224367418024357 0.05390583467409782 0
0.06250000000000216 0.7577722283113844 0
0.07812500000000266 0.7848355221796477 0
0.06625659577671372 0.2734054639059653 0
0.05846233908640419 0.8691834141455984 0
0.07812500000000133 0.8389621099161749 0
0.06441644565699667 0.3251033569198929 0
0.06443180636779777 0.9203712570414914 0
0.07812500000000189 0.9472152853892297 0
0.046858992078469 0.7310099300339205 0
0.06123369207678125 0.7030235437181706 0
0.04559605978754222 0.6743883202457448 0
0.07673179045404671 0.6756278514750769 0
0.062393666906434 0.6475196604678696 0
0.05018034889575129 0.6189220615442207 0
0.0934591924746932 0.7031129444708921 0
0.3593750000001084 0.351822820287368 0
0.3750000000000201 0.3788861141556826 0
0.7343750000000017 0.8929920087335753 0
0.7500000000000029 0.9195419304836205 0
0.7343750000000013 0.9472152853892295 0
0.7500000000000022 0.8660092889645828 0
0.7031250000000016 0.7848355221796466 0
0.765624710941987 0.08118971471706898 0
0.3749999999999988 0.05412658773652834 0
0.9211282067397815 0.4061102974032849 0
0.9392502863195327 0.3779566964243242 0
0.9418507121574005 0.4347369750218337 0
0.6562500000000013 0.757772228311383 0
0.6406250000000011 0.730708934443119 0
0.6562500000000014 0.7036456405748546 0
0.7343750000000016 0.7848355221796468 0
0.7500000000000022 0.7577722283113829 0
0.765625000000002 0.784835522179646 0
0.2812500001079269 0.2165063508838005 0
0.2968750000179887 0.2435696448039897 0
0.5937500000000014 0.7036456405748553 0
0.4375000000000026 0.3788861141556917 0
0.5781250000000013 0.8930058214363084 0
0.5937500000000012 0.9195580453034762 0
0.8747125906798907 0.1080872396247196 0
0.9059568692821421 0.108083936374189 0
0.9207781185699562 0.1382808644594545 0
0.9367293929970766 0.1085704368868093 0
0.9207912619128031 0.08173789025707112 0
0.843746334949191 0.4330148179102867 0
0.8281200100226633 0.4059522889887112 0
0.4843749999999988 0.08118988160479029 0
0.343749999999999 0.05412658773652856 0
0.3281249999999988 0.08118988160479285 0
0.3124999999999992 0.0541265877365284 0
0.2968749999999988 0.08118988160479257 0
0.3124999999999989 0.1082531754730566 0
0.2812499999999987 0.1082531754730564 0
0.2656249999999988 0.08118988160479257 0
0.2499999999999989 0.108253175473056 0
0.2343749999999989 0.08118988160479246 0
0.2656249999999986 0.1353164693413197 0
0.2499999999999989 0.05412658773652868 0
0.6875000000000017 0.7577722283113826 0
0.7187500000000007 0.4871392896287446 0
0.6250000000000016 0.9194590542672276 0
0.6093750000000014 0.9472152853892302 0
0.8903463116842867 0.08122459835213514 0
0.1875000000000014 0.5953924651018017 0
0.5625000000000016 0.7036456405748557 0
0.5312500000000016 0.7036456405748555 0
0.2187499999999989 0.05412658773652856 0
0.7968750000000009 0.3518228202874254 0
0.9422541272271269 0.5941772806158324 0
0.7187500000000016 0.6495190528383267 0
0.4218750000000007 0.5142025834970102 0
0.09375000000000061 0.43301270189222 0
0.07867989810996007 0.40599950668663 0
0.07812500000000083 0.4600759957604839 0
0.093750000000001 0.4871392896287474 0
0.06201675291702208 0.4868760239498194 0
0.07804445881950473 0.5141587058838566 0
0.04716944068414608 0.5141251966865674 0
0.063252803643431 0.5408316177311628 0
0.03048796156591871 0.5426806144647159 0
0.04697071831039812 0.4582765535124617 0
0.468749999999999 0.05412658773652701 0
0.4374999999999984 0.05412658773652729 0
0.07759942154422517 0.08124377901966329 0
0.06249999999999978 0.1082531754730547 0
0.07812528009933573 0.1353163076258915 0
0.04687499999999956 0.1353164693413185 0
0.04626119787139715 0.08020146494726033 0
0.06306095894669528 0.1620558934107035 0
0.0302335899456786 0.1658313933480315 0
0.06290717680327418 0.431717666728935 0
0.7968749999999987 0.1894430570778431 0
0.812494296996173 0.1623764705787853 0
0.1406250000000009 0.5142025834970108 0
0.2500000000000019 0.9194344344035615 0
0.2343750000000014 0.9472152853892302 0
0.1875000000135446 0.324759526411345 0
0.09397455646550956 0.378818211292521 0
0.05821893082191698 0.3773586782374424 0
0.1875000000000019 0.8660115910817061 0
0.2968749999999991 0.1353164693413202 0
0.2812499999999983 0.1623797632095839 0
0.625 0.2706329386826358 0
0.4062500000000014 0.7036456405748559 0
0.8593750000000019 0.6224557589700621 0
0.8906250000000018 0.6765823467065893 0
0.9062500000000016 0.7036456405748531 0
0.9364329088663981 0.7035452957123975 0
0.9208029605272723 0.730175948913418 0
0.3906250000000012 0.51420258349701 0
0.2187500000257914 0.324759526404274 0
0.2812500000000838 0.4330127018921712 0
0.250000000000015 0.4330127018922109 0
0.7500000000000001 0.3247595264191623 0
0.7343750000000011 0.5142025834970082 0
0.5468749999999999 0.2435696448143724 0
0.6250000000000014 0.8118988160479107 0
0.7343750000000013 0.5683291712335354 0
0.6718750000000004 0.4600759957604811 0
0.6562500000000002 0.4330127018922175 0
0.6250000000000002 0.4330127018922178 0
0.6875000000000004 0.4330127018922174 0
0.7031250000000006 0.460075995760481 0
0.6250000000000003 0.3788861141556906 0
0.5000000000000016 0.7577722283113832 0
0.5625000000000014 0.8660115910817061 0
0.4843750000000011 0.5683291712335372 0
0.3437499999999992 0.1082531754730564 0
0.140625013381265 0.1894430493521692 0
0.8437500000000011 0.4871392896287435 0
0.7031249999999993 0.2435696448143717 0
0.7812499999999996 0.2706329386826344 0
0.3906250000000011 0.189443057077847 0
0.4218750000000008 0.1894430570778465 0
0.4218750000000013 0.2435696448143739 0
0.5000000000000009 0.5412658773652733 0
0.843750000000002 0.7036456405748531 0
0.1406250000000021 0.7848355221796475 0
0.4531250000000008 0.5142025834970099 0
0.1406264506773429 0.02706245631930948 0
0.3750000000000012 0.6495190528383286 0
0.3906250000000012 0.622455758970065 0
0.2656250000000019 0.8389621099161749 0
0.2500000000000018 0.8660066031612751 0
0.2812500000000019 0.8660034697240813 0
0.2656250000000019 0.8928983466721474 0
0.6562500000000014 0.8118988160479107 0
0.5781249999999999 0.2435696448143722 0
0.59375 0.2706329386826359 0
0.7500000000000016 0.5953924651017991 0
0.2656250000002785 0.4059494080237951 0
0.312500000000001 0.5412658773652739 0
0.4843750000000007 0.2976962325509004 0
0.8740381339918051 0.2170774023019195 0
0.4218750000000017 0.8389621099161746 0
0.6875000000000004 0.3788861141556901 0
0.2343750000002607 0.4059494080238054 0
0.8124999999999996 0.270632938682634 0
0.3437500000002864 0.3788861141555282 0
0.3437500000000075 0.4871392896287425 0
0.4843750000000008 0.4059494080239551 0
0.7343750000000009 0.4600759957604809 0
0.8437500000000018 0.5953924651017986 0
0.2343750043936473 0.1894430545411733 0
0.5468749999999998 0.1353164693413175 0
0.6093750000000004 0.4600759957604815 0
0.5781250000000006 0.4600759957604817 0
0.2031250000000016 0.6224557589700653 0
0.3124999999999998 0.1623797632095842 0
0.7499999518236629 0.05412655992190579 0
0.5781250000000008 0.5142025834970091 0
0.578125 0.2976962325508996 0
0.7656249999999987 0.1894430570778435 0
0.3125000000000016 0.7036456405748562 0
0.4687500000000009 0.5412658773652737 0
0.2343750000024954 0.3518228202859876 0
0.406250000000002 0.4871392896287456 0
0.7656250000000003 0.3518228202874258 0
0.8281250000000018 0.568329171233535 0
0.1718750000000006 0.4059494080239559 0
0.3437500000000008 0.5412658773652739 0
0.4687500000000017 0.6495190528383284 0
0.4843750000000019 0.676582346706592 0
0.4531250000000016 0.6765823467065922 0
0.296875 0.02706329386826367 0
0.9684581619100939 0.1085145765187593 0
0.9721573676641679 0.3288633464394453 0
0.9464407857957995 0.3130240545558549 0
0.9725579251797331 0.767724221523528 0
0.02836334528924522 0.8875242317750363 0
0.02692907049880888 0.7964954766746518 0
0.02807557856886267 0.3604281215066671 0
0.02686290368434507 0.2333749346808922 0
0.2031250673844701 0.1353164304368769 0
0.4687500000000007 0.487139289628746 0
0.5468750000000006 0.460075995760482 0
0.5625000000000007 0.4871392896287455 0
0.5625000000000013 0.5953924651018003 0
0.5468750000000014 0.6224557589700641 0
0.6406250000000011 0.5683291712335362 0
0.5781250000000014 0.6224557589700639 0
0.6562500000000012 0.5953924651017998 0
0.5156250000000007 0.3518228202874276 0
0.5937500000000003 0.3788861141556907 0
0.6718749999999998 0.2976962325508993 0
0.7343750000000017 0.6765823467065905 0
0.7656249999999998 0.2976962325508984 0
0.7031250000000006 0.4059494080239536 0
0.781250000000002 0.7577722283113817 0
0.5468750000000014 0.784835522179647 0
0.5156250000000014 0.7307089344431195 0
0.7968750000000022 0.7848355221796453 0
0.8437500000000034 0.866011591081703 0
0.3593750000000009 0.5683291712335379 0
0.3437500000000019 0.8660115910817059 0
0.7500000000000017 0.6495190528383266 0
0.4062500000000004 0.162379763209583 0
0.3281250000029997 0.2435696448126441 0
0.7812491266822372 0.1082526712628081 0
0.8750000000000019 0.6495190528383258 0
0.6718750000000014 0.7848355221796469 0
0.2343749999999997 0.027063293868264 0
0.3593749999999999 0.02706329386826384 0
0.5156249999999997 0.02706329386826356 0
0.6718749999999996 0.0270632938682635 0
0.656249999999999 0.05412658773652684 0
0.8906249999999992 0.02706329386826312 0
0.9529925822099726 0.02646162640799465 0
0.02665494920678257 0.8273384239812798 0
0.05681055530217194 0.8120911197736829 0
0.02706329386826367 0.390625 0
0.02529486141516735 0.2945713081618545 0
0.2343750000000011 0.5683291712335379 0
0.2187500000000464 0.4330127018921929 0
0.0800138379949335 0.2987602576299277 0
0.7656250000000013 0.5142025834970081 0
0.312500000000002 0.8659868326646943 0
0.484375 0.1894430570778451 0
0.5312500000000017 0.6495190528383279 0
0.2187500000000019 0.7577722283113839 0
0.2343750000000019 0.7307089344431204 0
0.2656250000000018 0.7307089344431201 0
0.2031250000000019 0.8389598077990527 0
0.4218750000000022 0.2976962325509014 0
0.1093753636985313 0.1353162593598737 0
0.2187500000000008 0.4871392896287468 0
0.9730317196242513 0.1720395681964405 0
0.9468823423222874 0.1570387161510656 0
0.9460574028553609 0.1876588807245844 0
0.9205803266481987 0.1721507654898241 0
0.9209261425497548 0.2044013042886448 0
0.9467886973473338 0.2189419304373456 0
0.9690338750131828 0.266736189283291 0
0.9729367061317363 0.390625 0
0.9448151257896559 0.3443022194690252 0
0.9726320407318068 0.4516543978340359 0
0.9685445431984483 0.4854602714895863 0
0.9755941196794076 0.5477727338924816 0
0.9680041440203864 0.7034194845389377 0
0.9684629487561029 0.9207944237347312 0
0.4531320185492746 0.9722723343099365 0
0.4657245290129824 0.9454547063502745 0
0.4218750000000017 0.7848355221796471 0
0.1250254922330623 0.919586575953828 0
0.3281250000000016 0.7307089344431199 0
0.2812499999999991 0.05412658773652834 0
0.1718750011122166 0.2435696441722351 0
0.4218749999999988 0.08118988160479129 0
0.9218750000000013 0.46007599576048 0
0.3125000000043343 0.3247595264166625 0
0.3281250000024148 0.2976962325495082 0
0.5156250000000017 0.6765823467065918 0
0.8906134280341718 0.4600826768380658 0
0.4218750000000014 0.6765823467065922 0
0.3125000000000018 0.7577722283113836 0
0.5624999999999998 0.2165063509461086 0
0.1094940164244591 0.5683159087552757 0
0.7656250000000019 0.6765823467065901 0
0.8750000000000018 0.7577722283113802 0
0.5937500000000004 0.433012701892218 0
0.3281250000000019 0.8389533792790953 0
0.1562709248955417 0.7035704150552572 0
0.1875000000000083 0.4330127018922151 0
0.2500000000000021 0.4871392896287459 0
0.7187500000000016 0.8660066031612743 0
0.4049784194594284 0.9194178441535693 0
0.4380283521755678 0.922840821539791 0
0.6875000000000009 0.5412658773652721 0
0.6249999999999994 0.162379763209581 0
0.9059746654169001 0.5411069128696 0
0.9336097096115308 0.5384573189187507 0
0.2812500000000017 0.7036456405748562 0
0.4375000000000017 0.8118988160479108 0
0.7187500000000011 0.5412658773652719 0
0.4062500000000013 0.6495190528383286 0
0.2343750000000117 0.4600759957604767 0
0.2968750000000018 0.7307089344431199 0
0.2187500000006711 0.3788861141553047 0
0.8898862017852087 0.2976952565492118 0
0.8281250000000004 0.351822820287425 0
0.3593750000000025 0.5142025834970093 0
0.5312500000000016 0.7577722283113832 0
0.3437500000012498 0.3247595264184449 0
0.7968741683371109 0.4059498881847462 0
0.9732141127895813 0.2031033326951142 0
0.5625000000000004 0.4330127018922181 0
0.4687500000000016 0.7036456405748559 0
0.2187500000000019 0.8659869712180397 0
0.640625 0.2976962325508995 0
0.6562500000000009 0.5412658773652723 0
0.1875000000000018 0.6495190528383291 0
0.3906250000000017 0.7848355221796472 0
0.7031249999999979 0.1353164693413169 0
0.2031250000001646 0.405949408023861 0
0.4062500000000013 0.5953924651018014 0
0.2031250000000012 0.568329171233538 0
0.09384361503502253 0.162325714543912 0
0.1250000000000008 0.4871392896287471 0
0.1093750000000021 0.8389621099161748 0
0.2500000000000019 0.7577722283113839 0
0.5468749999999994 0.08118988160479035 0
0.2187500000000013 0.5953924651018017 0
0.2343750000000014 0.6224557589700652 0
0.2656250000000013 0.6224557589700651 0
0.2656250000000017 0.6765823467065926 0
0.1718751327618725 0.02706321721816091 0
0.6093750000000001 0.02706329386826356 0
0.8124988706320202 0.4330133539331241 0
0.6093750000000002 0.4059494080239544 0
0.4843750000000014 0.8389482972134421 0
0.6406250000000017 0.8930334658582886 0
0.5624999999999996 0.1082531754730538 0
0.781250000000004 0.9195530573830429 0
0.6093750000000013 0.7307089344431191 0
0.8750000000000018 0.703645640574853 0
0.6406250000000016 0.6765823467065909 0
0.7968750000000018 0.6224557589700624 0
0.079532436627193 0.5675813429108155 0
0.1562792348980093 0.6495100957315856 0
0.7343750000000014 0.8389605951201247 0
0.156250000002258 0.3247595264178617 0
0.5013207103854957 0.9188093455096209 0
0.8125000000000018 0.5953924651017987 0
0.6718750000000003 0.4059494080239539 0
0.1718758421269832 0.08118939540255099 0
0.1875000005243398 0.2706329383799098 0
0.09280175921703043 0.8119308666688733 0
0.1092167527787286 0.7848319628672207 0
0.2812500000000015 0.6495190528383288 0
0.4375000000000014 0.8660115910817058 0
0.1406250010603141 0.2435696442022014 0
0.6406250000000002 0.4059494080239541 0
0.1408177669450695 0.6764066259935922 0
0.5000000000000017 0.7036456405748557 0
0.1093615764699182 0.5141952705614853 0
0.1718750001035682 0.2976962324911063 0
0.4531250000000016 0.838943692979198 0
0.343750000000001 0.5953924651018014 0
0.46875 0.1623797632095818 0
0.3437500000009039 0.2706329386821176 0
0.3750000000000011 0.5953924651018015 0
0.6718749999999997 0.2435696448143718 0
0.7656250000000018 0.6224557589700628 0
0.6249999999999996 0.05412658773652684 0
0.09411421533075121 0.5410581205346451 0
0.8437229780154536 0.3789017153057406 0
0.7968676648591595 0.1353122343957779 0
0.4062499999999989 0.05412658773652768 0
0.874981791262103 0.8660063319122897 0
0.6562499999999999 0.2706329386826356 0
0.5312499999999996 0.05412658773652701 0
0.1250205157034655 0.2165181919034466 0
0.4218749999999997 0.02706329386826345 0
0.6406249999999988 0.08118988160479018 0
0.1094145510191455 0.1894478556079267 0
0.8281247521128894 0.02706315075057375 0
0.8904463267545468 0.7306201035215001 0
0.6562499999999996 0.2165063509461082 0
0.671874999999999 0.1894430570778445 0
0.4999999999999993 0.05412658773652707 0
0.750000000000002 0.8118985635819018 0
0.1875004307199277 0.05412633906026149 0
0.5624999999999994 0.05412658773652695 0
0.8593667827333423 0.4600807400015968 0
0.8124945260625382 0.3788892745349563 0
0.6250000000000014 0.703645640574855 0
0.4531250000000004 0.1894430570778457 0
0.4531250000000006 0.8930886976527019 0
0.4531249999999993 0.02706329386826328 0
0.4375000000000006 0.21650635094611 0
0.8906837683943899 0.8390602028537348 0
0.2031252376918947 0.08118974437331228 0
0.5781249999999997 0.02706329386826345 0
0.281250000045261 0.2706329386565066 0
0.7812500000000024 0.8118987739702411 0
0.6562499999999989 0.1623797632095811 0
0.6718749999999984 0.1353164693413171 0
0.8749710410878634 0.8119275910367534 0
0.2187500763968035 0.1082531313653402 0
0.2343750256689336 0.1353164545213532 0
0.4531250000000006 0.2435696448143734 0
0.265625000298619 0.2435696446419668 0
0.4375000000000014 0.2706329386826373 0
0.9058701993329203 0.7576089554421778 0
0.9412905417448825 0.7553422773370926 0
0.2500000067158186 0.1623797593322035 0
0.2656250019774913 0.1894430559361424 0
0.9422010515224337 0.05679165336660841 0
0.8903467712115447 0.7847658952381863 0
0.6874999999999978 0.1082531754730533 0
0.4531250000000016 0.2976962325509009 0
0.4531250000000015 0.4059494080239551 0
0.4062500000000054 0.3788861141556907 0
0.4687500000000018 0.3247595264191647 0
0.3125000000132859 0.2706329386749682 0
0.687499999999998 0.05412658773652673 0
0.7812497838371548 0.05412646293484968 0
0.4843750000000018 0.3518228202874281 0
0.3906250000000069 0.405949408023953 0
0.3593750000000939 0.4059494080239027 0
0.4687500000000018 0.3788861141556916 0
0.7968746747712308 0.02706310609734597 0
0.9068064375199201 0.05466788624147795 0
0.7187499919706087 0.05412658310075597 0
0.6718749999999978 0.08118988160479018 0
0.8437472039055391 0.05412497341063727 0
0.8750445168901054 0.05422156568742603 0
0.7343749906323782 0.0270632884598645 0
0.1099191688169174 0.6761442977046954 0
0.9740567418628617 0.8567970468458604 0
0.9231445190167888 0.2988864984726557 0
0.07934789054953617 0.6218733354633593 0
0.9739856308417454 0.04660387484848794 0
0.9536780957120262 0.9742411588649688 0
0.0259561062040311 0.9528638814947532 0
0.04818857065222715 0.02607447888500836 0
0.9735437832105063 0.6398460862102462 0
0.06612613812040136 0.5941986243546956 0
0.9208174364796484 0.9406756236857594 0
0.8905551178831457 0.9784860462462134 0
0.8604141611410254 0.9413403893568146 0
0.8237847222222234 0.973792893262299 0
0.7960069444444456 0.9787889769566525 0
0.7656250000000027 0.9412924529553712 0
0.5197457357536219 0.9740221395868522 0
0.4706524535618218 0.9182241055055909 0
0.4379366694919217 0.9506110697821533 0
0.6718750000000002 0.9786177395305403 0
0.7343750000000002 0.9786177395305404 0
0.3865092774958604 0.9740757745284395 0
0.3585518554991725 0.978845553209881 0
0.1406250000000004 0.9792144482885767 0
0.7031250000000011 0.941318773827801 0
0.6406250000000012 0.9412796378367263 0
0.3281250000000017 0.9413160112872548 0
0.168774801587302 0.9747928759229836 0
0.07858747385595155 0.9783260289786639 0
0.5476991471507244 0.9788348262215637 0
0.2968750000000006 0.9786177395305404 0
0.109410689126286 0.9413393789544686 0
0.204166666666668 0.9412099778355923 0
0.6093750000000003 0.9786177395305404 0
0.2343750000000003 0.9786177395305404 0
0.5781250000000007 0.941316011287255 0
0.2656250000000017 0.9412677307753896 0
0.02350884654752028 0.609375 0
0.05100573052130752 0.1875373787828092 0
0.05060966650554177 0.4063332430156575 0
0.9495819005855599 0.4062218577527101 0
0.9736399804177415 0.6081366457039115 0
0.9510690251280025 0.7886555937960897 0
0.05065960026546396 0.7826504821976088 0
0.04998175098980928 0.8410960396877971 0
0.0511916303680629 0.5673010739629317 0
0.9503753812494562 0.5596519370156438 0
0.9779139418524264 0.828125 0
0.04962530828264539 0.2523398649709466 0
0.9493477488741073 0.2452968532267452 0
0.91790334291651 0.3528286836809278 0
0.05223399967105952 0.3482025573350141 0
0.04982160629644222 0.9425799710071396 0
0.9482397580257619 0.4636889072848956 0
0.02134870764866476 0.453125 0
0.9459953896014291 0.9468330589639544 0
0.9481711420867438 0.6810406983468524 0
0.02091233296055567 0.7340083458915152 0
0.9476772199171447 0.7259260544483279 0
0.02085491486621921 0.515625 0
0.94803412288751 0.08620587606393337 0
0.0523529436351865 0.8977434675920121 0
0.9477736750935144 0.8967712188400003 0
0.9475158773652754 0.5109641550339297 0
0.05253498653588812 0.3009640273010049 0
0.9492938979940098 0.1309244550718552 0
0.0211354423254253 0.1383683337646407 0
0.02014970084648848 0.6722861228946458 0
0.9000431999254417 0.2200898486399576 0
0.02011709685810859 0.07891178078057226 0
0.9771234122634725 0.02287658773652745 0
0.9771234122634727 0.9771234122634727 0
0.0228765877365274 0.0228765877365274 0
0.0228765877365274 0.9771234122634727 0
0.8989672346605829 0.158356849649383 0
0.4169446293721806 0.9421975583943369 0
0.4902141155503047 0.9411839800752944 0
0.9505233723709219 0.2895503289515018 0
0.04205413174624734 0.5956572381250904 0
0.9288134818731941 0.3275236422170097 0
0.9591743425672986 0.8138283742377691 0
0.95683570799984 0.5330916840850131 0
0.04333204809164137 0.279091588498252 0
$EndNodes
$Elements
5 2522 1 2522
1 1 1 32
1 1 5 
2 5 6 
3 6 7 
4 7 8 
5 8 9 
6 9 10 
7 10 11 
8 11 12 
9 12 13 
10 13 14 
11 14 15 
12 15 16 
13 16 17 
14 17 18 
15 18 19 
16 19 20 
17 20 21 
18 21 22 
19 22 23 
20 23 24 
21 24 25 
22 25 26 
23 26 27 
24 27 28 
25 28 29 
26 29 30 
27 30 31 
28 31 32 
29 32 33 
30 33 34 
31 34 35 
32 35 2 
1 2 1 32
33 2 36 
34 36 37 
35 37 38 
36 38 39 
37 39 40 
38 40 41 
39 41 42 
40 42 43 
41 43 44 
42 44 45 
43 45 46 
44 46 47 
45 47 48 
46 48 49 
47 49 50 
48 50 51 
49 51 52 
50 52 53 
51 53 54 
52 54 55 
53 55 56 
54 56 57 
55 57 58 
56 58 59 
57 59 60 
58 60 61 
59 61 62 
60 62 63 
61 63 64 
62 64 65 
63 65 66 
64 66 3 
1 3 1 32
65 3 67 
66 67 68 
67 68 69 
68 69 70 
69 70 71 
70 71 72 
71 72 73 
72 73 74 
73 74 75 
74 75 76 
75 76 77 
76 77 78 
77 78 79 
78 79 80 
79 80 81 
80 81 82 
81 82 83 
82 83 84 
83 84 85 
84 85 86 
85 86 87 
86 87 88 
87 88 89 
88 89 90 
89 90 91 
90 91 92 
91 92 93 
92 93 94 
93 94 95 
94 95 96 
95 96 97 
96 97 4 
1 4 1 32
97 4 98 
98 98 99 
99 99 100 
100 100 101 
101 101 102 
102 102 103 
103 103 104 
104 104 105 
105 105 106 
106 106 107 
107 107 108 
108 108 109 
109 109 110 
110 110 111 
111 111 112 
112 112 113 
113 113 114 
114 114 115 
115 115 116 
116 116 117 
117 117 118 
118 118 119 
119 119 120 
120 120 121 
121 121 122 
122 122 123 
123 123 124 
124 124 125 
125 125 126 
126 126 127 
127 127 128 
128 128 1 
2 1 2 2394
129 163 842 832 
130 123 841 145 
131 755 941 150 
132 727 1181 155 
133 1159 1184 176 
134 940 1156 168 
135 755 1241 941 
136 155 1242 727 
137 832 1234 163 
138 742 1188 138 
139 176 1240 1159 
140 166 1007 778 
141 850 982 943 
142 136 1005 777 
143 1156 1238 168 
144 733 1196 747 
145 733 1209 1196 
146 735 1207 746 
147 746 1207 1203 
148 748 1201 732 
149 1201 1202 732 
150 1193 1194 745 
151 738 1193 745 
152 749 944 145 
153 143 760 752 
154 777 1006 136 
155 753 1098 981 
156 138 1236 742 
157 751 839 177 
158 167 1221 820 
159 1002 1003 724 
160 981 1098 756 
161 135 764 762 
162 111 831 162 
163 841 1218 145 
164 124 841 123 
165 1007 1233 778 
166 736 1191 151 
167 151 1192 736 
168 745 1194 142 
169 142 1195 745 
170 737 1210 172 
171 172 1216 737 
172 139 1206 732 
173 154 1211 746 
174 732 1202 139 
175 746 1203 154 
176 734 1199 134 
177 134 1205 734 
178 759 1208 179 
179 771 1200 169 
180 169 1204 771 
181 170 1215 813 
182 813 1213 170 
183 847 1214 147 
184 147 1212 847 
185 747 1196 131 
186 733 1215 170 
187 771 1195 142 
188 170 1209 733 
189 734 1204 169 
190 169 1199 734 
191 142 1200 771 
192 736 1190 174 
193 813 1205 134 
194 174 1191 736 
195 1013 1198 1038 
196 172 1214 847 
197 134 1213 813 
198 847 1216 172 
199 735 1212 147 
200 1038 1197 1013 
201 171 1201 748 
202 147 1207 735 
203 738 1192 151 
204 759 1211 154 
205 151 1193 738 
206 154 1208 759 
207 737 1206 139 
208 139 1210 737 
209 724 1248 1002 
210 748 1255 171 
211 179 1232 759 
212 131 1256 747 
213 943 1231 850 
214 143 1237 760 
215 762 1247 135 
216 749 1228 944 
217 827 829 132 
218 112 831 111 
219 820 1226 167 
220 174 1235 1185 
221 820 1221 744 
222 140 1244 757 
223 1190 1235 174 
224 839 1249 177 
225 1188 1221 55 
226 161 761 760 
227 999 1001 793 
228 1008 1243 723 
229 156 839 836 
230 161 762 761 
231 938 1006 939 
232 136 1006 938 
233 145 1218 749 
234 836 838 156 
235 744 1188 742 
236 175 1241 758 
237 729 1242 1011 
238 979 1184 1159 
239 730 1181 727 
240 794 1240 937 
241 835 839 751 
242 132 832 827 
243 1010 1238 859 
244 831 1225 162 
245 177 1187 751 
246 1005 1220 777 
247 850 1219 982 
248 135 765 764 
249 836 839 835 
250 983 1244 140 
251 859 1236 1010 
252 163 1219 842 
253 778 1220 166 
254 744 1221 1188 
255 677 766 609 
256 758 1232 175 
257 130 1243 1008 
258 1001 1254 793 
259 981 1223 753 
260 1011 1235 729 
261 723 1233 1008 
262 578 1180 763 
263 757 1231 140 
264 763 764 578 
265 829 1239 132 
266 731 1229 1004 
267 1001 1002 511 
268 752 1223 143 
269 940 1222 1156 
270 1011 1242 155 
271 941 1241 175 
272 150 1224 755 
273 764 1183 578 
274 763 1180 766 
275 609 766 717 
276 761 766 677 
277 937 1245 794 
278 1004 1257 731 
279 937 1240 176 
280 762 763 761 
281 756 1224 981 
282 168 1238 1010 
283 765 1183 764 
284 1228 1262 164 
285 763 766 761 
286 762 764 763 
287 412 910 206 
288 767 910 412 
289 514 1084 770 
290 767 1054 651 
291 412 1054 767 
292 514 770 769 
293 921 1168 774 
294 774 970 689 
295 439 772 478 
296 769 772 514 
297 772 1091 478 
298 853 920 653 
299 654 970 774 
300 852 920 853 
301 206 910 208 
302 282 783 277 
303 773 810 285 
304 514 772 439 
305 1157 1158 915 
306 783 960 784 
307 268 781 252 
308 801 936 137 
309 779 780 278 
310 595 1024 1020 
311 960 963 784 
312 797 1079 1055 
313 137 974 799 
314 881 1135 594 
315 651 1054 650 
316 562 920 852 
317 799 801 137 
318 799 974 775 
319 1145 1153 786 
320 1085 1137 780 
321 141 1168 921 
322 809 973 157 
323 801 1017 936 
324 322 963 313 
325 277 783 285 
326 278 810 779 
327 285 782 773 
328 1022 1111 650 
329 1127 1173 30 
330 160 1179 1175 
331 780 781 278 
332 1020 1024 687 
333 562 852 803 
334 1163 1172 912 
335 1132 1146 478 
336 818 973 809 
337 523 790 789 
338 810 972 779 
339 294 1170 1164 
340 688 1118 695 
341 775 974 158 
342 285 810 276 
343 650 1054 1022 
344 936 1017 157 
345 812 1082 681 
346 148 973 818 
347 1164 1170 768 
348 157 1017 809 
349 591 789 675 
350 696 901 869 
351 773 972 810 
352 781 1087 252 
353 278 781 268 
354 282 960 783 
355 523 812 790 
356 869 901 536 
357 789 790 675 
358 689 970 688 
359 602 820 744 
360 792 814 795 
361 787 1137 1085 
362 285 783 782 
363 484 816 702 
364 787 816 484 
365 577 776 687 
366 1117 1136 1051 
367 786 1153 785 
368 594 1135 1024 
369 776 778 687 
370 594 1024 595 
371 695 844 843 
372 222 928 861 
373 1091 1132 478 
374 313 963 960 
375 796 1079 797 
376 1078 1144 23 
377 832 842 825 
378 305 881 311 
379 673 1059 895 
380 1145 1166 240 
381 791 792 512 
382 523 1082 812 
383 846 897 674 
384 386 1025 935 
385 856 971 463 
386 550 798 643 
387 684 816 787 
388 787 1085 684 
389 685 817 816 
390 970 1118 688 
391 698 1052 861 
392 769 1036 772 
393 784 1146 1132 
394 825 842 823 
395 962 1053 876 
396 608 1099 610 
397 671 1059 673 
398 519 1139 639 
399 591 877 789 
400 843 924 695 
401 1119 1124 834 
402 129 1131 833 
403 158 1124 1119 
404 756 1098 1070 
405 756 1070 584 
406 840 1068 750 
407 853 1158 1157 
408 276 810 278 
409 685 962 817 
410 833 1131 798 
411 1102 1123 320 
412 582 996 837 
413 817 1105 1023 
414 555 1019 553 
415 803 879 562 
416 665 736 663 
417 791 814 792 
418 631 856 463 
419 536 901 703 
420 474 791 512 
421 586 1036 769 
422 703 1114 967 
423 8 891 153 
424 265 900 854 
425 290 929 819 
426 1095 1103 486 
427 699 890 822 
428 824 850 849 
429 871 1103 1095 
430 915 1158 274 
431 383 1032 988 
432 557 879 694 
433 387 962 876 
434 636 1050 469 
435 866 987 697 
436 697 1045 866 
437 698 965 932 
438 705 958 883 
439 993 1071 992 
440 699 946 890 
441 311 881 423 
442 861 928 822 
443 1023 1105 934 
444 904 1165 1162 
445 957 1029 279 
446 873 959 319 
447 323 866 811 
448 599 914 543 
449 885 968 645 
450 696 869 697 
451 854 900 708 
452 988 1032 966 
453 349 1063 348 
454 695 924 534 
455 906 1108 1101 
456 129 1140 19 
457 365 1053 961 
458 549 1027 417 
459 158 1119 775 
460 317 905 420 
461 425 844 475 
462 558 879 557 
463 647 1123 1102 
464 774 1168 654 
465 1152 1154 886 
466 1133 1143 1096 
467 368 894 370 
468 545 992 464 
469 227 388 224 
470 247 250 241 
471 370 894 381 
472 426 877 591 
473 444 458 457 
474 448 922 612 
475 524 1041 468 
476 571 791 474 
477 477 1036 586 
478 484 702 701 
479 676 755 584 
480 600 820 602 
481 610 1099 753 
482 773 782 623 
483 770 771 680 
484 683 779 704 
485 706 929 865 
486 1033 1104 711 
487 893 1046 892 
488 270 887 229 
489 256 821 251 
490 300 862 848 
491 310 540 462 
492 319 874 873 
493 319 913 874 
494 434 963 322 
495 811 913 323 
496 323 987 866 
497 347 1075 1074 
498 389 390 351 
499 354 855 386 
500 387 876 358 
501 380 877 426 
502 393 845 392 
503 430 455 393 
504 845 1069 408 
505 466 1028 430 
506 477 586 520 
507 932 965 485 
508 906 1101 500 
509 815 919 504 
510 823 824 507 
511 681 1082 520 
512 521 1037 573 
513 683 704 532 
514 914 930 543 
515 544 600 599 
516 693 1019 555 
517 580 986 581 
518 811 866 624 
519 713 1046 626 
520 664 665 663 
521 725 729 665 
522 674 897 669 
523 869 1045 697 
524 822 928 699 
525 703 967 821 
526 704 898 868 
527 1018 1097 712 
528 780 1137 781 
529 802 1017 801 
530 962 1105 817 
531 967 1029 957 
532 431 815 504 
533 574 1015 516 
534 932 1052 698 
535 861 1052 222 
536 816 817 702 
537 728 739 730 
538 252 1087 248 
539 267 956 625 
540 274 1158 785 
541 306 987 304 
542 403 1154 1152 
543 868 898 458 
544 515 662 661 
545 685 1053 962 
546 778 1020 687 
547 714 1094 1088 
548 884 968 885 
549 467 1126 1068 
550 695 1118 844 
551 626 1046 893 
552 935 1025 713 
553 153 891 182 
554 437 964 435 
555 709 953 951 
556 1034 1065 985 
557 9 891 8 
558 226 948 228 
559 309 419 308 
560 468 1041 544 
561 572 640 571 
562 718 1115 627 
563 883 909 705 
564 805 1017 802 
565 181 835 751 
566 424 905 317 
567 383 896 894 
568 559 884 561 
569 631 914 856 
570 390 997 351 
571 377 889 608 
572 890 946 388 
573 472 931 429 
574 852 853 808 
575 414 916 415 
576 451 916 414 
577 544 599 543 
578 708 899 549 
579 227 887 388 
580 703 821 256 
581 301 913 292 
582 311 410 306 
583 421 909 315 
584 337 356 339 
585 361 362 353 
586 356 893 892 
587 541 1026 367 
588 375 889 377 
589 384 445 443 
590 388 926 890 
591 420 635 469 
592 518 519 427 
593 705 909 479 
594 704 868 532 
595 812 813 790 
596 845 1106 1069 
597 340 341 338 
598 348 350 345 
599 553 1019 593 
600 755 756 584 
601 632 1107 1092 
602 896 988 669 
603 728 730 727 
604 330 331 329 
605 334 347 332 
606 333 485 335 
607 397 398 396 
608 404 989 416 
609 414 415 405 
610 521 522 498 
611 824 849 507 
612 638 1037 521 
613 667 966 522 
614 573 732 666 
615 1170 1171 768 
616 1089 1116 1028 
617 352 353 350 
618 417 1027 405 
619 455 1116 1106 
620 544 678 600 
621 977 1115 133 
622 223 947 226 
623 235 236 225 
624 231 270 229 
625 237 949 232 
626 235 912 613 
627 243 244 236 
628 238 1061 951 
629 245 246 244 
630 245 954 273 
631 253 254 246 
632 251 821 263 
633 394 923 253 
634 254 258 257 
635 258 260 259 
636 260 262 261 
637 266 865 271 
638 273 447 395 
639 296 450 309 
640 419 534 308 
641 316 1079 796 
642 332 984 331 
643 358 876 360 
644 855 1025 386 
645 887 926 388 
646 407 997 390 
647 400 402 398 
648 413 431 430 
649 423 524 468 
650 423 594 524 
651 425 474 473 
652 426 518 427 
653 435 436 434 
654 499 539 449 
655 453 505 454 
656 523 789 456 
657 494 953 709 
658 577 590 530 
659 533 683 532 
660 621 684 533 
661 539 617 616 
662 550 643 611 
663 587 969 786 
664 601 971 856 
665 708 900 899 
666 768 1171 910 
667 874 913 811 
668 320 880 191 
669 198 200 199 
670 854 1060 265 
671 865 929 271 
672 323 913 301 
673 303 843 318 
674 305 311 306 
675 316 881 305 
676 534 924 308 
677 894 895 381 
678 392 408 407 
679 539 616 449 
680 471 823 507 
681 509 931 472 
682 507 849 508 
683 792 793 512 
684 595 722 524 
685 637 992 545 
686 614 864 863 
687 1035 1047 614 
688 707 1049 620 
689 724 731 636 
690 846 847 672 
691 706 958 705 
692 800 879 803 
693 1014 1063 349 
694 360 876 365 
695 505 506 454 
696 1062 1090 504 
697 506 568 567 
698 561 884 565 
699 642 718 627 
700 800 802 801 
701 883 958 280 
702 1109 1112 356 
703 406 994 851 
704 516 525 460 
705 516 1015 525 
706 517 671 670 
707 1066 1112 630 
708 691 774 689 
709 1000 1001 999 
710 191 880 189 
711 292 913 319 
712 843 844 318 
713 609 717 440 
714 463 971 619 
715 475 571 474 
716 612 917 499 
717 576 577 530 
718 542 871 870 
719 559 968 884 
720 565 566 564 
721 569 886 648 
722 757 986 580 
723 900 923 622 
724 792 795 794 
725 828 830 829 
726 989 1138 1110 
727 833 1140 129 
728 391 393 392 
729 471 472 429 
730 517 851 671 
731 564 969 587 
732 715 1129 1113 
733 718 1144 1078 
734 201 862 199 
735 201 927 862 
736 326 911 615 
737 716 1100 1076 
738 809 1017 805 
739 1051 1136 819 
740 931 1065 1034 
741 182 891 700 
742 249 494 256 
743 298 960 282 
744 296 882 450 
745 310 462 314 
746 433 435 434 
747 438 513 439 
748 490 538 491 
749 919 1062 504 
750 515 575 513 
751 592 1093 518 
752 540 1029 967 
753 967 1114 540 
754 551 798 550 
755 653 920 563 
756 661 738 575 
757 582 837 836 
758 698 861 607 
759 893 1066 626 
760 662 1120 664 
761 760 761 677 
762 694 879 800 
763 951 1061 709 
764 996 1068 837 
765 914 1094 930 
766 934 1058 935 
767 244 955 325 
768 262 266 264 
769 286 907 264 
770 275 280 272 
771 304 323 301 
772 339 340 338 
773 340 925 341 
774 369 541 367 
775 400 989 404 
776 452 550 451 
777 501 713 626 
778 535 688 534 
779 993 1048 541 
780 541 1048 1026 
781 554 556 555 
782 577 686 590 
783 612 948 918 
784 870 874 617 
785 867 899 622 
786 1101 1108 639 
787 1110 1138 645 
788 871 873 870 
789 283 296 295 
790 296 309 308 
791 309 719 419 
792 318 844 425 
793 343 1016 925 
794 346 348 345 
795 348 352 350 
796 402 867 398 
797 552 645 554 
798 556 968 559 
799 560 562 558 
800 559 561 560 
801 568 1161 1148 
802 819 929 706 
803 726 727 725 
804 804 852 808 
805 878 887 270 
806 785 1153 274 
807 615 903 328 
808 330 332 331 
809 331 984 389 
810 339 892 342 
811 352 361 353 
812 368 370 369 
813 372 374 373 
814 374 382 375 
815 377 378 376 
816 377 608 440 
817 548 549 417 
818 495 710 497 
819 527 849 585 
820 541 1071 993 
821 553 593 551 
822 565 646 569 
823 618 629 628 
824 884 885 646 
825 655 768 767 
826 848 862 707 
827 927 1049 707 
828 807 809 805 
829 167 1009 53 
830 344 855 346 
831 359 1044 1014 
832 406 441 382 
833 400 404 402 
834 735 746 574 
835 849 850 585 
836 669 897 896 
837 726 728 727 
838 823 842 824 
839 38 176 37 
840 40 152 39 
841 152 937 39 
842 43 144 42 
843 45 165 44 
844 47 136 46 
845 49 166 48 
846 52 130 51 
847 130 1008 51 
848 54 167 53 
849 57 138 56 
850 59 168 58 
851 168 1010 58 
852 61 146 60 
853 146 940 60 
854 64 155 63 
855 66 178 65 
856 178 1011 65 
857 69 174 68 
858 71 151 70 
859 74 142 73 
860 76 169 75 
861 78 134 77 
862 80 170 79 
863 83 131 82 
864 85 171 84 
865 88 139 87 
866 90 172 89 
867 92 147 91 
868 95 154 94 
869 97 179 96 
870 185 582 183 
871 188 189 187 
872 199 300 197 
873 206 207 205 
874 223 224 220 
875 226 227 224 
876 230 231 229 
877 234 951 239 
878 239 241 237 
879 241 952 237 
880 243 245 244 
881 613 954 243 
882 245 253 246 
883 257 955 246 
884 248 1087 247 
885 247 483 250 
886 483 484 250 
887 701 952 250 
888 263 268 252 
889 273 394 253 
890 254 265 258 
891 259 875 257 
892 273 954 447 
893 410 446 306 
894 310 1029 540 
895 328 329 327 
896 330 903 333 
897 346 354 349 
898 357 387 358 
899 360 363 359 
900 364 1081 363 
901 1081 1108 363 
902 365 961 366 
903 876 1053 365 
904 366 384 380 
905 426 427 379 
906 385 877 380 
907 384 443 385 
908 444 456 385 
909 456 877 385 
910 395 396 394 
911 408 409 407 
912 410 546 446 
913 416 451 414 
914 888 1086 422 
915 443 868 444 
916 445 532 443 
917 444 868 458 
918 445 961 621 
919 457 523 456 
920 467 1068 996 
921 476 588 477 
922 476 589 588 
923 483 787 484 
924 903 932 485 
925 492 878 488 
926 497 906 500 
927 508 849 527 
928 510 598 509 
929 679 681 520 
930 722 1041 524 
931 709 1039 537 
932 539 870 617 
933 618 628 545 
934 930 1094 546 
935 573 1037 748 
936 586 769 680 
937 587 786 785 
938 589 623 588 
939 589 773 623 
940 597 1025 855 
941 601 856 599 
942 602 603 601 
943 603 971 601 
944 602 744 742 
945 742 743 603 
946 615 1052 932 
947 624 1039 616 
948 629 1074 716 
949 629 1062 919 
950 633 712 632 
951 666 668 667 
952 679 734 681 
953 694 799 775 
954 704 972 898 
955 800 803 802 
956 997 1047 1035 
957 188 945 190 
958 189 880 467 
959 505 642 627 
960 593 798 551 
961 554 968 556 
962 645 968 554 
963 557 694 693 
964 581 986 634 
965 587 785 653 
966 593 833 798 
967 807 818 809 
968 183 835 181 
969 186 187 185 
970 190 324 192 
971 203 927 201 
972 205 281 203 
973 204 412 206 
974 207 902 205 
975 209 863 207 
976 211 255 209 
977 210 213 212 
978 213 215 214 
979 215 217 216 
980 699 928 216 
981 217 219 218 
982 219 221 220 
983 326 327 255 
984 327 1035 614 
985 333 903 485 
986 354 386 357 
987 397 403 399 
988 409 489 407 
989 430 1028 455 
990 452 552 551 
991 491 501 492 
992 508 510 509 
993 547 578 531 
994 548 644 641 
995 564 587 563 
996 611 1083 916 
997 614 1047 864 
998 629 716 628 
999 658 814 791 
1000 1148 1161 1064 
1001 337 339 338 
1002 339 342 340 
1003 356 892 339 
1004 342 344 343 
1005 353 1026 350 
1006 352 495 361 
1007 362 367 353 
1008 362 1032 383 
1009 368 369 367 
1010 372 373 371 
1011 374 994 406 
1012 382 889 375 
1013 464 991 376 
1014 378 1033 465 
1015 441 461 382 
1016 406 851 442 
1017 460 1070 441 
1018 442 517 516 
1019 525 584 460 
1020 584 1070 460 
1021 468 544 543 
1022 710 906 497 
1023 535 689 688 
1024 544 1041 678 
1025 746 1015 574 
1026 637 993 992 
1027 690 691 689 
1028 1074 1075 716 
1029 1120 1142 726 
1030 740 741 739 
1031 994 1059 851 
1032 934 935 933 
1033 992 1071 991 
1034 1043 1048 993 
1035 1026 1048 1016 
1036 184 185 183 
1037 228 922 230 
1038 230 233 232 
1039 233 238 234 
1040 448 449 238 
1041 242 249 248 
1042 494 536 256 
1043 486 875 259 
1044 267 272 266 
1045 276 278 268 
1046 269 279 277 
1047 487 488 270 
1048 279 291 282 
1049 283 284 280 
1050 295 297 284 
1051 291 307 298 
1052 308 924 295 
1053 297 303 299 
1054 313 960 298 
1055 302 316 305 
1056 303 317 315 
1057 310 314 307 
1058 307 888 312 
1059 312 422 321 
1060 462 463 314 
1061 420 421 315 
1062 433 434 322 
1063 335 337 336 
1064 344 346 345 
1065 597 855 344 
1066 350 1016 345 
1067 348 1063 352 
1068 374 375 373 
1069 375 377 376 
1070 377 440 378 
1071 383 988 896 
1072 392 845 408 
1073 431 466 430 
1074 438 439 436 
1075 438 964 515 
1076 513 514 439 
1077 608 609 440 
1078 546 696 446 
1079 550 611 451 
1080 480 596 479 
1081 490 491 488 
1082 495 497 496 
1083 517 670 574 
1084 591 592 518 
1085 586 679 520 
1086 525 1015 682 
1087 537 869 536 
1088 542 917 872 
1089 628 637 545 
1090 548 641 549 
1091 899 1027 549 
1092 565 884 646 
1093 796 797 590 
1094 675 733 592 
1095 606 926 604 
1096 605 630 607 
1097 610 677 609 
1098 619 971 857 
1099 648 995 649 
1100 721 788 656 
1101 662 664 663 
1102 671 672 670 
1103 673 846 672 
1104 714 901 696 
1105 950 952 701 
1106 701 990 950 
1107 1014 1044 710 
1108 1025 1046 713 
1109 1075 1100 716 
1110 743 858 857 
1111 797 1136 1117 
1112 894 896 895 
1113 918 948 947 
1114 157 973 12 
1115 137 936 14 
1116 158 974 16 
1117 159 975 21 
1118 160 976 26 
1119 173 978 33 
1120 38 937 176 
1121 40 998 152 
1122 41 1056 998 
1123 43 1004 144 
1124 45 938 165 
1125 47 1005 136 
1126 49 1007 166 
1127 50 1008 1007 
1128 52 1009 130 
1129 57 1010 138 
1130 59 940 168 
1131 64 1011 155 
1132 83 1012 131 
1133 150 941 101 
1134 143 942 104 
1135 140 943 118 
1136 164 983 120 
1137 1003 1056 144 
1138 818 1133 148 
1139 582 835 183 
1140 186 188 187 
1141 188 190 189 
1142 493 945 188 
1143 324 915 192 
1144 196 198 197 
1145 200 202 201 
1146 202 204 203 
1147 281 927 203 
1148 206 208 207 
1149 863 902 207 
1150 255 863 209 
1151 210 212 211 
1152 211 911 326 
1153 213 214 212 
1154 215 216 214 
1155 214 928 222 
1156 217 218 216 
1157 219 220 218 
1158 218 946 699 
1159 221 223 220 
1160 221 912 235 
1161 223 226 224 
1162 225 947 223 
1163 388 946 224 
1164 226 228 227 
1165 947 948 226 
1166 228 230 229 
1167 230 232 231 
1168 231 949 487 
1169 233 234 232 
1170 233 922 448 
1171 234 239 237 
1172 238 951 234 
1173 235 613 243 
1174 244 325 236 
1175 449 1061 238 
1176 239 242 241 
1177 951 953 239 
1178 250 952 241 
1179 242 248 247 
1180 243 954 245 
1181 246 955 244 
1182 245 273 253 
1183 254 257 246 
1184 249 251 248 
1185 249 953 494 
1186 484 701 250 
1187 251 263 252 
1188 254 923 265 
1189 327 614 255 
1190 536 703 256 
1191 258 259 257 
1192 260 261 259 
1193 262 264 261 
1194 261 907 486 
1195 262 956 267 
1196 263 269 268 
1197 821 957 263 
1198 272 865 266 
1199 267 625 275 
1200 269 277 276 
1201 488 878 270 
1202 271 287 286 
1203 280 958 272 
1204 273 395 394 
1205 279 282 277 
1206 291 298 282 
1207 297 299 284 
1208 297 924 843 
1209 307 312 298 
1210 303 315 299 
1211 302 305 304 
1212 446 987 306 
1213 311 411 410 
1214 312 321 313 
1215 463 619 314 
1216 321 432 322 
1217 326 615 328 
1218 329 1035 327 
1219 328 903 330 
1220 331 351 329 
1221 330 333 332 
1222 347 984 332 
1223 333 335 334 
1224 346 349 348 
1225 354 355 349 
1226 358 360 359 
1227 360 364 363 
1228 365 366 364 
1229 366 380 379 
1230 370 372 371 
1231 384 385 380 
1232 384 961 445 
1233 443 444 385 
1234 935 1058 386 
1235 391 392 390 
1236 391 1067 413 
1237 622 923 394 
1238 395 397 396 
1239 397 399 398 
1240 399 401 400 
1241 489 997 407 
1242 408 428 409 
1243 410 930 546 
1244 423 468 411 
1245 413 815 431 
1246 416 452 451 
1247 420 469 421 
1248 479 909 421 
1249 1086 1128 422 
1250 423 881 594 
1251 473 511 424 
1252 425 475 474 
1253 426 591 518 
1254 519 639 427 
1255 428 471 429 
1256 931 1034 429 
1257 431 503 466 
1258 433 437 435 
1259 435 964 438 
1260 439 478 436 
1261 438 515 513 
1262 442 460 441 
1263 532 868 443 
1264 444 457 456 
1265 445 621 533 
1266 696 697 446 
1267 448 612 499 
1268 506 567 454 
1269 455 1106 845 
1270 789 877 456 
1271 476 477 459 
1272 465 545 464 
1273 464 992 991 
1274 465 711 618 
1275 531 583 466 
1276 469 1050 470 
1277 470 481 480 
1278 471 507 472 
1279 526 823 471 
1280 476 898 589 
1281 588 1036 477 
1282 596 705 479 
1283 481 529 482 
1284 487 950 490 
1285 491 492 488 
1286 490 990 538 
1287 494 709 537 
1288 497 500 498 
1289 522 966 498 
1290 500 638 521 
1291 508 527 510 
1292 598 620 509 
1293 515 661 575 
1294 517 574 516 
1295 666 667 522 
1296 527 580 528 
1297 632 1092 528 
1298 529 576 530 
1299 688 695 534 
1300 535 690 689 
1301 542 872 871 
1302 546 1094 714 
1303 552 553 551 
1304 556 557 555 
1305 561 565 564 
1306 587 653 563 
1307 565 569 566 
1308 658 791 571 
1309 573 748 732 
1310 576 776 577 
1311 577 687 686 
1312 585 757 580 
1313 581 634 633 
1314 586 680 679 
1315 591 675 592 
1316 596 1051 819 
1317 856 914 599 
1318 600 602 601 
1319 678 820 600 
1320 602 742 603 
1321 890 926 606 
1322 630 698 607 
1323 607 861 822 
1324 612 918 917 
1325 615 932 903 
1326 617 624 616 
1327 621 685 684 
1328 961 1053 621 
1329 899 900 622 
1330 624 1045 1039 
1331 716 1076 628 
1332 638 1038 1037 
1333 649 652 651 
1334 652 656 655 
1335 657 721 656 
1336 662 663 661 
1337 668 669 667 
1338 667 988 966 
1339 752 760 677 
1340 769 770 680 
1341 702 990 701 
1342 817 1023 702 
1343 901 1114 703 
1344 779 972 704 
1345 862 927 707 
1346 709 1061 1039 
1347 711 1090 1062 
1348 712 1102 1018 
1349 728 740 739 
1350 743 859 858 
1351 783 784 782 
1352 1067 1073 815 
1353 864 908 902 
1354 873 874 870 
1355 873 1095 959 
1356 878 926 887 
1357 934 1105 1058 
1358 949 952 950 
1359 965 1112 1109 
1360 998 1000 999 
1361 1000 1002 1001 
1362 1000 1003 1002 
1363 976 977 133 
1364 190 945 324 
1365 194 915 274 
1366 195 1097 1018 
1367 205 902 281 
1368 620 931 509 
1369 525 676 584 
1370 556 558 557 
1371 566 969 564 
1372 649 650 570 
1373 608 610 609 
1374 655 767 651 
1375 768 910 767 
1376 1155 1160 1030 
1377 8 153 7 
1378 10 1077 9 
1379 11 148 10 
1380 13 157 12 
1381 15 137 14 
1382 17 158 16 
1383 20 129 19 
1384 22 159 21 
1385 25 133 24 
1386 27 160 26 
1387 29 141 28 
1388 32 149 31 
1389 34 173 33 
1390 144 1056 42 
1391 100 175 99 
1392 102 150 101 
1393 105 143 104 
1394 107 161 106 
1395 109 135 108 
1396 111 162 110 
1397 114 132 113 
1398 116 163 115 
1399 119 140 118 
1400 121 164 120 
1401 123 145 122 
1402 126 156 125 
1403 128 177 127 
1404 153 182 181 
1405 325 1080 1031 
1406 387 1105 962 
1407 583 1028 466 
1408 733 747 592 
1409 749 750 660 
1410 668 737 674 
1411 682 759 758 
1412 942 981 980 
1413 153 180 7 
1414 198 199 197 
1415 200 201 199 
1416 199 862 300 
1417 202 1021 204 
1418 212 911 211 
1419 220 946 218 
1420 224 946 220 
1421 221 235 225 
1422 235 243 236 
1423 325 1057 236 
1424 253 923 254 
1425 265 1060 258 
1426 902 908 281 
1427 287 929 290 
1428 296 308 295 
1429 1031 1057 325 
1430 1076 1100 341 
1431 395 904 397 
1432 398 867 396 
1433 397 904 403 
1434 625 1121 1113 
1435 891 1077 700 
1436 865 958 706 
1437 826 827 825 
1438 828 829 827 
1439 830 831 829 
1440 864 902 863 
1441 864 985 908 
1442 875 1080 955 
1443 11 973 148 
1444 13 936 157 
1445 15 974 137 
1446 20 975 129 
1447 25 976 133 
1448 32 978 149 
1449 34 979 173 
1450 100 941 175 
1451 102 980 150 
1452 116 982 163 
1453 119 983 140 
1454 121 944 164 
1455 182 183 181 
1456 182 184 183 
1457 184 186 185 
1458 185 996 582 
1459 186 493 188 
1460 189 467 187 
1461 192 915 194 
1462 389 391 390 
1463 717 1033 440 
1464 452 551 550 
1465 475 572 571 
1466 554 555 553 
1467 557 693 555 
1468 556 559 558 
1469 561 564 563 
1470 572 654 640 
1471 598 707 620 
1472 659 660 647 
1473 652 655 651 
1474 671 673 672 
1475 806 807 805 
1476 826 828 827 
1477 1175 1179 921 
1478 153 181 180 
1479 404 405 402 
1480 415 418 417 
1481 415 453 418 
1482 561 563 560 
1483 933 935 713 
1484 792 794 793 
1485 803 804 802 
1486 837 838 836 
1487 148 1077 10 
1488 182 700 184 
1489 190 191 189 
1490 192 193 191 
1491 194 195 193 
1492 228 948 922 
1493 230 922 233 
1494 237 952 949 
1495 242 247 241 
1496 260 956 262 
1497 264 907 261 
1498 275 283 280 
1499 277 285 276 
1500 283 295 284 
1501 287 288 286 
1502 295 924 297 
1503 297 843 303 
1504 303 318 317 
1505 305 306 304 
1506 312 888 422 
1507 379 1081 364 
1508 413 430 393 
1509 404 414 405 
1510 415 417 405 
1511 418 548 417 
1512 448 499 449 
1513 567 1040 454 
1514 470 480 479 
1515 481 482 480 
1516 480 1051 596 
1517 502 604 492 
1518 526 825 823 
1519 537 1045 869 
1520 562 879 558 
1521 648 649 570 
1522 600 601 599 
1523 605 606 604 
1524 607 822 606 
1525 617 874 811 
1526 654 720 640 
1527 652 995 657 
1528 669 988 667 
1529 683 780 779 
1530 694 775 693 
1531 714 1114 901 
1532 947 1057 918 
1533 7 180 6 
1534 12 973 11 
1535 14 936 13 
1536 16 974 15 
1537 21 975 20 
1538 26 976 25 
1539 33 978 32 
1540 35 979 34 
1541 101 941 100 
1542 103 980 102 
1543 104 942 103 
1544 942 980 103 
1545 117 982 116 
1546 118 943 117 
1547 943 982 117 
1548 120 983 119 
1549 122 944 121 
1550 145 944 122 
1551 181 751 180 
1552 193 320 191 
1553 194 274 196 
1554 271 929 287 
1555 283 882 296 
1556 1018 1102 320 
1557 337 338 336 
1558 925 1043 341 
1559 342 892 597 
1560 367 1026 353 
1561 378 464 376 
1562 404 416 414 
1563 415 916 453 
1564 470 479 421 
1565 481 579 529 
1566 581 633 632 
1567 595 723 722 
1568 596 706 705 
1569 641 715 708 
1570 652 657 656 
1571 851 1059 671 
1572 959 1095 907 
1573 190 192 191 
1574 192 194 193 
1575 194 196 195 
1576 317 420 315 
1577 344 345 343 
1578 362 383 368 
1579 406 442 441 
1580 989 1110 416 
1581 611 916 451 
1582 491 933 501 
1583 498 966 496 
1584 563 920 560 
1585 646 886 569 
1586 582 836 835 
1587 593 834 833 
1588 598 848 707 
1589 690 692 691 
1590 694 800 799 
1591 710 1044 906 
1592 711 1104 1090 
1593 1068 1126 750 
1594 804 805 802 
1595 837 1068 840 
1596 165 1004 44 
1597 136 938 46 
1598 166 1005 48 
1599 171 1012 84 
1600 1012 1013 131 
1601 998 999 152 
1602 938 939 165 
1603 196 197 195 
1604 210 211 209 
1605 211 326 255 
1606 214 222 212 
1607 215 294 217 
1608 218 699 216 
1609 614 863 255 
1610 281 1049 927 
1611 326 328 327 
1612 351 1035 329 
1613 333 334 332 
1614 997 1035 351 
1615 354 357 355 
1616 359 1014 355 
1617 386 1058 357 
1618 363 1044 359 
1619 360 365 364 
1620 373 991 371 
1621 440 1033 378 
1622 378 465 464 
1623 455 845 393 
1624 399 400 398 
1625 507 508 472 
1626 527 585 580 
1627 581 632 528 
1628 538 934 933 
1629 640 658 571 
1630 604 926 878 
1631 637 1043 993 
1632 1113 1121 715 
1633 803 852 804 
1634 837 840 838 
1635 925 1048 1043 
1636 318 425 424 
1637 375 376 373 
1638 374 406 382 
1639 468 543 411 
1640 453 454 418 
1641 418 1040 548 
1642 419 535 534 
1643 497 498 496 
1644 597 1046 1025 
1645 717 1104 1033 
1646 1078 1115 718 
1647 804 806 805 
1648 840 841 838 
1649 39 937 38 
1650 41 998 40 
1651 42 1056 41 
1652 44 1004 43 
1653 46 938 45 
1654 48 1005 47 
1655 50 1007 49 
1656 51 1008 50 
1657 53 1009 52 
1658 58 1010 57 
1659 60 940 59 
1660 65 1011 64 
1661 84 1012 83 
1662 200 240 202 
1663 202 203 201 
1664 204 205 203 
1665 208 209 207 
1666 222 911 212 
1667 219 912 221 
1668 221 225 223 
1669 222 1052 911 
1670 225 1057 947 
1671 228 229 227 
1672 240 1022 1021 
1673 875 955 257 
1674 263 957 269 
1675 265 923 900 
1676 287 290 289 
1677 292 319 288 
1678 311 423 411 
1679 316 1135 881 
1680 328 330 329 
1681 335 336 334 
1682 343 925 340 
1683 346 855 354 
1684 355 1014 349 
1685 358 359 355 
1686 357 1058 387 
1687 362 368 367 
1688 366 379 364 
1689 366 961 384 
1690 380 426 379 
1691 895 1059 381 
1692 392 407 390 
1693 396 622 394 
1694 428 429 409 
1695 1021 1054 412 
1696 420 905 635 
1697 425 473 424 
1698 442 851 517 
1699 445 533 532 
1700 458 476 459 
1701 458 898 476 
1702 477 520 459 
1703 508 509 472 
1704 474 512 473 
1705 500 521 498 
1706 501 626 502 
1707 502 1066 605 
1708 503 547 531 
1709 527 528 510 
1710 594 595 524 
1711 526 826 825 
1712 542 870 539 
1713 898 972 589 
1714 635 724 636 
1715 685 816 684 
1716 1088 1114 714 
1717 858 1128 1086 
1718 896 897 895 
1719 918 1031 917 
1720 342 597 344 
1721 345 1016 343 
1722 350 1026 1016 
1723 383 894 368 
1724 892 1046 597 
1725 889 1099 608 
1726 1072 1083 611 
1727 691 921 774 
1728 800 801 799 
1729 834 1140 833 
1730 184 1096 186 
1731 331 389 351 
1732 413 1067 815 
1733 428 526 471 
1734 503 531 466 
1735 538 933 491 
1736 604 878 492 
1737 573 666 522 
1738 552 554 553 
1739 569 570 566 
1740 822 890 606 
1741 630 965 698 
1742 634 647 633 
1743 381 994 372 
1744 376 991 373 
1745 548 1040 644 
1746 610 752 677 
1747 798 1131 643 
1748 1031 1080 872 
1749 271 286 264 
1750 267 275 272 
1751 289 292 288 
1752 293 301 292 
1753 315 909 299 
1754 302 304 301 
1755 405 1027 402 
1756 402 1027 867 
1757 454 1040 418 
1758 469 470 421 
1759 465 1033 711 
1760 529 530 482 
1761 486 1103 875 
1762 499 542 539 
1763 505 627 506 
1764 525 682 676 
1765 1039 1045 537 
1766 559 560 558 
1767 560 920 562 
1768 576 777 776 
1769 595 1020 723 
1770 610 753 752 
1771 857 1086 619 
1772 649 995 652 
1773 664 725 665 
1774 668 674 669 
1775 715 1121 854 
1776 804 808 806 
1777 859 860 858 
1778 867 1027 899 
1779 871 1095 873 
1780 918 1057 1031 
1781 240 1021 202 
1782 204 206 205 
1783 204 1021 412 
1784 208 210 209 
1785 216 928 214 
1786 236 1057 225 
1787 266 271 264 
1788 275 882 283 
1789 284 883 280 
1790 908 1049 281 
1791 287 289 288 
1792 319 959 288 
1793 289 293 292 
1794 293 302 301 
1795 1055 1079 293 
1796 299 909 883 
1797 955 1080 325 
1798 991 1071 371 
1799 461 889 382 
1800 391 413 393 
1801 447 904 395 
1802 401 989 400 
1803 429 1034 409 
1804 442 516 460 
1805 635 636 469 
1806 499 917 542 
1807 504 1090 503 
1808 580 581 528 
1809 569 648 570 
1810 650 1111 570 
1811 922 948 612 
1812 911 1052 615 
1813 620 1065 931 
1814 712 1107 632 
1815 634 659 647 
1816 634 754 659 
1817 634 986 754 
1818 1162 1165 657 
1819 659 749 660 
1820 827 832 825 
1821 917 1031 872 
1822 875 1103 1080 
1823 985 1065 908 
1824 370 381 372 
1825 465 618 545 
1826 670 735 574 
1827 775 1119 693 
1828 1088 1094 631 
1829 649 651 650 
1830 673 897 846 
1831 682 758 676 
1832 693 1119 1019 
1833 1036 1091 772 
1834 1000 1056 1003 
1835 187 996 185 
1836 258 1060 260 
1837 272 958 865 
1838 288 959 286 
1839 318 424 317 
1840 396 867 622 
1841 482 1051 480 
1842 965 1109 485 
1843 617 811 624 
1844 653 1158 853 
1845 1106 1116 828 
1846 9 1077 891 
1847 700 1096 184 
1848 336 1075 334 
1849 389 1067 391 
1850 628 1076 637 
1851 1092 1107 848 
1852 1016 1048 925 
1853 977 1125 1115 
1854 998 1056 1000 
1855 336 1100 1075 
1856 641 708 549 
1857 686 796 590 
1858 715 854 708 
1859 818 1143 1133 
1860 232 949 231 
1861 231 487 270 
1862 234 237 232 
1863 233 448 238 
1864 242 953 249 
1865 251 252 248 
1866 261 486 259 
1867 262 267 266 
1868 269 276 268 
1869 269 957 279 
1870 625 882 275 
1871 279 1029 291 
1872 291 310 307 
1873 293 1079 302 
1874 312 313 298 
1875 304 987 323 
1876 321 322 313 
1877 619 888 314 
1878 432 433 322 
1879 984 1067 389 
1880 511 905 424 
1881 435 438 436 
1882 697 987 446 
1883 616 1061 449 
1884 916 1083 453 
1885 462 631 463 
1886 540 1088 462 
1887 487 490 488 
1888 949 950 487 
1889 950 990 490 
1890 494 537 536 
1891 627 1125 506 
1892 515 964 662 
1893 521 573 522 
1894 990 1023 538 
1895 546 714 696 
1896 743 857 603 
1897 605 1066 630 
1898 621 1053 685 
1899 866 1045 624 
1900 815 1073 919 
1901 821 967 957 
1902 24 1078 23 
1903 197 1097 195 
1904 342 343 340 
1905 361 1032 362 
1906 495 496 361 
1907 687 1024 686 
1908 198 1153 1145 
1909 453 1083 505 
1910 568 1148 567 
1911 1124 1140 834 
1912 17 1124 158 
1913 334 1075 347 
1914 372 994 374 
1915 409 1034 489 
1916 643 1072 611 
1917 660 1126 1123 
1918 664 726 725 
1919 788 1172 1163 
1920 984 1073 1067 
1921 489 1047 997 
1922 864 1047 985 
1923 1060 1121 956 
1924 975 1131 129 
1925 229 887 227 
1926 249 256 251 
1927 321 1030 432 
1928 408 1069 428 
1929 411 930 410 
1930 437 1142 1120 
1931 475 1118 572 
1932 738 745 575 
1933 588 1091 1036 
1934 919 1074 629 
1935 660 1123 647 
1936 1143 1150 493 
1937 720 1173 1127 
1938 31 1127 30 
1939 572 970 654 
1940 593 1019 834 
1941 299 883 284 
1942 286 959 907 
1943 370 371 369 
1944 369 1071 541 
1945 966 1032 496 
1946 501 933 713 
1947 626 1066 502 
1948 596 819 706 
1949 895 897 673 
1950 1055 1136 797 
1951 854 1121 1060 
1952 860 1128 858 
1953 341 1100 338 
1954 1043 1076 341 
1955 501 502 492 
1956 518 1093 519 
1957 710 1063 1014 
1958 830 1116 1089 
1959 893 1112 1066 
1960 1044 1108 906 
1961 1159 1174 173 
1962 467 996 187 
1963 300 1097 197 
1964 247 1087 483 
1965 260 1060 956 
1966 819 1136 290 
1967 291 1029 310 
1968 788 1163 294 
1969 294 1164 788 
1970 848 1107 300 
1971 300 1107 1097 
1972 314 888 307 
1973 422 1030 321 
1974 485 1109 335 
1975 347 1073 984 
1976 357 358 355 
1977 496 1032 361 
1978 427 1081 379 
1979 431 504 503 
1980 441 1070 461 
1981 1028 1116 455 
1982 458 459 457 
1983 462 1088 631 
1984 489 1034 985 
1985 985 1047 489 
1986 502 605 604 
1987 503 1090 547 
1988 590 1117 530 
1989 538 1023 934 
1990 540 1114 1088 
1991 745 1084 575 
1992 583 1089 1028 
1993 623 1091 588 
1994 589 972 773 
1995 747 1093 592 
1996 857 971 603 
1997 605 607 606 
1998 618 1062 629 
1999 619 1086 888 
2000 631 1094 914 
2001 639 1108 1081 
2002 664 1120 726 
2003 683 1085 780 
2004 1097 1107 712 
2005 722 1042 1041 
2006 726 1142 728 
2007 828 1116 830 
2008 1022 1054 1021 
2009 148 1133 1077 
2010 352 1063 495 
2011 750 1126 660 
2012 186 1096 493 
2013 198 1145 200 
2014 381 1059 994 
2015 520 1082 459 
2016 684 1085 533 
2017 566 1111 969 
2018 711 1062 618 
2019 858 1086 857 
2020 338 1100 336 
2021 719 1064 419 
2022 505 1083 642 
2023 528 1092 510 
2024 1019 1119 834 
2025 637 1076 1043 
2026 1041 1042 678 
2027 908 1065 1049 
2028 133 1078 24 
2029 239 953 242 
2030 302 1079 316 
2031 1058 1105 387 
2032 543 930 411 
2033 428 1069 526 
2034 882 1113 450 
2035 1087 1137 483 
2036 797 1117 590 
2037 1039 1061 616 
2038 1069 1106 826 
2039 639 1139 1101 
2040 274 1153 196 
2041 337 1109 356 
2042 356 1112 893 
2043 1113 1129 450 
2044 844 1118 475 
2045 572 1118 970 
2046 641 1129 715 
2047 785 1158 653 
2048 784 1132 782 
2049 193 1018 320 
2050 363 1108 1044 
2051 371 1071 369 
2052 570 1111 566 
2053 1049 1065 620 
2054 630 1112 965 
2055 643 1122 1072 
2056 642 1083 1072 
2057 633 1102 712 
2058 19 1140 18 
2059 320 1123 880 
2060 347 1074 1073 
2061 647 1102 633 
2062 1122 1131 975 
2063 159 1122 975 
2064 195 1018 193 
2065 416 1110 452 
2066 639 1081 427 
2067 481 1050 579 
2068 530 1117 482 
2069 786 1166 1145 
2070 872 1103 871 
2071 290 1055 289 
2072 796 1135 316 
2073 419 1064 535 
2074 447 1165 904 
2075 500 1101 638 
2076 510 1092 598 
2077 526 1069 826 
2078 567 1147 1040 
2079 625 1113 882 
2080 956 1121 625 
2081 645 1138 885 
2082 1077 1133 700 
2083 700 1133 1096 
2084 826 1106 828 
2085 1123 1126 880 
2086 18 1124 17 
2087 23 1144 22 
2088 335 1109 337 
2089 575 1084 513 
2090 159 1134 1122 
2091 495 1063 710 
2092 644 1129 641 
2093 907 1095 486 
2094 513 1084 514 
2095 533 1085 683 
2096 1080 1103 872 
2097 450 1130 309 
2098 552 1110 645 
2099 1138 1141 885 
2100 289 1055 293 
2101 290 1136 1055 
2102 470 1050 481 
2103 149 1127 31 
2104 535 1064 690 
2105 880 1126 467 
2106 1090 1104 547 
2107 807 1150 1143 
2108 1122 1134 1072 
2109 1070 1098 461 
2110 506 1125 568 
2111 434 1146 963 
2112 461 1099 889 
2113 1134 1144 718 
2114 753 1099 1098 
2115 403 1152 399 
2116 432 1149 433 
2117 437 1120 964 
2118 457 1082 523 
2119 598 1092 848 
2120 782 1132 623 
2121 642 1134 718 
2122 886 1154 648 
2123 1073 1074 919 
2124 644 1147 1130 
2125 309 1130 719 
2126 482 1117 1051 
2127 702 1023 990 
2128 401 1141 1138 
2129 294 1163 217 
2130 643 1131 1122 
2131 478 1146 436 
2132 459 1082 457 
2133 964 1120 662 
2134 741 1160 1155 
2135 493 1150 945 
2136 1115 1125 627 
2137 1064 1161 690 
2138 1174 1178 978 
2139 954 1169 447 
2140 240 1166 1022 
2141 567 1148 1147 
2142 807 1143 818 
2143 686 1135 796 
2144 1130 1147 719 
2145 219 1163 912 
2146 1022 1166 1111 
2147 432 1160 1149 
2148 963 1146 784 
2149 452 1110 552 
2150 728 1142 740 
2151 1072 1134 642 
2152 795 1174 1159 
2153 904 1162 403 
2154 853 1157 808 
2155 133 1115 1078 
2156 1129 1130 450 
2157 995 1162 657 
2158 149 1178 1177 
2159 808 1157 1151 
2160 646 1141 886 
2161 788 1164 656 
2162 399 1152 401 
2163 160 1167 976 
2164 422 1128 1030 
2165 623 1132 1091 
2166 1111 1166 969 
2167 910 1171 208 
2168 215 1170 294 
2169 401 1138 989 
2170 1030 1160 432 
2171 436 1146 434 
2172 483 1137 787 
2173 1096 1143 493 
2174 1040 1147 644 
2175 885 1141 646 
2176 655 1164 768 
2177 1147 1148 719 
2178 781 1137 1087 
2179 159 1144 1134 
2180 22 1144 159 
2181 200 1145 240 
2182 433 1149 437 
2183 18 1140 1124 
2184 945 1151 324 
2185 1151 1157 324 
2186 644 1130 1129 
2187 1024 1135 686 
2188 208 1171 210 
2189 1098 1099 461 
2190 149 1177 1127 
2191 447 1169 1165 
2192 30 1173 29 
2193 808 1151 806 
2194 719 1148 1064 
2195 196 1153 198 
2196 806 1150 807 
2197 141 1179 28 
2198 692 1176 1167 
2199 978 1178 149 
2200 921 1179 141 
2201 638 1139 1038 
2202 979 1159 173 
2203 27 1179 160 
2204 648 1154 995 
2205 692 1175 691 
2206 401 1152 1141 
2207 912 1172 613 
2208 324 1157 915 
2209 1149 1160 740 
2210 720 1177 640 
2211 1167 1176 977 
2212 1101 1139 638 
2213 740 1160 741 
2214 1142 1149 740 
2215 1141 1152 886 
2216 1128 1155 1030 
2217 217 1163 219 
2218 437 1149 1142 
2219 1127 1177 720 
2220 814 1174 795 
2221 860 1155 1128 
2222 690 1161 692 
2223 173 1174 978 
2224 403 1162 1154 
2225 1155 1156 741 
2226 969 1166 786 
2227 656 1164 655 
2228 976 1167 977 
2229 1161 1176 692 
2230 657 1165 721 
2231 213 1171 1170 
2232 613 1169 954 
2233 654 1168 720 
2234 691 1175 921 
2235 1165 1169 721 
2236 814 1178 1174 
2237 860 1156 1155 
2238 1150 1151 945 
2239 213 1170 215 
2240 29 1173 141 
2241 721 1172 788 
2242 210 1171 213 
2243 806 1151 1150 
2244 568 1176 1161 
2245 160 1175 1167 
2246 1154 1162 995 
2247 658 1178 814 
2248 1125 1176 568 
2249 1167 1175 692 
2250 640 1177 658 
2251 141 1173 1168 
2252 1177 1178 658 
2253 613 1172 1169 
2254 977 1176 1125 
2255 28 1179 27 
2256 1169 1172 721 
2257 1168 1173 720 
2258 1010 1236 138 
2259 754 1262 1228 
2260 760 1237 161 
2261 1183 1189 583 
2262 1226 1261 1009 
2263 766 1180 717 
2264 717 1180 1104 
2265 547 1180 578 
2266 777 1230 1006 
2267 1093 1256 1197 
2268 1042 1261 1226 
2269 63 1181 62 
2270 731 1182 636 
2271 1050 1182 579 
2272 531 1183 583 
2273 6 1187 5 
2274 37 1184 36 
2275 68 1185 67 
2276 99 1186 98 
2277 751 1187 180 
2278 1104 1180 547 
2279 135 1217 765 
2280 178 1235 1011 
2281 1181 1227 62 
2282 56 1188 55 
2283 765 1189 1183 
2284 511 1254 1001 
2285 770 1195 771 
2286 665 1190 736 
2287 151 1191 70 
2288 736 1192 663 
2289 71 1193 151 
2290 812 1205 813 
2291 69 1191 174 
2292 661 1192 738 
2293 813 1215 790 
2294 142 1194 73 
2295 675 1215 733 
2296 846 1216 847 
2297 746 1211 1015 
2298 732 1206 666 
2299 771 1204 680 
2300 179 1208 96 
2301 169 1200 75 
2302 134 1199 77 
2303 131 1196 82 
2304 139 1202 87 
2305 670 1212 735 
2306 78 1213 134 
2307 80 1209 170 
2308 737 1216 674 
2309 88 1210 139 
2310 74 1200 142 
2311 76 1199 169 
2312 85 1201 171 
2313 92 1207 147 
2314 95 1208 154 
2315 1012 1198 1013 
2316 154 1203 94 
2317 172 1210 89 
2318 147 1214 91 
2319 170 1213 79 
2320 745 1195 1084 
2321 682 1211 759 
2322 1093 1197 519 
2323 90 1214 172 
2324 679 1204 734 
2325 734 1205 681 
2326 847 1212 672 
2327 668 1206 737 
2328 1139 1197 1038 
2329 1003 1229 724 
2330 1008 1233 1007 
2331 109 1217 135 
2332 162 1217 110 
2333 155 1181 63 
2334 161 1247 762 
2335 840 1218 841 
2336 749 1218 750 
2337 1222 1260 739 
2338 636 1182 1050 
2339 175 1232 1186 
2340 1197 1256 1013 
2341 140 1231 943 
2342 578 1183 531 
2343 156 1249 839 
2344 55 1221 54 
2345 175 1186 99 
2346 176 1184 37 
2347 180 1187 6 
2348 174 1185 68 
2349 741 1222 739 
2350 730 1227 1181 
2351 678 1226 820 
2352 830 1225 831 
2353 61 1227 146 
2354 659 1228 749 
2355 132 1234 832 
2356 579 1230 529 
2357 576 1230 777 
2358 850 1231 585 
2359 778 1233 1020 
2360 163 1234 115 
2361 114 1234 132 
2362 742 1236 743 
2363 161 1237 106 
2364 105 1237 143 
2365 860 1238 1156 
2366 132 1239 113 
2367 1159 1240 795 
2368 676 1241 755 
2369 727 1242 725 
2370 722 1243 1042 
2371 986 1244 754 
2372 152 1245 937 
2373 1002 1248 511 
2374 1004 1229 144 
2375 944 1228 164 
2376 107 1247 161 
2377 135 1247 108 
2378 138 1188 56 
2379 635 1248 724 
2380 511 1248 905 
2381 126 1249 156 
2382 177 1249 127 
2383 2 1250 35 
2384 36 1250 2 
2385 5 1252 1 
2386 1 1252 128 
2387 98 1253 4 
2388 3 1251 66 
2389 67 1251 3 
2390 4 1253 97 
2391 793 1254 512 
2392 473 1254 511 
2393 167 1226 1009 
2394 1038 1255 1037 
2395 777 1220 776 
2396 824 1219 850 
2397 165 1257 1004 
2398 838 1246 156 
2399 942 1223 981 
2400 583 1189 1089 
2401 842 1219 824 
2402 776 1220 778 
2403 1084 1195 770 
2404 729 1190 665 
2405 70 1191 69 
2406 663 1192 661 
2407 72 1193 71 
2408 72 1194 1193 
2409 73 1194 72 
2410 519 1197 1139 
2411 681 1205 812 
2412 86 1202 1201 
2413 82 1196 81 
2414 75 1200 74 
2415 77 1199 76 
2416 86 1201 85 
2417 87 1202 86 
2418 94 1203 93 
2419 96 1208 95 
2420 93 1207 92 
2421 171 1198 1012 
2422 680 1204 679 
2423 1203 1207 93 
2424 1196 1209 81 
2425 79 1213 78 
2426 81 1209 80 
2427 89 1210 88 
2428 91 1214 90 
2429 1015 1211 682 
2430 666 1206 668 
2431 672 1212 670 
2432 790 1215 675 
2433 674 1216 846 
2434 980 1224 150 
2435 146 1260 1222 
2436 143 1223 942 
2437 146 1222 940 
2438 112 1239 831 
2439 110 1217 109 
2440 981 1224 980 
2441 1013 1256 131 
2442 1182 1259 579 
2443 1189 1225 1089 
2444 750 1218 840 
2445 982 1219 163 
2446 166 1220 1005 
2447 156 1246 125 
2448 731 1257 1182 
2449 1189 1258 1225 
2450 1006 1259 939 
2451 1198 1255 1038 
2452 54 1221 167 
2453 753 1223 752 
2454 1156 1222 741 
2455 755 1224 756 
2456 793 1245 999 
2457 124 1246 841 
2458 144 1229 1003 
2459 939 1259 1182 
2460 1185 1235 178 
2461 1042 1226 678 
2462 1089 1225 830 
2463 62 1227 61 
2464 754 1228 659 
2465 724 1229 731 
2466 579 1259 1230 
2467 831 1239 829 
2468 1182 1257 939 
2469 794 1245 793 
2470 125 1246 124 
2471 529 1230 576 
2472 1186 1232 179 
2473 585 1231 757 
2474 759 1232 758 
2475 1020 1233 723 
2476 115 1234 114 
2477 171 1255 1198 
2478 743 1236 859 
2479 106 1237 105 
2480 859 1238 860 
2481 113 1239 112 
2482 795 1240 794 
2483 758 1241 676 
2484 725 1242 729 
2485 723 1243 722 
2486 757 1244 986 
2487 999 1245 152 
2488 841 1246 838 
2489 108 1247 107 
2490 905 1248 635 
2491 1187 1252 5 
2492 1184 1250 36 
2493 1186 1253 98 
2494 1185 1251 67 
2495 1225 1258 162 
2496 127 1249 126 
2497 1244 1262 754 
2498 1243 1261 1042 
2499 66 1251 178 
2500 97 1253 179 
2501 128 1252 177 
2502 35 1250 979 
2503 512 1254 473 
2504 1227 1260 146 
2505 1037 1255 748 
2506 747 1256 1093 
2507 162 1258 1217 
2508 739 1260 730 
2509 939 1257 165 
2510 729 1235 1190 
2511 164 1262 983 
2512 1009 1261 130 
2513 178 1251 1185 
2514 177 1252 1187 
2515 179 1253 1186 
2516 979 1250 1184 
2517 1230 1259 1006 
2518 765 1258 1189 
2519 1217 1258 765 
2520 730 1260 1227 
2521 130 1261 1243 
2522 983 1262 1244 
$EndElements
