$MeshFormat
4.1 0 8
$EndMeshFormat
$PhysicalNames
3
1 1 "Boundary 1"
1 2 "Boundary 2"
2 3 "Surface Rect"
$EndPhysicalNames
$Entities
4 4 1 0
1 0 0 0 0 
2 1 0 0 0 
3 1 1 0 0 
4 0 1 0 0 
7 0 0 0 1 0 0 1 1 2 1 -2 
8 1 0 0 1 1 0 1 1 2 2 -3 
9 0 1 0 1 1 0 1 2 2 3 -4 
10 0 0 0 0 1 0 1 2 2 4 -1 
16 0 0 0 1 1 0 1 3 4 7 8 9 10 
$EndEntities
$Nodes
9 289 1 289
0 1 0 1
1
0 0 0
0 2 0 1
2
1 0 0
0 3 0 1
3
1 1 0
0 4 0 1
4
0 1 0
1 7 0 15
5
6
7
8
9
10
11
12
13
14
15
16
17
18
19
0.1249999999997731 0 0
0.2499999999994109 0 0
0.3749999999990461 0 0
0.4999999999986921 0 0
0.6249999999990109 0 0
0.7499999999993406 0 0
0.8749999999996703 0 0
0.06249999999987027 0 0
0.187499999999592 0 0
0.3124999999992285 0 0
0.4374999999988691 0 0
0.5624999999988515 0 0
0.6874999999991758 0 0
0.8124999999995054 0 0
0.9374999999998351 0 0
1 8 0 15
20
21
22
23
24
25
26
27
28
29
30
31
32
33
34
1 0.1249999999997731 0
1 0.2499999999994109 0
1 0.3749999999990461 0
1 0.4999999999986921 0
1 0.6249999999990109 0
1 0.7499999999993406 0
1 0.8749999999996703 0
1 0.06249999999987027 0
1 0.187499999999592 0
1 0.3124999999992285 0
1 0.4374999999988691 0
1 0.5624999999988515 0
1 0.6874999999991758 0
1 0.8124999999995054 0
1 0.9374999999998351 0
1 9 0 15
35
36
37
38
39
40
41
42
43
44
45
46
47
48
49
0.8749999999995012 1 0
0.7500000000003471 1 0
0.625000000001214 1 0
0.5000000000020595 1 0
0.3750000000015609 1 0
0.2500000000010405 1 0
0.1250000000005203 1 0
0.9374999999996884 1 0
0.8124999999999951 1 0
0.6875000000007888 1 0
0.5625000000017122 1 0
0.4375000000018101 1 0
0.3125000000013006 1 0
0.1875000000007804 1 0
0.06250000000026013 1 0
1 10 0 15
50
51
52
53
54
55
56
57
58
59
60
61
62
63
64
0 0.8749999999995012 0
0 0.7500000000003471 0
0 0.625000000001214 0
0 0.5000000000020595 0
0 0.3750000000015609 0
0 0.2500000000010405 0
0 0.1250000000005203 0
0 0.9374999999996884 0
0 0.8124999999999951 0
0 0.6875000000007888 0
0 0.5625000000017122 0
0 0.4375000000018101 0
0 0.3125000000013006 0
0 0.1875000000007804 0
0 0.06250000000026013 0
2 16 0 225
65
66
67
68
69
70
71
72
73
74
75
76
77
78
79
80
81
82
83
84
85
86
87
88
89
90
91
92
93
94
95
96
97
98
99
100
101
102
103
104
105
106
107
108
109
110
111
112
113
114
115
116
117
118
119
120
121
122
123
124
125
126
127
128
129
130
131
132
133
134
135
136
137
138
139
140
141
142
143
144
145
146
147
148
149
150
151
152
153
154
155
156
157
158
159
160
161
162
163
164
165
166
167
168
169
170
171
172
173
174
175
176
177
178
179
180
181
182
183
184
185
186
187
188
189
190
191
192
193
194
195
196
197
198
199
200
201
202
203
204
205
206
207
208
209
210
211
212
213
214
215
216
217
218
219
220
221
222
223
224
225
226
227
228
229
230
231
232
233
234
235
236
237
238
239
240
241
242
243
244
245
246
247
248
249
250
251
252
253
254
255
256
257
258
259
260
261
262
263
264
265
266
267
268
269
270
271
272
273
274
275
276
277
278
279
280
281
282
283
284
285
286
287
288
289
0.1249999999998665 0.1250000000004269 0
0.1249999999999599 0.2500000000008368 0
0.1250000000000533 0.3750000000012465 0
0.1250000000001467 0.5000000000016386 0
0.1250000000002401 0.6250000000009387 0
0.1250000000003335 0.7500000000002212 0
0.1250000000004269 0.8749999999995224 0
0.2499999999996146 0.1250000000003335 0
0.2499999999998184 0.2500000000006332 0
0.250000000000022 0.3750000000009323 0
0.2500000000002257 0.5000000000012176 0
0.2500000000004294 0.6250000000006634 0
0.2500000000006332 0.7500000000000955 0
0.2500000000008368 0.8749999999995434 0
0.3749999999993605 0.1250000000002401 0
0.3749999999996748 0.2500000000004294 0
0.3749999999999891 0.3750000000006178 0
0.3750000000003035 0.5000000000007966 0
0.3750000000006179 0.6250000000003878 0
0.3750000000009322 0.7499999999999696 0
0.3750000000012465 0.8749999999995648 0
0.4999999999991129 0.1250000000001467 0
0.4999999999995339 0.2500000000002257 0
0.4999999999999548 0.3750000000003034 0
0.5000000000003758 0.5000000000003758 0
0.5000000000007968 0.6250000000001125 0
0.5000000000012176 0.7499999999998439 0
0.5000000000016386 0.8749999999995856 0
0.6249999999992862 0.1250000000000533 0
0.6249999999995616 0.2500000000000221 0
0.6249999999998369 0.3749999999999892 0
0.6250000000001125 0.4999999999999548 0
0.6250000000003878 0.6249999999998369 0
0.6250000000006631 0.749999999999718 0
0.6250000000009388 0.874999999999607 0
0.7499999999994666 0.1249999999999599 0
0.7499999999995923 0.2499999999998184 0
0.749999999999718 0.3749999999996748 0
0.7499999999998439 0.4999999999995339 0
0.7499999999999698 0.6249999999995616 0
0.7500000000000955 0.7499999999995921 0
0.7500000000002214 0.8749999999996279 0
0.8749999999996489 0.1249999999998665 0
0.8749999999996282 0.2499999999996146 0
0.874999999999607 0.3749999999993605 0
0.8749999999995858 0.499999999999113 0
0.8749999999995646 0.6249999999992863 0
0.8749999999995433 0.7499999999994664 0
0.8749999999995223 0.8749999999996491 0
0.1249999999998198 0.06250000000021343 0
0.06249999999993326 0.1250000000004736 0
0.06249999999990177 0.06250000000023678 0
0.1249999999999132 0.1875000000006318 0
0.06249999999997995 0.2500000000009386 0
0.0624999999999566 0.1875000000007061 0
0.1250000000000066 0.3125000000010416 0
0.06250000000002666 0.3750000000014037 0
0.0625000000000033 0.3125000000011711 0
0.1250000000001 0.4375000000014425 0
0.06250000000007334 0.500000000001849 0
0.06250000000005 0.4375000000016263 0
0.1250000000001934 0.5625000000012886 0
0.06250000000012006 0.6250000000010764 0
0.0625000000000967 0.5625000000015004 0
0.1250000000002868 0.68750000000058 0
0.06250000000016674 0.7500000000002841 0
0.0625000000001434 0.6875000000006843 0
0.1250000000003802 0.8124999999998718 0
0.06250000000021343 0.8749999999995117 0
0.06250000000019008 0.8124999999999334 0
0.1250000000004736 0.9374999999997612 0
0.06250000000023678 0.9374999999997248 0
0.2499999999995128 0.06250000000016674 0
0.1874999999997406 0.1250000000003802 0
0.1874999999996663 0.06250000000019008 0
0.2499999999997165 0.1875000000004833 0
0.1874999999998891 0.250000000000735 0
0.1874999999998149 0.1875000000005576 0
0.2499999999999202 0.3125000000007827 0
0.1875000000000376 0.3750000000010894 0
0.1874999999999634 0.3125000000009122 0
0.2500000000001238 0.4375000000010749 0
0.1875000000001862 0.5000000000014281 0
0.1875000000001119 0.4375000000012587 0
0.2500000000003276 0.5625000000009405 0
0.1875000000003348 0.625000000000801 0
0.1875000000002605 0.5625000000011146 0
0.2500000000005313 0.6875000000003795 0
0.1875000000004833 0.7500000000001583 0
0.1875000000004091 0.6875000000004798 0
0.250000000000735 0.8124999999998195 0
0.1875000000006318 0.8749999999995328 0
0.1875000000005576 0.8124999999998455 0
0.2500000000009386 0.9374999999997717 0
0.1875000000007061 0.9374999999997664 0
0.3749999999992033 0.06250000000012006 0
0.3124999999994875 0.1250000000002868 0
0.312499999999358 0.0625000000001434 0
0.3749999999995176 0.1875000000003348 0
0.3124999999997466 0.2500000000005313 0
0.312499999999617 0.1875000000004091 0
0.3749999999998319 0.3125000000005236 0
0.3125000000000056 0.375000000000775 0
0.3124999999998761 0.3125000000006531 0
0.3750000000001463 0.4375000000007072 0
0.3125000000002646 0.5000000000010071 0
0.312500000000135 0.4375000000008911 0
0.3750000000004607 0.5625000000005922 0
0.3125000000005237 0.6250000000005256 0
0.3125000000003941 0.5625000000007663 0
0.375000000000775 0.6875000000001787 0
0.3125000000007827 0.7500000000000325 0
0.3125000000006533 0.6875000000002791 0
0.3750000000010894 0.8124999999997672 0
0.3125000000010416 0.8749999999995541 0
0.3125000000009122 0.8124999999997934 0
0.3750000000014037 0.9374999999997824 0
0.3125000000011711 0.9374999999997771 0
0.4999999999989025 0.06250000000007334 0
0.4374999999992367 0.1250000000001934 0
0.4374999999990529 0.0625000000000967 0
0.4999999999993234 0.1875000000001862 0
0.4374999999996044 0.2500000000003276 0
0.4374999999994205 0.1875000000002605 0
0.4999999999997444 0.3125000000002646 0
0.4374999999999719 0.3750000000004606 0
0.4374999999997881 0.3125000000003941 0
0.5000000000001653 0.4375000000003396 0
0.4375000000003396 0.5000000000005862 0
0.4375000000001558 0.4375000000005234 0
0.5000000000005863 0.5625000000002441 0
0.4375000000007073 0.6250000000002501 0
0.4375000000005235 0.5625000000004182 0
0.5000000000010072 0.6874999999999782 0
0.4375000000010749 0.7499999999999067 0
0.4375000000008912 0.6875000000000786 0
0.5000000000014281 0.8124999999997147 0
0.4375000000014425 0.8749999999995752 0
0.4375000000012587 0.8124999999997409 0
0.500000000001849 0.9374999999997928 0
0.4375000000016263 0.9374999999997876 0
0.6249999999991486 0.06250000000002663 0
0.5624999999991995 0.1250000000001 0
0.5624999999990257 0.06250000000004999 0
0.6249999999994239 0.1875000000000377 0
0.5624999999995477 0.2500000000001239 0
0.5624999999993736 0.1875000000001119 0
0.6249999999996992 0.3125000000000057 0
0.5624999999998959 0.3750000000001463 0
0.5624999999997218 0.3125000000001351 0
0.6249999999999747 0.437499999999972 0
0.5625000000002441 0.5000000000001653 0
0.5625000000000701 0.4375000000001559 0
0.6250000000002501 0.5624999999998959 0
0.5625000000005923 0.6249999999999747 0
0.5625000000004182 0.5625000000000701 0
0.6250000000005255 0.6874999999997775 0
0.5625000000009404 0.749999999999781 0
0.5625000000007663 0.6874999999998779 0
0.6250000000008009 0.8124999999996625 0
0.5625000000012887 0.8749999999995963 0
0.5625000000011144 0.8124999999996887 0
0.6250000000010765 0.9374999999998035 0
0.5625000000015004 0.9374999999997982 0
0.7499999999994036 0.06249999999997995 0
0.6874999999993765 0.1250000000000066 0
0.6874999999992761 0.06250000000000329 0
0.7499999999995295 0.1874999999998891 0
0.687499999999577 0.2499999999999202 0
0.6874999999994766 0.1874999999999634 0
0.7499999999996552 0.3124999999997465 0
0.6874999999997775 0.374999999999832 0
0.6874999999996771 0.3124999999998761 0
0.749999999999781 0.4374999999996043 0
0.6874999999999782 0.4999999999997444 0
0.6874999999998779 0.4374999999997882 0
0.7499999999999069 0.5624999999995477 0
0.6875000000001787 0.6249999999996992 0
0.6875000000000785 0.5624999999997218 0
0.7500000000000326 0.6874999999995768 0
0.6875000000003793 0.7499999999996551 0
0.6875000000002791 0.6874999999996771 0
0.7500000000001584 0.81249999999961 0
0.6875000000005801 0.8749999999996174 0
0.6875000000004797 0.8124999999996363 0
0.7500000000002842 0.9374999999998139 0
0.6875000000006845 0.9374999999998087 0
0.8749999999996596 0.06249999999993326 0
0.8124999999995578 0.1249999999999132 0
0.8124999999995316 0.0624999999999566 0
0.8749999999996385 0.1874999999997406 0
0.8124999999996103 0.2499999999997165 0
0.8124999999995841 0.1874999999998149 0
0.8749999999996176 0.3124999999994875 0
0.8124999999996625 0.3749999999995176 0
0.8124999999996364 0.3124999999996171 0
0.8749999999995963 0.4374999999992367 0
0.8124999999997149 0.4999999999993235 0
0.8124999999996887 0.4374999999994206 0
0.8749999999995752 0.5624999999991998 0
0.8124999999997672 0.624999999999424 0
0.812499999999741 0.5624999999993737 0
0.8749999999995539 0.6874999999993764 0
0.8124999999998194 0.7499999999995293 0
0.8124999999997933 0.6874999999994766 0
0.8749999999995328 0.8124999999995577 0
0.8124999999998719 0.8749999999996385 0
0.8124999999998456 0.8124999999995839 0
0.8749999999995117 0.9374999999998246 0
0.8124999999999334 0.9374999999998193 0
0.9374999999998245 0.1249999999998198 0
0.9374999999998297 0.06249999999990177 0
0.9374999999998141 0.2499999999995128 0
0.9374999999998193 0.1874999999996663 0
0.9374999999998035 0.3749999999992033 0
0.9374999999998088 0.3124999999993581 0
0.9374999999997928 0.4999999999989025 0
0.9374999999997982 0.4374999999990529 0
0.9374999999997823 0.6249999999991487 0
0.9374999999997876 0.5624999999990257 0
0.9374999999997716 0.7499999999994036 0
0.9374999999997768 0.6874999999992761 0
0.9374999999997611 0.8749999999996596 0
0.9374999999997664 0.8124999999995315 0
0.9374999999997247 0.9374999999998299 0
$EndNodes
$Elements
5 96 1 96
1 7 8 8
1 1 5 12 
2 5 6 13 
3 6 7 14 
4 7 8 15 
5 8 9 16 
6 9 10 17 
7 10 11 18 
8 11 2 19 
1 8 8 8
9 2 20 27 
10 20 21 28 
11 21 22 29 
12 22 23 30 
13 23 24 31 
14 24 25 32 
15 25 26 33 
16 26 3 34 
1 9 8 8
17 3 35 42 
18 35 36 43 
19 36 37 44 
20 37 38 45 
21 38 39 46 
22 39 40 47 
23 40 41 48 
24 41 4 49 
1 10 8 8
25 4 50 57 
26 50 51 58 
27 51 52 59 
28 52 53 60 
29 53 54 61 
30 54 55 62 
31 55 56 63 
32 56 1 64 
2 16 10 64
33 1 5 65 56 12 114 115 64 116 
34 56 65 66 55 115 117 118 63 119 
35 55 66 67 54 118 120 121 62 122 
36 54 67 68 53 121 123 124 61 125 
37 53 68 69 52 124 126 127 60 128 
38 52 69 70 51 127 129 130 59 131 
39 51 70 71 50 130 132 133 58 134 
40 50 71 41 4 133 135 49 57 136 
41 5 6 72 65 13 137 138 114 139 
42 65 72 73 66 138 140 141 117 142 
43 66 73 74 67 141 143 144 120 145 
44 67 74 75 68 144 146 147 123 148 
45 68 75 76 69 147 149 150 126 151 
46 69 76 77 70 150 152 153 129 154 
47 70 77 78 71 153 155 156 132 157 
48 71 78 40 41 156 158 48 135 159 
49 6 7 79 72 14 160 161 137 162 
50 72 79 80 73 161 163 164 140 165 
51 73 80 81 74 164 166 167 143 168 
52 74 81 82 75 167 169 170 146 171 
53 75 82 83 76 170 172 173 149 174 
54 76 83 84 77 173 175 176 152 177 
55 77 84 85 78 176 178 179 155 180 
56 78 85 39 40 179 181 47 158 182 
57 7 8 86 79 15 183 184 160 185 
58 79 86 87 80 184 186 187 163 188 
59 80 87 88 81 187 189 190 166 191 
60 81 88 89 82 190 192 193 169 194 
61 82 89 90 83 193 195 196 172 197 
62 83 90 91 84 196 198 199 175 200 
63 84 91 92 85 199 201 202 178 203 
64 85 92 38 39 202 204 46 181 205 
65 8 9 93 86 16 206 207 183 208 
66 86 93 94 87 207 209 210 186 211 
67 87 94 95 88 210 212 213 189 214 
68 88 95 96 89 213 215 216 192 217 
69 89 96 97 90 216 218 219 195 220 
70 90 97 98 91 219 221 222 198 223 
71 91 98 99 92 222 224 225 201 226 
72 92 99 37 38 225 227 45 204 228 
73 9 10 100 93 17 229 230 206 231 
74 93 100 101 94 230 232 233 209 234 
75 94 101 102 95 233 235 236 212 237 
76 95 102 103 96 236 238 239 215 240 
77 96 103 104 97 239 241 242 218 243 
78 97 104 105 98 242 244 245 221 246 
79 98 105 106 99 245 247 248 224 249 
80 99 106 36 37 248 250 44 227 251 
81 10 11 107 100 18 252 253 229 254 
82 100 107 108 101 253 255 256 232 257 
83 101 108 109 102 256 258 259 235 260 
84 102 109 110 103 259 261 262 238 263 
85 103 110 111 104 262 264 265 241 266 
86 104 111 112 105 265 267 268 244 269 
87 105 112 113 106 268 270 271 247 272 
88 106 113 35 36 271 273 43 250 274 
89 11 2 20 107 19 27 275 252 276 
90 107 20 21 108 275 28 277 255 278 
91 108 21 22 109 277 29 279 258 280 
92 109 22 23 110 279 30 281 261 282 
93 110 23 24 111 281 31 283 264 284 
94 111 24 25 112 283 32 285 267 286 
95 112 25 26 113 285 33 287 270 288 
96 113 26 3 35 287 34 42 273 289 
$EndElements
