$MeshFormat
4.1 0 8
$EndMeshFormat
$PhysicalNames
3
1 1 "Boundary 1"
1 2 "Boundary 2"
2 3 "Surface Rect"
$EndPhysicalNames
$Entities
4 4 1 0
1 0 0 0 0 
2 1 0 0 0 
3 1 1 0 0 
4 0 1 0 0 
7 0 0 0 1 0 0 1 1 2 1 -2 
8 1 0 0 1 1 0 1 1 2 2 -3 
9 0 1 0 1 1 0 1 2 2 3 -4 
10 0 0 0 0 1 0 1 2 2 4 -1 
16 0 0 0 1 1 0 1 3 4 7 8 9 10 
$EndEntities
$Nodes
9 81 1 81
0 1 0 1
1
0 0 0
0 2 0 1
2
1 0 0
0 3 0 1
3
1 1 0
0 4 0 1
4
0 1 0
1 7 0 7
5
6
7
8
9
10
11
0.2499999999994109 0 0
0.4999999999986921 0 0
0.7499999999993406 0 0
0.1249999999997752 0 0
0.3749999999990515 0 0
0.6249999999990163 0 0
0.8749999999996704 0 0
1 8 0 7
12
13
14
15
16
17
18
1 0.2499999999994109 0
1 0.4999999999986921 0
1 0.7499999999993406 0
1 0.1249999999997752 0
1 0.3749999999990515 0
1 0.6249999999990163 0
1 0.8749999999996704 0
1 9 0 7
19
20
21
22
23
24
25
0.7500000000003471 1 0
0.5000000000020595 1 0
0.2500000000010405 1 0
0.8750000000000052 1 0
0.625000000001009 1 0
0.37500000000155 1 0
0.1250000000005203 1 0
1 10 0 7
26
27
28
29
30
31
32
0 0.7500000000003471 0
0 0.5000000000020595 0
0 0.2500000000010405 0
0 0.8750000000000052 0
0 0.625000000001009 0
0 0.37500000000155 0
0 0.1250000000005203 0
2 16 0 49
33
34
35
36
37
38
39
40
41
42
43
44
45
46
47
48
49
50
51
52
53
54
55
56
57
58
59
60
61
62
63
64
65
66
67
68
69
70
71
72
73
74
75
76
77
78
79
80
81
0.2499999999998184 0.2500000000006332 0
0.2500000000002257 0.5000000000012177 0
0.2500000000006332 0.7500000000000954 0
0.4999999999995339 0.2500000000002257 0
0.5000000000003757 0.5000000000003757 0
0.5000000000012177 0.749999999999844 0
0.7499999999995922 0.2499999999998184 0
0.749999999999844 0.4999999999995339 0
0.7500000000000953 0.7499999999995921 0
0.2499999999996146 0.1250000000003166 0
0.1249999999999092 0.2500000000008368 0
0.1249999999998422 0.1250000000004184 0
0.250000000000022 0.3750000000009254 0
0.1250000000001129 0.5000000000016386 0
0.125000000000011 0.3750000000012377 0
0.2500000000004294 0.6250000000006566 0
0.1250000000003166 0.7500000000002212 0
0.1250000000002147 0.6250000000008327 0
0.2500000000008368 0.8750000000000477 0
0.1250000000004184 0.8750000000000264 0
0.499999999999113 0.1250000000001129 0
0.3749999999996761 0.2500000000004294 0
0.3749999999993638 0.1250000000002147 0
0.4999999999999548 0.3750000000003007 0
0.3750000000003007 0.5000000000007967 0
0.3749999999999884 0.3750000000006131 0
0.5000000000007967 0.6250000000001099 0
0.3750000000009254 0.7499999999999697 0
0.3750000000006131 0.6250000000003832 0
0.5000000000016386 0.8749999999999221 0
0.3750000000012378 0.8749999999999849 0
0.7499999999994664 0.1249999999999092 0
0.624999999999563 0.250000000000022 0
0.6249999999992897 0.125000000000011 0
0.7499999999997181 0.3749999999996761 0
0.6250000000001099 0.4999999999999548 0
0.6249999999998365 0.3749999999999884 0
0.7499999999999696 0.624999999999563 0
0.6250000000006565 0.749999999999718 0
0.625000000000383 0.6249999999998364 0
0.7500000000002212 0.8749999999997961 0
0.6250000000008327 0.874999999999859 0
0.8749999999997962 0.2499999999996146 0
0.8749999999997332 0.1249999999998422 0
0.8749999999999221 0.499999999999113 0
0.874999999999859 0.3749999999993638 0
0.8750000000000476 0.7499999999994664 0
0.8749999999999847 0.6249999999992897 0
0.8750000000000264 0.8749999999997332 0
$EndNodes
$Elements
5 32 1 32
1 7 8 4
1 1 5 8 
2 5 6 9 
3 6 7 10 
4 7 2 11 
1 8 8 4
5 2 12 15 
6 12 13 16 
7 13 14 17 
8 14 3 18 
1 9 8 4
9 3 19 22 
10 19 20 23 
11 20 21 24 
12 21 4 25 
1 10 8 4
13 4 26 29 
14 26 27 30 
15 27 28 31 
16 28 1 32 
2 16 10 16
17 1 5 33 28 8 42 43 32 44 
18 28 33 34 27 43 45 46 31 47 
19 27 34 35 26 46 48 49 30 50 
20 26 35 21 4 49 51 25 29 52 
21 5 6 36 33 9 53 54 42 55 
22 33 36 37 34 54 56 57 45 58 
23 34 37 38 35 57 59 60 48 61 
24 35 38 20 21 60 62 24 51 63 
25 6 7 39 36 10 64 65 53 66 
26 36 39 40 37 65 67 68 56 69 
27 37 40 41 38 68 70 71 59 72 
28 38 41 19 20 71 73 23 62 74 
29 7 2 12 39 11 15 75 64 76 
30 39 12 13 40 75 16 77 67 78 
31 40 13 14 41 77 17 79 70 80 
32 41 14 3 19 79 18 22 73 81 
$EndElements
