$MeshFormat
4.1 0 8
$EndMeshFormat
$Entities
4 4 1 0
1 0 0 0 0 
2 1 0 0 0 
3 1 1 0 0 
4 0 1 0 0 
1 -9.999999994736442e-08 -1e-07 -1e-07 1.0000001 1e-07 1e-07 1 1 2 1 -2 
2 0.9999999000000001 -9.999999994736442e-08 -1e-07 1.0000001 1.0000001 1e-07 1 2 2 2 -3 
3 -9.999999994736442e-08 0.9999999000000001 -1e-07 1.0000001 1.0000001 1e-07 1 2 2 3 -4 
4 -1e-07 -9.999999994736442e-08 -1e-07 1e-07 1.0000001 1e-07 1 2 2 4 -1 
1 -9.999999994736442e-08 -9.999999994736442e-08 -1e-07 1.0000001 1.0000001 1e-07 1 10 4 1 2 3 4 
$EndEntities
$Nodes
9 105 1 105
0 1 0 1
1
0 0 0
0 2 0 1
2
1 0 0
0 3 0 1
3
1 1 0
0 4 0 1
4
0 1 0
1 1 0 7
5
6
7
8
9
10
11
0.25 0 0
0.5 0 0
0.75 0 0
0.125 0 0
0.375 0 0
0.625 0 0
0.875 0 0
1 2 0 7
12
13
14
15
16
17
18
1 0.25 0
1 0.5 0
1 0.75 0
1 0.125 0
1 0.375 0
1 0.625 0
1 0.875 0
1 3 0 7
19
20
21
22
23
24
25
0.75 1 0
0.5 1 0
0.25 1 0
0.875 1 0
0.625 1 0
0.375 1 0
0.125 1 0
1 4 0 7
26
27
28
29
30
31
32
0 0.75 0
0 0.5 0
0 0.25 0
0 0.875 0
0 0.625 0
0 0.375 0
0 0.125 0
2 1 0 73
33
34
35
36
37
38
39
40
41
42
43
44
45
46
47
48
49
50
51
52
53
54
55
56
57
58
59
60
61
62
63
64
65
66
67
68
69
70
71
72
73
74
75
76
77
78
79
80
81
82
83
84
85
86
87
88
89
90
91
92
93
94
95
96
97
98
99
100
101
102
103
104
105
0.2046118127312862 0.3640358958115698 0
0.7834936490538904 0.375 0
0.6239406576797809 0.788306988736042 0
0.3759949993707403 0.7885993441589132 0
0.5 0.5669872981077807 0
0.7874036008069086 0.6328802641586005 0
0.5203442540690987 0.2917273223602594 0
0.2365667220822626 0.6010369744916511 0
0.6896861734925069 0.1768489190752347 0
0.375 0.155290190286839 0
0.8169872981077807 0.8169872981077806 0
0.1830127018922193 0.8169872981077806 0
0.1780977805306465 0.1749592066742909 0
0.3832210891220217 0.4115988944960767 0
0.8540734935786138 0.1484804596480833 0
0.5101721270345494 0.42935731023402 0
0.6519189515614945 0.3333636611801297 0
0.6417468245269452 0.4709936490538904 0
0.7854486249303995 0.5039401320793002 0
0.6437018004034543 0.5999337811331906 0
0.7056721292433448 0.7105936264473213 0
0.5619703288398905 0.6776471434219113 0
0.3062808607265015 0.6948181593252821 0
0.3682833610411314 0.5840121362997158 0
0.4379974996853702 0.6777933211333469 0
0.5948430867462535 0.08842445953761735 0
0.6050152137808028 0.2342881207177471 0
0.5101721270345494 0.1458636611801297 0
0.3098939056021422 0.5063179344938639 0
0.4416105445610108 0.4892930963019287 0
0.4476721270345493 0.2235087563235492 0
0.4375 0.07764509514341955 0
0.4999678285252606 0.7884531664474776 0
0.4379974996853702 0.8942996720794566 0
0.5619703288398905 0.8941534943680209 0
0.1023059063656431 0.3070179479057849 0
0.1023059063656431 0.4320179479057849 0
0.8917468245269452 0.4375 0
0.8917468245269452 0.3125 0
0.6869703288398905 0.8941534943680209 0
0.3129974996853702 0.8942996720794566 0
0.7198430867462535 0.08842445953761735 0
0.3791105445610108 0.2834445423914578 0
0.293916450926654 0.3878173951538232 0
0.2898059063656431 0.2596630430492044 0
0.8937018004034543 0.6914401320793002 0
0.8937018004034543 0.5664401320793002 0
0.1182833610411314 0.5505184872458255 0
0.1182833610411314 0.6755184872458255 0
0.2205892674067744 0.4825364351516104 0
0.4517826715955602 0.351663108428168 0
0.7365899112731986 0.2759244595376174 0
0.7834936490538904 0.9084936490538903 0
0.9084936490538904 0.9084936490538903 0
0.09150635094610965 0.9084936490538903 0
0.2165063509461096 0.9084936490538903 0
0.09150635094610965 0.7834936490538903 0
0.9084936490538904 0.7834936490538903 0
0.2140488902653233 0.08747960333714544 0
0.08904889026532326 0.08747960333714544 0
0.08904889026532326 0.2124796033371454 0
0.1913547966309663 0.2694975512429304 0
0.2765488902653233 0.165124698480565 0
0.8187835713162521 0.2617402298240417 0
0.9270367467893069 0.1992402298240417 0
0.8021954494573447 0.7249337811331906 0
0.2097897119872409 0.7090121362997158 0
0.3125 0.07764509514341955 0
0.7204639778937808 0.8026471434219113 0
0.2795038506314798 0.8027933211333469 0
0.7718798335355603 0.162664689361659 0
0.9270367467893069 0.07424022982404166 0
0.8020367467893069 0.07424022982404166 0
$EndNodes
$Elements
5 60 1 60
1 1 8 4
1 1 5 8 
2 5 6 9 
3 6 7 10 
4 7 2 11 
1 2 8 4
5 2 12 15 
6 12 13 16 
7 13 14 17 
8 14 3 18 
1 3 8 4
9 3 19 22 
10 19 20 23 
11 20 21 24 
12 21 4 25 
1 4 8 4
13 4 26 29 
14 26 27 30 
15 27 28 31 
16 28 1 32 
2 1 9 44
17 37 39 34 48 49 50 
18 34 38 37 51 52 50 
19 37 38 35 52 53 54 
20 36 40 37 55 56 57 
21 6 41 39 58 59 60 
22 40 46 37 61 62 56 
23 39 42 6 63 64 60 
24 36 37 35 57 54 65 
25 20 36 35 66 65 67 
26 28 33 27 68 69 31 
27 13 34 12 70 71 16 
28 20 35 19 67 72 23 
29 21 36 20 73 66 24 
30 7 41 6 74 58 10 
31 42 46 33 75 76 77 
32 14 38 13 78 79 17 
33 27 40 26 80 81 30 
34 33 40 27 82 80 69 
35 13 38 34 79 51 70 
36 37 46 39 62 83 48 
37 39 41 34 59 84 49 
38 19 43 3 85 86 22 
39 4 44 21 87 88 25 
40 26 44 4 89 87 29 
41 3 43 14 86 90 18 
42 5 45 1 91 92 8 
43 1 45 28 92 93 32 
44 33 46 40 76 61 82 
45 33 45 42 94 95 77 
46 34 47 12 96 97 71 
47 39 46 42 83 75 63 
48 14 43 38 90 98 78 
49 40 44 26 99 89 81 
50 6 42 5 64 100 9 
51 28 45 33 93 94 68 
52 35 43 19 101 85 72 
53 21 44 36 88 102 73 
54 41 47 34 103 96 84 
55 2 47 7 104 105 11 
56 12 47 2 97 104 15 
57 38 43 35 98 101 53 
58 36 44 40 102 99 55 
59 42 45 5 95 91 100 
60 7 47 41 105 103 74 
$EndElements
