$MeshFormat
4.1 0 8
$EndMeshFormat
$Entities
4 4 1 0
1 0 0 0 0 
2 1 0 0 0 
3 1 1 0 0 
4 0 1 0 0 
1 -9.999999994736442e-08 -1e-07 -1e-07 1.0000001 1e-07 1e-07 1 1 2 1 -2 
2 0.9999999000000001 -9.999999994736442e-08 -1e-07 1.0000001 1.0000001 1e-07 1 2 2 2 -3 
3 -9.999999994736442e-08 0.9999999000000001 -1e-07 1.0000001 1.0000001 1e-07 1 2 2 3 -4 
4 -1e-07 -9.999999994736442e-08 -1e-07 1e-07 1.0000001 1e-07 1 2 2 4 -1 
1 -9.999999994736442e-08 -9.999999994736442e-08 -1e-07 1.0000001 1.0000001 1e-07 1 10 4 1 2 3 4 
$EndEntities
$Nodes
9 96 1 96
0 1 0 1
1
0 0 0
0 2 0 1
2
1 0 0
0 3 0 1
3
1 1 0
0 4 0 1
4
0 1 0
1 1 0 7
5
6
7
8
9
10
11
0.125 0 0
0.25 0 0
0.375 0 0
0.5 0 0
0.625 0 0
0.75 0 0
0.875 0 0
1 2 0 7
12
13
14
15
16
17
18
1 0.125 0
1 0.25 0
1 0.375 0
1 0.5 0
1 0.625 0
1 0.75 0
1 0.875 0
1 3 0 7
19
20
21
22
23
24
25
0.875 1 0
0.75 1 0
0.625 1 0
0.5 1 0
0.375 1 0
0.25 1 0
0.125 1 0
1 4 0 7
26
27
28
29
30
31
32
0 0.875 0
0 0.75 0
0 0.625 0
0 0.5 0
0 0.375 0
0 0.25 0
0 0.125 0
2 1 0 64
33
34
35
36
37
38
39
40
41
42
43
44
45
46
47
48
49
50
51
52
53
54
55
56
57
58
59
60
61
62
63
64
65
66
67
68
69
70
71
72
73
74
75
76
77
78
79
80
81
82
83
84
85
86
87
88
89
90
91
92
93
94
95
96
0.1047296370420417 0.5622516884663737 0
0.564094863106229 0.1107249391757809 0
0.8917468245269452 0.5625 0
0.5636502498770715 0.8889321224102376 0
0.3265915722014295 0.1181536766262294 0
0.8929849573903605 0.3098918535636488 0
0.3285707062518295 0.8822316074696649 0
0.1189276714966017 0.3090423074066714 0
0.8945379619481026 0.8076656081756484 0
0.1059571575098877 0.8184712825426809 0
0.7966579344023306 0.1094851921887082 0
0.892212014097138 0.6866942680292747 0
0.7835711806489225 0.6248657113382124 0
0.7835065709863958 0.4999776185563687 0
0.6752555491687584 0.5624738883157635 0
0.6763912305712481 0.435655920195629 0
0.5671816035375034 0.4996883014185654 0
0.5665578667085684 0.6257479383843062 0
0.4582306067376578 0.5633769467290634 0
0.4586825875568351 0.4375942080246047 0
0.3506175052380172 0.4997651041842927 0
0.3488235554012156 0.6246961477130281 0
0.3513582602921421 0.3764715589254162 0
0.458871752310156 0.3127609611583367 0
0.246069810373835 0.4378395362524899 0
0.3449813784208416 0.2539168015492269 0
0.4523796141035452 0.188106199969891 0
0.2269259356136096 0.2071445712417791 0
0.5667907384271359 0.2484284947709638 0
0.6767692376892552 0.1777395879750965 0
0.6821170180028825 0.3014840143016424 0
0.78687533202949 0.2375568309538426 0
0.7840492921516208 0.7490375979238559 0
0.7964030538192071 0.8848518189312384 0
0.6752404735808356 0.8125000000000002 0
0.6752769433944144 0.6874375226603564 0
0.5655363939815634 0.7540651945034191 0
0.4528800758063548 0.8158498921506999 0
0.4561658911085535 0.6889409186643947 0
0.3449668480159612 0.7499093925058519 0
0.2407687071648419 0.6800759981764014 0
0.8919553336595986 0.4370615786866696 0
0.1049159278238996 0.4373392161197177 0
0.7850256190915847 0.3716223590783096 0
0.1197821680086142 0.6912881315200115 0
0.5683391550676269 0.3726019833116237 0
0.1057063823570024 0.1874999999999999 0
0.2436021711216516 0.5601194703520888 0
0.1905646450230677 0.9006241233837274 0
0.8971730864405809 0.1911333561284893 0
0.1874985737204353 0.09927172251166189 0
0.2447772774473437 0.3251122469762171 0
0.2217683719957004 0.7871000892663896 0
0.4375 0.08453570123751081 0
0.6860835994000998 0.91652381960367 0
0.4375 0.9184296705855016 0
0.6875 0.07733755452579499 0
0.9084936490538903 0.0915063509461097 0
0.9084936490538903 0.9084936490538903 0
0.0915063509461097 0.9084936490538903 0
0.09075933678027726 0.09075933678027726 0
0.1748493524602256 0.5000000000000001 0
0.1750839833710574 0.3819936123883327 0
0.176947198012515 0.619276518474527 0
$EndNodes
$Elements
5 190 1 190
1 1 1 8
1 1 5 
2 5 6 
3 6 7 
4 7 8 
5 8 9 
6 9 10 
7 10 11 
8 11 2 
1 2 1 8
9 2 12 
10 12 13 
11 13 14 
12 14 15 
13 15 16 
14 16 17 
15 17 18 
16 18 3 
1 3 1 8
17 3 19 
18 19 20 
19 20 21 
20 21 22 
21 22 23 
22 23 24 
23 24 25 
24 25 4 
1 4 1 8
25 4 26 
26 26 27 
27 27 28 
28 28 29 
29 29 30 
30 30 31 
31 31 32 
32 32 1 
2 1 2 158
33 77 85 42 
34 37 59 58 
35 73 85 77 
36 39 72 70 
37 37 86 59 
38 60 84 40 
39 70 88 39 
40 40 79 60 
41 20 66 19 
42 43 64 62 
43 58 60 37 
44 36 69 67 
45 38 76 64 
46 62 89 43 
47 66 91 19 
48 36 70 69 
49 34 62 61 
50 34 61 59 
51 48 78 63 
52 64 76 63 
53 63 78 61 
54 63 76 48 
55 39 85 72 
56 50 71 51 
57 62 63 61 
58 70 72 71 
59 51 71 54 
60 69 71 50 
61 70 71 69 
62 62 64 63 
63 67 87 36 
64 64 82 38 
65 71 72 54 
66 72 73 54 
67 65 68 45 
68 67 69 68 
69 14 74 38 
70 16 44 35 
71 41 66 65 
72 44 65 45 
73 48 76 46 
74 47 50 49 
75 52 78 49 
76 67 68 65 
77 51 52 49 
78 53 55 52 
79 56 78 52 
80 55 58 56 
81 14 38 13 
82 15 74 14 
83 16 35 15 
84 35 74 15 
85 17 44 16 
86 18 41 17 
87 41 44 17 
88 22 36 21 
89 24 39 23 
90 30 75 29 
91 29 75 33 
92 41 65 44 
93 45 47 46 
94 47 48 46 
95 47 68 50 
96 49 78 48 
97 50 51 49 
98 51 53 52 
99 59 61 56 
100 61 78 56 
101 66 67 65 
102 7 37 6 
103 9 34 8 
104 11 43 10 
105 27 42 26 
106 28 77 27 
107 27 77 42 
108 29 33 28 
109 33 77 28 
110 31 40 30 
111 55 56 52 
112 58 59 56 
113 40 75 30 
114 74 76 38 
115 46 76 74 
116 44 45 35 
117 47 49 48 
118 53 57 55 
119 46 74 35 
120 45 68 47 
121 68 69 50 
122 51 54 53 
123 45 46 35 
124 60 83 37 
125 58 84 60 
126 31 79 40 
127 73 80 54 
128 54 80 53 
129 32 79 31 
130 53 80 57 
131 42 85 81 
132 25 81 24 
133 84 95 40 
134 37 83 6 
135 55 84 58 
136 59 86 34 
137 13 82 12 
138 38 82 13 
139 36 88 70 
140 34 89 62 
141 24 81 39 
142 43 82 64 
143 79 83 60 
144 7 86 37 
145 34 86 8 
146 36 87 21 
147 22 88 36 
148 39 88 23 
149 43 89 10 
150 9 89 34 
151 2 90 11 
152 12 90 2 
153 3 91 18 
154 19 91 3 
155 4 92 25 
156 26 92 4 
157 41 91 66 
158 6 83 5 
159 57 84 55 
160 5 93 1 
161 1 93 32 
162 81 85 39 
163 72 85 73 
164 20 87 66 
165 77 96 73 
166 8 86 7 
167 21 87 20 
168 66 87 67 
169 23 88 22 
170 25 92 81 
171 10 89 9 
172 42 92 26 
173 11 90 43 
174 18 91 41 
175 82 90 12 
176 33 96 77 
177 32 93 79 
178 94 95 57 
179 75 94 33 
180 75 95 94 
181 40 95 75 
182 81 92 42 
183 79 93 83 
184 43 90 82 
185 80 94 57 
186 73 96 80 
187 83 93 5 
188 94 96 33 
189 80 96 94 
190 57 95 84 
$EndElements
